<svg xmlns="http://www.w3.org/2000/svg" xmlns:xlink="http://www.w3.org/1999/xlink"><symbol id="icon-purchase-awards" viewBox="0 0 54 56">
<path d="M52.136 0H20.6502C20.0169 0 19.5017 0.515156 19.5017 1.14844V3.71864H16.9315C16.2983 3.71864 15.7831 4.2338 15.7831 4.86708V14.9363L3.73609 20.957C3.08323 21.2833 2.67767 21.9393 2.67767 22.6692V28.9816C2.67767 31.1233 2.93098 33.0343 3.41333 34.7671C1.76395 36.1892 0.716797 38.2915 0.716797 40.6351C0.716797 44.908 4.19306 48.3842 8.46591 48.3842C9.48003 48.3842 10.4483 48.1864 11.3369 47.8306V52.2306C11.3369 52.7192 11.6254 53.1629 12.072 53.3611C12.5184 53.5593 13.0413 53.4755 13.4035 53.1478L16.4118 50.4265L19.4201 53.1478C19.6519 53.3575 19.9493 53.4672 20.2504 53.4672C20.4199 53.4672 20.5908 53.4324 20.7517 53.361C21.1983 53.1627 21.4868 52.719 21.4868 52.2305V45.7663H27.6568C28.11 45.7663 28.4772 45.399 28.4772 44.946C28.4772 44.493 28.11 44.1257 27.6568 44.1257H23.1309C24.8694 42.6377 26.3212 41.0415 27.445 39.2401H41.8224C42.2756 39.2401 42.6427 38.8729 42.6427 38.4198C42.6427 37.9668 42.2756 37.5995 41.8224 37.5995H28.3474C28.6706 36.9265 28.9528 36.2252 29.1914 35.491H31.9225C32.3756 35.491 32.7428 35.1237 32.7428 34.6707C32.7428 34.2176 32.3756 33.8504 31.9225 33.8504H29.6408C29.7917 33.1752 29.909 32.4728 29.9927 31.7418H41.8223C42.2755 31.7418 42.6426 31.3745 42.6426 30.9215C42.6426 30.4685 42.2755 30.1012 41.8223 30.1012H30.1192C30.1351 29.7344 30.1456 29.3627 30.1456 28.9815V27.9927H41.8223C42.2755 27.9927 42.6426 27.6254 42.6426 27.1724C42.6426 26.7193 42.2755 26.352 41.8223 26.352H30.1457V24.2435H34.3287C34.7819 24.2435 35.149 23.8762 35.149 23.4232C35.149 22.9702 34.7819 22.6029 34.3287 22.6029H30.1434C30.1196 21.8998 29.7202 21.2732 29.0872 20.9569L28.1618 20.4944H41.8223C42.2755 20.4944 42.6426 20.1271 42.6426 19.674C42.6426 19.221 42.2755 18.8537 41.8223 18.8537H24.879L17.4236 15.1277V5.35927H47.9251V11.4844C47.9251 11.9374 48.2923 12.3047 48.7454 12.3047C49.1986 12.3047 49.5658 11.9374 49.5658 11.4844V4.86708C49.5658 4.2338 49.0506 3.71864 48.4173 3.71864H21.1424V1.64063H51.6439V40.4072H49.5658V15.3125C49.5658 14.8595 49.1986 14.4922 48.7454 14.4922C48.2923 14.4922 47.9251 14.8595 47.9251 15.3125V44.1258H31.485C31.0318 44.1258 30.6647 44.4931 30.6647 44.9461C30.6647 45.3992 31.0318 45.7664 31.485 45.7664H48.4173C49.0506 45.7664 49.5658 45.2513 49.5658 44.618V42.0478H52.136C52.7692 42.0478 53.2844 41.5326 53.2844 40.8994V1.14844C53.2844 0.515156 52.7692 0 52.136 0V0ZM2.35742 40.6351C2.35742 37.2669 5.0977 34.5266 8.46591 34.5266C11.8341 34.5266 14.5744 37.2669 14.5744 40.6351C14.5744 44.0033 11.8341 46.7436 8.46591 46.7436C5.0977 46.7436 2.35742 44.0033 2.35742 40.6351ZM17.2414 48.9648C16.7683 48.5369 16.0548 48.5369 15.582 48.9648L12.9774 51.3209V46.9295C14.9359 45.5218 16.2149 43.2258 16.2149 40.6352C16.2149 39.9281 16.1179 39.2436 15.9396 38.5923C16.096 38.6013 16.2531 38.6075 16.4117 38.6075C17.6348 38.6075 18.7966 38.3427 19.8459 37.8708V51.3209L17.2414 48.9648ZM28.505 22.6692V28.9816C28.505 33.3014 27.428 36.7153 25.1158 39.7254C24.1506 40.9819 22.9793 42.1658 21.4866 43.3731V36.8963C23.5074 35.3602 24.8152 32.9324 24.8152 30.2039C24.8152 28.8545 24.4856 27.5107 23.8621 26.3176C23.6523 25.9161 23.1566 25.7608 22.7551 25.9705C22.3536 26.1803 22.1982 26.676 22.408 27.0775C22.9166 28.0508 23.1745 29.1027 23.1745 30.204C23.1745 33.933 20.1408 36.9669 16.4117 36.9669C16.009 36.9669 15.6145 36.9307 15.2311 36.8627C14.1942 35.0106 12.4198 33.6261 10.3077 33.1091C9.88625 32.2284 9.6488 31.2437 9.6488 30.204C9.6488 26.475 12.6825 23.4411 16.4117 23.4411C17.7307 23.4411 19.01 23.8225 20.1114 24.544C20.49 24.7923 20.9988 24.6864 21.247 24.3073C21.4953 23.9283 21.3893 23.4198 21.0103 23.1716C19.6412 22.2747 18.051 21.8005 16.4117 21.8005C11.778 21.8005 8.00817 25.5702 8.00817 30.204C8.00817 31.1419 8.16381 32.0438 8.44917 32.8866C7.15144 32.8893 5.9283 33.2137 4.85347 33.7827C4.49505 32.3064 4.3183 30.7182 4.3183 28.9818V22.6693C4.3183 22.565 4.37616 22.4713 4.46945 22.4247L16.4116 16.4562L28.3538 22.4247C28.4471 22.4712 28.505 22.5649 28.505 22.6692Z"/>
<path d="M22.707 15.9253C22.707 16.3783 23.0743 16.7456 23.5273 16.7456H41.8233C42.2764 16.7456 42.6436 16.3783 42.6436 15.9253C42.6436 15.4723 42.2764 15.105 41.8233 15.105H23.5273C23.0742 15.105 22.707 15.4722 22.707 15.9253Z"/>
<path d="M41.8217 22.603H37.3906C36.9375 22.603 36.5703 22.9703 36.5703 23.4233C36.5703 23.8764 36.9375 24.2437 37.3906 24.2437H41.8218C42.275 24.2437 42.6422 23.8764 42.6422 23.4233C42.6422 22.9703 42.2749 22.603 41.8217 22.603Z"/>
<path d="M41.8217 33.8506H34.875C34.4219 33.8506 34.0547 34.2179 34.0547 34.6709C34.0547 35.1239 34.4219 35.4912 34.875 35.4912H41.8218C42.275 35.4912 42.6422 35.1239 42.6422 34.6709C42.6422 34.2179 42.2749 33.8506 41.8217 33.8506Z"/>
<path d="M38.2983 11.3301C38.7514 11.3301 39.1186 10.9628 39.1186 10.5098C39.1186 10.0567 38.7514 9.68945 38.2983 9.68945H27.0508C26.5978 9.68945 26.2305 10.0567 26.2305 10.5098C26.2305 10.9628 26.5978 11.3301 27.0508 11.3301H38.2983Z"/>
<path d="M18.9442 28.2969L16.0204 31.2207L14.1073 29.3076C13.787 28.9873 13.2676 28.9873 12.9473 29.3076C12.6269 29.628 12.6269 30.1474 12.9473 30.4677L15.4404 32.9608C15.6005 33.121 15.8105 33.2011 16.0204 33.2011C16.2303 33.2011 16.4403 33.121 16.6004 32.9608L20.1044 29.4569C20.4247 29.1366 20.4247 28.6172 20.1044 28.2969C19.7839 27.9766 19.2645 27.9766 18.9442 28.2969Z"/>
<path d="M31.4673 49.5836L29.7865 49.3394L29.035 47.8165C29.035 47.8165 29.035 47.8163 29.0349 47.8163C28.825 47.3911 28.4 47.127 27.9257 47.127C27.4516 47.127 27.0266 47.3911 26.8166 47.8165L26.0649 49.3394L24.3842 49.5836C23.9148 49.6519 23.5323 49.9744 23.3857 50.4254C23.2391 50.8764 23.359 51.3622 23.6987 51.6934L24.9149 52.8789L24.6278 54.5528C24.5476 55.0202 24.7361 55.4838 25.1198 55.7625C25.3366 55.92 25.5903 56.0001 25.8458 56.0001C26.0423 56.0001 26.2399 55.9526 26.4225 55.8567L27.9257 55.0664L29.429 55.8567C29.8488 56.0772 30.3476 56.0413 30.7315 55.7625C31.1152 55.4839 31.3038 55.0203 31.2236 54.5528L30.9365 52.8789L32.1528 51.6934C32.4923 51.3624 32.6122 50.8765 32.4657 50.4255C32.3192 49.9745 31.9367 49.6519 31.4673 49.5836ZM29.6394 51.8523C29.3478 52.1365 29.2148 52.5457 29.2837 52.9471L29.4684 54.0239L28.5014 53.5157C28.3211 53.4208 28.1234 53.3735 27.9256 53.3735C27.7279 53.3735 27.5303 53.4208 27.3501 53.5155L26.3831 54.0239L26.5677 52.9471C26.6365 52.5457 26.5035 52.1364 26.2119 51.8523L25.4296 51.0897L26.5108 50.9325C26.9136 50.874 27.2617 50.6212 27.4421 50.2558L27.9255 49.2762L28.4091 50.2558C28.5892 50.621 28.9375 50.874 29.3405 50.9325L30.4217 51.0897L29.6394 51.8523Z"/>
<path d="M41.6175 49.5836L39.9368 49.3394L39.1853 47.8165C39.1853 47.8165 39.1853 47.8163 39.1852 47.8163C38.9753 47.3911 38.5503 47.127 38.076 47.127C37.6019 47.127 37.1768 47.3911 36.9668 47.8165L36.2153 49.3394L34.5344 49.5836C34.0651 49.6519 33.6826 49.9744 33.5361 50.4255C33.3895 50.8765 33.5095 51.3623 33.849 51.6934L35.0652 52.8789L34.7781 54.5526C34.6978 55.02 34.8863 55.4835 35.2699 55.7624C35.6535 56.0413 36.1526 56.0774 36.5728 55.8567L38.0759 55.0664L39.5791 55.8567C39.7618 55.9526 39.9593 56.0001 40.1559 56.0001C40.4112 56.0001 40.6648 55.92 40.8817 55.7625C41.2654 55.4839 41.4539 55.0203 41.3738 54.5528L41.0867 52.8789L42.3029 51.6934C42.6424 51.3624 42.7624 50.8765 42.6158 50.4255C42.4695 49.9745 42.0869 49.6519 41.6175 49.5836ZM39.7897 51.8523C39.4981 52.1365 39.3651 52.5457 39.434 52.9471L39.6186 54.0239L38.6516 53.5157C38.4714 53.4208 38.2736 53.3735 38.0759 53.3735C37.8781 53.3735 37.6806 53.4208 37.5004 53.5155L36.5333 54.0239L36.718 52.9471C36.7868 52.5458 36.6538 52.1365 36.3622 51.8523L35.5798 51.0897L36.661 50.9325C37.0641 50.874 37.4122 50.621 37.5925 50.2558L38.0759 49.2762L38.5594 50.2558C38.7396 50.621 39.0878 50.874 39.4909 50.9325L40.572 51.0897L39.7897 51.8523Z"/>
<path d="M51.7678 49.5836L50.0872 49.3394L49.3357 47.8165C49.3357 47.8165 49.3357 47.8163 49.3356 47.8163C49.1257 47.3911 48.7006 47.127 48.2265 47.127C47.7523 47.127 47.3272 47.3911 47.1172 47.8165L46.3657 49.3394L44.6848 49.5836C44.2155 49.6519 43.833 49.9744 43.6865 50.4255C43.5399 50.8765 43.6599 51.3624 43.9994 51.6934L45.2156 52.8789L44.9285 54.5526C44.8482 55.02 45.0367 55.4836 45.4204 55.7624C45.6372 55.92 45.8909 56.0001 46.1463 56.0001C46.343 56.0001 46.5405 55.9526 46.723 55.8567L48.2263 55.0664L49.7295 55.8567C50.1493 56.0772 50.6482 56.0413 51.0321 55.7625C51.4158 55.4839 51.6043 55.0203 51.5242 54.5528L51.237 52.8789L52.4534 51.6932C52.7929 51.3622 52.9128 50.8763 52.7661 50.4254C52.6198 49.9744 52.2372 49.6519 51.7678 49.5836ZM49.9404 51.852C49.6486 52.1361 49.5155 52.5455 49.5844 52.9471L49.769 54.0239L48.802 53.5157C48.6219 53.4208 48.4241 53.3735 48.2264 53.3735C48.0286 53.3735 47.831 53.4208 47.6506 53.5155L46.6837 54.0239L46.8684 52.9471C46.9372 52.5458 46.8042 52.1365 46.5126 51.8523L45.7302 51.0897L46.8114 50.9325C47.2141 50.874 47.5622 50.6213 47.7428 50.2558L48.2264 49.2762L48.7098 50.2558C48.89 50.621 49.2382 50.874 49.6413 50.9325L50.7224 51.0897L49.9404 51.852Z"/>
<path d="M11.6616 38.7737L10.1937 38.5603L9.53724 37.2301C9.33446 36.8192 8.92398 36.564 8.46581 36.564C8.00763 36.564 7.59704 36.8192 7.39437 37.2301L6.7379 38.5603L5.27009 38.7736C4.81673 38.8394 4.44715 39.151 4.30551 39.5867C4.16387 40.0224 4.2797 40.4917 4.60782 40.8115L5.67007 41.847L5.41938 43.3089C5.34195 43.7605 5.52406 44.2083 5.89473 44.4777C6.10418 44.6298 6.34918 44.7072 6.59593 44.7072C6.78581 44.7072 6.97667 44.6613 7.15309 44.5686L8.46603 43.8783L9.77896 44.5686C10.1845 44.7819 10.6667 44.747 11.0373 44.4777C11.408 44.2084 11.5901 43.7605 11.5127 43.309L11.262 41.847L12.3242 40.8115C12.6524 40.4917 12.7682 40.0224 12.6265 39.5867C12.4845 39.151 12.1149 38.8395 11.6616 38.7737ZM9.9486 40.8358C9.66696 41.1104 9.53845 41.5057 9.60495 41.8934L9.74265 42.6962L9.02176 42.3172C8.67362 42.1342 8.25788 42.1342 7.90974 42.3172L7.18885 42.6962L7.32656 41.8934C7.39306 41.5057 7.26454 41.1104 6.9829 40.8359L6.3996 40.2674L7.20526 40.1503C7.59474 40.0938 7.93118 39.8495 8.1052 39.4966L8.4657 38.7662L8.82609 39.4964C9.0001 39.8494 9.33654 40.0937 9.72581 40.1502L10.5318 40.2673L9.9486 40.8358Z"/>
</symbol><symbol id="icon-purchase-choice" viewBox="0 0 54 54">
<path d="M53.2083 23.7222C52.7713 23.7222 52.4173 24.0762 52.4173 24.5132V26.6122C52.4173 28.5023 50.8797 30.04 48.9895 30.04H44.75C44.7441 30.0818 44.605 28.311 44.6053 28.3287C44.5556 27.7332 44.1606 27.2165 43.5977 27.0114C43.4284 26.95 43.2419 26.9202 43.0278 26.9202C41.649 26.9202 40.445 27.8052 39.9605 29.1746C39.8744 29.4178 39.8118 29.7084 39.7723 30.04H29.6492C29.3666 30.04 29.1055 30.1908 28.9642 30.4355L27.2276 33.4433C27.1614 33.558 27.0562 33.5751 26.9993 33.5751C26.9424 33.5752 26.8371 33.558 26.7709 33.4433L25.0343 30.4355C24.893 30.1908 24.632 30.04 24.3493 30.04H20.7188C20.2819 30.04 19.9277 30.394 19.9277 30.831C19.9277 31.2679 20.2819 31.622 20.7188 31.622H23.8926L25.4008 34.2343C25.7345 34.8122 26.332 35.1572 26.9993 35.1571C27.6666 35.1571 28.2641 34.8121 28.5977 34.2343L30.1059 31.622H39.7163C39.7497 32.9017 39.9906 33.9706 40.5333 35.3943C40.7711 36.0182 40.8381 36.6952 40.7366 37.3736C38.5926 37.3736 34.2578 37.3736 32.1538 37.3736C30.6807 37.3736 29.4824 38.572 29.4824 40.045C29.4824 40.5689 29.6346 41.0576 29.8961 41.4706C29.0761 41.9271 28.52 42.8026 28.52 43.8059C28.52 44.7939 29.0594 45.6576 29.8588 46.1197C29.5888 46.5371 29.4312 47.0337 29.4312 47.5668C29.4312 48.7119 30.1557 49.6908 31.1702 50.0699C30.969 50.4452 30.8546 50.8735 30.8546 51.3282C30.8546 52.8005 32.0524 53.9992 33.5248 54.0002H41.0851C42.6713 54.0002 44.2345 53.5786 45.6054 52.7808C47.0067 51.9656 48.6032 51.535 50.2249 51.535C50.2392 51.5349 53.1632 51.5395 53.2084 51.5395C53.6447 51.5395 53.9987 51.1861 53.9994 50.7498C54 50.3128 53.6464 49.9582 53.2097 49.9575C53.1699 49.9575 50.2911 49.953 50.2241 49.953C48.3241 49.953 46.4524 50.4578 44.8098 51.4134C43.6801 52.0707 42.3922 52.4181 41.0851 52.4181H38.6078C38.7573 52.0849 38.8412 51.7162 38.8412 51.3281C38.8412 50.5819 38.5335 49.9065 38.0385 49.4213C38.5032 48.9405 38.7899 48.2866 38.7899 47.5666C38.7899 46.8468 38.5032 46.193 38.0387 45.7122C38.5335 45.227 38.8412 44.5518 38.8412 43.8058C38.8412 43.0732 38.5445 42.4085 38.0653 41.9254C38.5447 41.4423 38.8412 40.7777 38.8412 40.045C38.8412 39.6571 38.7575 39.2886 38.608 38.9557H40.4435C40.2932 40.2814 40.4887 41.477 41.0314 42.5206C41.7533 43.9084 43.0937 45.0317 45.0153 45.8593C45.1173 45.9032 45.2234 45.924 45.3278 45.924C45.6342 45.924 45.9258 45.7449 46.0548 45.4457C46.2275 45.0444 46.0423 44.579 45.6411 44.4063C42.5542 43.0768 41.4585 41.0929 42.1931 38.1626C42.4756 37.0354 42.4128 35.8832 42.0116 34.8309C41.3224 33.0225 41.2377 32.0143 41.3145 30.5645C41.3401 30.0801 41.4116 29.8165 41.452 29.7024C41.6479 29.1489 42.1782 28.5023 43.0279 28.5023H43.0324L43.1556 30.0189C43.2266 30.8896 43.5465 31.7153 44.0805 32.4065C44.1442 32.4869 45.5661 34.3365 45.6581 34.4492C45.9286 34.7923 46.4259 34.8512 46.769 34.5808C47.1121 34.3104 47.1711 33.8131 46.9006 33.4699L45.4735 31.6221H48.9895C51.7519 31.6221 53.9993 29.3747 53.9993 26.6123V24.5132C53.9993 24.0762 53.6453 23.7222 53.2083 23.7222ZM36.1696 42.7165C36.7703 42.7165 37.259 43.2052 37.259 43.8058C37.259 44.4065 36.7703 44.8952 36.1696 44.8952H31.1913C30.5906 44.8952 30.102 44.4065 30.102 43.8058C30.102 43.2052 30.5906 42.7165 31.1913 42.7165H36.1696ZM32.1025 46.4773H36.1185C36.7191 46.4773 37.2077 46.966 37.2077 47.5666C37.2077 48.1673 36.7191 48.656 36.1185 48.656H32.1025C31.5019 48.656 31.0132 48.1673 31.0132 47.5666C31.0132 46.966 31.5018 46.4773 32.1025 46.4773ZM33.5257 52.4181C32.9252 52.4177 32.4365 51.9286 32.4365 51.3281C32.4365 50.7271 32.9255 50.2381 33.5265 50.2381H36.1691C36.77 50.2381 37.2591 50.7271 37.2591 51.3281C37.2591 51.929 36.77 52.4181 36.169 52.4181H33.5257ZM37.259 40.045C37.259 40.6457 36.7703 41.1344 36.1696 41.1344H32.1538C31.5531 41.1344 31.0644 40.6457 31.0644 40.045C31.0644 39.4444 31.5531 38.9557 32.1538 38.9557H36.1696C36.7704 38.9555 37.259 39.4443 37.259 40.045Z"/>
<path d="M25.8987 7.8999C26.3356 7.8999 26.6897 7.54584 26.6897 7.10889C26.6897 6.67193 26.3356 6.31787 25.8987 6.31787H23.0234C22.5866 6.31787 22.2324 6.67193 22.2324 7.10889V13.9326C22.2324 14.3696 22.5866 14.7236 23.0234 14.7236H25.8987C26.3356 14.7236 26.6897 14.3696 26.6897 13.9326C26.6897 13.4957 26.3356 13.1416 25.8987 13.1416H23.8145V11.3117H25.5772C26.014 11.3117 26.3682 10.9577 26.3682 10.5207C26.3682 10.0837 26.014 9.72968 25.5772 9.72968H23.8145V7.8998H25.8987V7.8999Z"/>
<path d="M18.1259 6.31787H16.1426C15.7057 6.31787 15.3516 6.67193 15.3516 7.10889V13.9326C15.3516 14.3696 15.7057 14.7236 16.1426 14.7236H18.4723C19.9218 14.7236 21.1011 13.5425 21.1011 12.0907C21.1011 11.2452 20.6992 10.4922 20.0769 10.0112C20.336 9.6317 20.488 9.17333 20.488 8.67995C20.4881 7.37752 19.4285 6.31787 18.1259 6.31787ZM16.9337 7.8999H18.126C18.5562 7.8999 18.9061 8.24985 18.9061 8.67995C18.9061 9.11153 18.5561 9.46263 18.126 9.46263H16.9337V7.8999ZM18.4724 13.1417H16.9337V11.0448H18.4724C19.0496 11.0448 19.5192 11.514 19.5192 12.0908C19.5192 12.6703 19.0495 13.1417 18.4724 13.1417Z"/>
<path d="M30.8741 13.1416C30.1786 13.1416 29.5088 12.8607 29.0823 12.39C28.7887 12.0662 28.2885 12.0417 27.9649 12.335C27.6412 12.6283 27.6166 13.1286 27.91 13.4524C28.6315 14.2485 29.7395 14.7238 30.8741 14.7238C32.2652 14.7238 33.4264 13.8092 33.6352 12.5491C33.7851 11.6446 33.3738 10.3888 31.7215 9.82591C30.9926 9.58397 30.1837 9.29699 29.9057 9.10219C29.6502 8.93987 29.667 8.6608 29.6783 8.57927C29.6968 8.44448 29.7908 8.11553 30.2616 7.97378C31.2566 7.67425 32.1723 8.39977 32.1967 8.41928C32.531 8.69698 33.0272 8.65289 33.3073 8.31971C33.5884 7.98527 33.5452 7.4863 33.2108 7.20523C33.1472 7.15186 31.6368 5.90754 29.8054 6.45903C28.8838 6.73663 28.2345 7.46647 28.1111 8.36369C27.996 9.19901 28.3585 9.99361 29.0573 10.4377C29.4815 10.7181 30.2176 10.9942 31.2115 11.3237C31.5028 11.4228 32.1698 11.7157 32.0745 12.2907C32.0062 12.703 31.5622 13.1416 30.8741 13.1416Z"/>
<path d="M39.1238 6.31787H35.3555C34.9185 6.31787 34.5645 6.67193 34.5645 7.10889C34.5645 7.54584 34.9185 7.8999 35.3555 7.8999H36.441V13.9323C36.441 14.3693 36.795 14.7233 37.232 14.7233C37.6689 14.7233 38.023 14.3693 38.023 13.9323V7.8999H39.1238C39.5607 7.8999 39.9148 7.54584 39.9148 7.10889C39.9148 6.67193 39.5607 6.31787 39.1238 6.31787Z"/>
<path d="M32.8984 16.8984C32.4615 16.8984 32.1074 17.2525 32.1074 17.6895V24.513C32.1074 24.9499 32.4615 25.304 32.8984 25.304C33.3354 25.304 33.6895 24.9499 33.6895 24.513V17.6895C33.6895 17.2525 33.3353 16.8984 32.8984 16.8984Z"/>
<path d="M15.0312 17.6895V24.513C15.0312 24.9499 15.3854 25.304 15.8223 25.304C16.2591 25.304 16.6133 24.9499 16.6133 24.513V21.7752H19.7532V24.513C19.7532 24.9499 20.1074 25.304 20.5442 25.304C20.9811 25.304 21.3352 24.9499 21.3352 24.513V17.6895C21.3352 17.2525 20.9811 16.8984 20.5442 16.8984C20.1074 16.8984 19.7532 17.2525 19.7532 17.6895V20.1932H16.6133V17.6895C16.6133 17.2525 16.2591 16.8984 15.8223 16.8984C15.3854 16.8984 15.0312 17.2525 15.0312 17.6895Z"/>
<path d="M46.5041 18.4805C46.941 18.4805 47.2951 18.1264 47.2951 17.6895C47.2951 17.2525 46.941 16.8984 46.5041 16.8984H43.6289C43.1919 16.8984 42.8379 17.2525 42.8379 17.6895V24.513C42.8379 24.9499 43.1919 25.304 43.6289 25.304H46.5041C46.941 25.304 47.2951 24.9499 47.2951 24.513C47.2951 24.076 46.941 23.7219 46.5041 23.7219H44.4199V21.8922H46.1825C46.6195 21.8922 46.9735 21.5381 46.9735 21.1012C46.9735 20.6642 46.6195 20.3101 46.1825 20.3101H44.4199V18.4804H46.5041V18.4805Z"/>
<path d="M10.9099 18.4806C11.4351 18.4806 11.9415 18.6352 12.3746 18.9278C12.7366 19.1721 13.2283 19.0771 13.4729 18.7151C13.7174 18.3531 13.6223 17.8614 13.2602 17.6168C12.5648 17.1469 11.752 16.8984 10.9099 16.8984C8.59239 16.8984 6.70703 18.7838 6.70703 21.1013C6.70703 23.4187 8.59239 25.3041 10.9099 25.3041C11.9548 25.2808 12.9419 24.9191 13.6653 24.0583C13.9461 23.7235 13.9023 23.2247 13.5676 22.944C13.2329 22.6631 12.7338 22.707 12.4532 23.0418C12.1493 23.4044 11.6109 23.7201 10.9099 23.7222C9.46472 23.7222 8.28906 22.5465 8.28906 21.1014C8.28906 19.6562 9.46472 18.4806 10.9099 18.4806Z"/>
<path d="M38.7477 18.4806C39.273 18.4806 39.7794 18.6352 40.2125 18.9278C40.5745 19.1721 41.0662 19.0771 41.3107 18.7151C41.5553 18.3531 41.4602 17.8614 41.0981 17.6168C40.4027 17.1469 39.5899 16.8984 38.7477 16.8984C36.4303 16.8984 34.5449 18.7838 34.5449 21.1013C34.5449 23.4187 36.4303 25.3041 38.7477 25.3041C39.7927 25.2808 40.7798 24.9191 41.5032 24.0583C41.784 23.7235 41.7402 23.2247 41.4055 22.944C41.0708 22.6631 40.5717 22.707 40.2911 23.0418C39.9872 23.4044 39.4488 23.7201 38.7477 23.7222C37.3026 23.7222 36.127 22.5465 36.127 21.1014C36.127 19.6562 37.3026 18.4806 38.7477 18.4806Z"/>
<path d="M22.4688 21.1013C22.4688 23.4187 24.3541 25.3041 26.6716 25.3041C28.989 25.3041 30.8744 23.4187 30.8744 21.1013C30.8744 18.7838 28.989 16.8984 26.6716 16.8984C24.3541 16.8984 22.4688 18.7839 22.4688 21.1013ZM29.2924 21.1013C29.2924 22.5463 28.1167 23.7221 26.6716 23.7221C25.2264 23.7221 24.0508 22.5464 24.0508 21.1013C24.0508 19.6561 25.2264 18.4805 26.6716 18.4805C28.1166 18.4806 29.2924 19.6562 29.2924 21.1013Z"/>
<path d="M5.34489 8.74903C4.95254 8.8062 4.63287 9.07598 4.51031 9.45303C4.38786 9.82998 4.48816 10.2362 4.77209 10.5131L6.04847 11.7572L5.74714 13.514C5.68017 13.9049 5.83785 14.2925 6.15868 14.5256C6.33998 14.6572 6.55198 14.724 6.76544 14.724C6.92987 14.724 7.09503 14.6844 7.24754 14.6041L8.82525 13.7747L10.4029 14.604C10.7537 14.7887 11.171 14.7585 11.492 14.5256C11.8129 14.2925 11.9705 13.9049 11.9036 13.514L11.6022 11.7572L12.8787 10.513C13.1625 10.2362 13.2628 9.82998 13.1403 9.45303C13.0178 9.07598 12.6981 8.8062 12.3054 8.74903L10.5415 8.49274L9.75274 6.89447C9.57724 6.53883 9.22192 6.31787 8.82535 6.31787C8.42879 6.31787 8.07347 6.53883 7.89797 6.89436L7.10917 8.49274L5.34489 8.74903ZM8.40021 9.45114L8.82525 8.58998L9.25008 9.45072C9.40058 9.75615 9.69168 9.96772 10.029 10.0169L10.9792 10.155L10.2913 10.8255C10.0476 11.0632 9.93657 11.4054 9.99416 11.7407L10.1566 12.6872L9.30671 12.2405C9.15589 12.1612 8.99062 12.1215 8.82525 12.1215C8.65977 12.1215 8.49429 12.1613 8.34357 12.2406L7.49392 12.6872L7.65634 11.7403C7.71371 11.4051 7.60255 11.063 7.35881 10.8252L6.67116 10.155L7.62175 10.0169C7.95861 9.96793 8.2496 9.75636 8.40021 9.45114Z"/>
<path d="M49.49 9.60221C49.3685 9.22811 49.0511 8.96064 48.662 8.90422L46.9748 8.659L46.2205 7.13055C46.0466 6.77776 45.6941 6.55859 45.3007 6.55859C44.9073 6.55859 44.555 6.77776 44.3811 7.13034L43.6266 8.659L41.9397 8.90422C41.5505 8.96064 41.2331 9.22811 41.1115 9.60221C40.9899 9.97631 41.0896 10.3792 41.3711 10.6535L42.5919 11.8434L42.3037 13.5239C42.2372 13.9116 42.3937 14.2959 42.7119 14.5271C42.8916 14.6575 43.1019 14.7239 43.3136 14.7239C43.4766 14.7239 43.6405 14.6845 43.7917 14.6049L45.3007 13.8116L46.8095 14.6048C47.1576 14.7879 47.5713 14.7582 47.8896 14.5272C48.2079 14.2961 48.3643 13.9117 48.2977 13.524L48.0097 11.8435L49.2302 10.6537C49.5119 10.3792 49.6116 9.97631 49.49 9.60221ZM46.6956 10.915C46.4539 11.1508 46.3438 11.4901 46.401 11.8224L46.548 12.6798L45.778 12.275C45.6286 12.1964 45.4646 12.1572 45.3008 12.1572C45.1371 12.1572 44.9731 12.1964 44.8237 12.275H44.8236L44.0538 12.6798L44.201 11.8217C44.2575 11.4898 44.1475 11.1509 43.9059 10.9146L43.283 10.3075L44.1429 10.1824C44.4772 10.1342 44.7661 9.92463 44.916 9.62141L45.3008 8.84136L45.6855 9.62088C45.8349 9.92421 46.1239 10.1341 46.4578 10.1823L47.3187 10.3075L46.6956 10.915Z"/>
<path d="M53.0648 38.7606C51.4301 38.7606 49.8667 37.964 48.8827 36.6297C48.6235 36.2781 48.128 36.2032 47.7767 36.4626C47.425 36.7219 47.3503 37.2171 47.6095 37.5686C48.8693 39.303 51.0474 40.3895 53.2082 40.3427C53.6452 40.3427 53.9992 39.9886 53.9992 39.5516C53.9992 39.1147 53.6452 38.7606 53.2082 38.7606H53.0648Z"/>
<path d="M48.9904 0H10.6719C10.235 0 9.88086 0.354059 9.88086 0.791016C9.88086 1.22797 10.235 1.58203 10.6719 1.58203H48.9904C50.8805 1.58203 52.4181 3.11966 52.4181 5.00977V20.8216C52.4181 21.2586 52.7722 21.6127 53.2091 21.6127C53.6461 21.6127 54.0001 21.2586 54.0001 20.8216V5.00977C54.0001 2.24743 51.7527 0 48.9904 0Z"/>
<path d="M24.1031 41.4703C24.3647 41.0575 24.5168 40.5688 24.5168 40.0449C24.5168 38.5718 23.3185 37.3735 21.8455 37.3735C19.5917 37.3742 15.5193 37.3743 13.2626 37.3735C13.1611 36.6952 13.2281 36.0182 13.4659 35.3942C14.0086 33.9706 14.2495 32.9018 14.2829 31.6219H17.028C17.4649 31.6219 17.8191 31.2678 17.8191 30.8308C17.8191 30.3939 17.4649 30.0398 17.028 30.0398H14.227C14.1876 29.7082 14.1249 29.4178 14.0389 29.1746C13.5545 27.805 12.3505 26.9201 10.9715 26.9201C10.7572 26.9201 10.5707 26.9499 10.4008 27.0116C9.83876 27.2162 9.44346 27.7333 9.39379 28.3303C9.36257 28.6646 9.28347 29.7926 9.2494 30.0398H5.00977C3.11977 30.0398 1.58203 28.5022 1.58203 26.6121V5.00977C1.58203 3.11966 3.11977 1.58203 5.00977 1.58203H6.98034C7.4172 1.58203 7.77136 1.22797 7.77136 0.791016C7.77136 0.354059 7.4172 0 6.98034 0H5.00977C2.24743 0 1.15387e-06 2.24743 1.15387e-06 5.00977V26.6121C1.15387e-06 29.3744 2.24743 31.6219 5.00977 31.6219H8.52588L7.16407 33.3874C6.50363 34.2144 6.00655 34.9865 5.64427 35.748C4.77373 37.5782 2.92497 38.7606 0.934349 38.7606C0.497497 38.7606 0.143333 39.1147 0.143333 39.5516C0.143333 39.9886 0.497497 40.3426 0.934349 40.3426C3.53204 40.3426 5.94158 38.8059 7.07284 36.4276C7.38302 35.7756 7.8185 35.1025 8.40417 34.3695C8.40702 34.366 8.40976 34.3626 8.41261 34.3589L9.9186 32.4064C10.4529 31.7149 10.7729 30.8892 10.8438 30.0183L10.9671 28.5019H10.9715C11.8214 28.5019 12.3516 29.1483 12.5474 29.702C12.5877 29.816 12.6593 30.0797 12.6848 30.5641C12.7616 32.014 12.6768 33.0223 11.9876 34.8304C11.5865 35.8829 11.5238 37.0349 11.8063 38.1622C12.5407 41.0924 11.445 43.0764 8.35808 44.4058C7.95688 44.5787 7.77168 45.044 7.94454 45.4452C8.07342 45.7444 8.36504 45.9235 8.67143 45.9235C8.77584 45.9235 8.88205 45.9027 8.98393 45.8589C10.9055 45.0312 12.2459 43.9079 12.9678 42.5201C13.5107 41.4765 13.7061 40.2809 13.5558 38.9552H15.3914C15.242 39.2882 15.1582 39.6567 15.1582 40.0446C15.1582 40.7773 15.4549 41.4419 15.9341 41.925C15.4549 42.4081 15.1582 43.0727 15.1582 43.8054C15.1582 44.5514 15.4658 45.2266 15.9606 45.7117C15.496 46.1926 15.2093 46.8464 15.2093 47.5662C15.2093 48.2861 15.4961 48.9399 15.9608 49.4209C15.4659 49.9061 15.1582 50.5814 15.1582 51.3276C15.1582 51.7158 15.242 52.0845 15.3916 52.4177H12.9143C11.6073 52.4177 10.3193 52.0702 9.18949 51.413C7.54682 50.4572 5.67527 49.9525 3.7762 49.9525C3.75648 49.9524 0.840587 49.9571 0.789751 49.9571C0.3529 49.9577 -0.000737127 50.3124 1.15387e-06 50.7494C0.000633966 51.1858 0.354693 51.5391 0.791017 51.5391C0.828669 51.5391 3.7106 51.5346 3.77547 51.5346C5.3961 51.5346 6.99279 51.9651 8.39405 52.7804C9.76514 53.578 11.3282 53.9998 12.9144 53.9998H20.4741H20.4747C21.947 53.9987 23.1448 52.8001 23.1448 51.3277C23.1448 50.8731 23.0304 50.4447 22.8292 50.0695C23.8437 49.6903 24.5681 48.7115 24.5681 47.5663C24.5681 47.0333 24.4105 46.5366 24.1405 46.1193C24.9399 45.6571 25.4794 44.7933 25.4794 43.8055C25.4794 42.8024 24.9231 41.9269 24.1031 41.4703ZM22.808 44.8951H17.8296C17.229 44.8951 16.7403 44.4064 16.7403 43.8057C16.7403 43.2051 17.229 42.7163 17.8296 42.7163H22.808C23.4087 42.7163 23.8973 43.2051 23.8973 43.8057C23.8973 44.4064 23.4087 44.8951 22.808 44.8951ZM22.9349 40.0449C22.9349 40.6455 22.4463 41.1343 21.8456 41.1343H17.8297C17.2291 41.1343 16.7404 40.6455 16.7404 40.0449C16.7404 39.4443 17.2291 38.9555 17.8297 38.9555H21.8456C22.4462 38.9554 22.9349 39.4442 22.9349 40.0449ZM20.4736 52.418H17.8303C17.2294 52.418 16.7404 51.9289 16.7404 51.328C16.7404 50.727 17.2294 50.2379 17.8303 50.2379H20.473C21.0739 50.2379 21.5629 50.727 21.5629 51.328C21.5628 51.9285 21.0741 52.4175 20.4736 52.418ZM21.8968 48.6559H17.8809C17.2802 48.6559 16.7915 48.1672 16.7915 47.5665C16.7915 46.9659 17.2801 46.4771 17.8809 46.4771H21.8968C22.4974 46.4771 22.9861 46.9659 22.9861 47.5665C22.9861 48.1672 22.4974 48.6559 21.8968 48.6559Z"/>
</symbol><symbol id="icon-purchase-contract" viewBox="0 0 49 55">
<path d="M32.9818 14.8032H6.64309C6.19621 14.8032 5.83398 15.1654 5.83398 15.6123C5.83398 16.0592 6.19621 16.4214 6.64309 16.4214H32.9819C33.4287 16.4214 33.791 16.0592 33.791 15.6123C33.791 15.1654 33.4286 14.8032 32.9818 14.8032Z"/>
<path d="M6.64309 10.8091H19.8124C20.2592 10.8091 20.6215 10.4469 20.6215 10C20.6215 9.55314 20.2592 9.19092 19.8124 9.19092H6.64309C6.19621 9.19092 5.83398 9.55314 5.83398 10C5.83398 10.447 6.19621 10.8091 6.64309 10.8091Z"/>
<path d="M32.9818 19.7759H6.64309C6.19621 19.7759 5.83398 20.1381 5.83398 20.585C5.83398 21.0319 6.19621 21.3941 6.64309 21.3941H32.9819C33.4287 21.3941 33.791 21.0319 33.791 20.585C33.7909 20.1381 33.4286 19.7759 32.9818 19.7759Z"/>
<path d="M12.6423 49.3784H4.21319C2.82971 49.3784 1.70403 48.2528 1.70403 46.8693V4.12726C1.70403 2.74377 2.82971 1.6181 4.21319 1.6181H28.4966C28.575 1.6181 28.6522 1.62529 28.7286 1.63561V6.68164C28.7286 8.95748 30.5801 10.8089 32.8558 10.8089H37.9018C37.9122 10.8854 37.9193 10.9626 37.9193 11.041V24.8191C37.9193 25.2659 38.2815 25.6282 38.7284 25.6282C39.1753 25.6282 39.5375 25.2659 39.5375 24.8191V11.0411C39.5375 10.1536 39.1918 9.31917 38.5642 8.6915L30.846 0.973242C30.2184 0.345684 29.3841 0 28.4966 0H4.21319C1.93735 0 0.0859375 1.85152 0.0859375 4.12726V46.8693C0.0859375 49.1451 1.93746 50.9965 4.21319 50.9965H12.6423C13.0891 50.9965 13.4514 50.6343 13.4514 50.1874C13.4514 49.7405 13.0891 49.3784 12.6423 49.3784ZM36.7751 9.1908H32.8559C31.4725 9.1908 30.3468 8.06513 30.3468 6.68164V2.76246L36.7751 9.1908Z"/>
<path d="M48.6649 39.6093L41.8094 28.0379C41.3098 27.1942 40.2225 26.9153 39.3784 27.4154L37.7109 28.4033C36.4165 29.1701 35.8694 30.7218 36.3138 32.0969C35.752 32.3005 35.1361 32.2972 34.5689 32.078C33.2523 31.6638 32.2514 30.8305 30.5982 31.2486C27.7913 31.9633 27.8766 31.9275 27.6227 32.0145C25.9791 31.0788 24.9911 30.8003 23.2464 31.4753L21.6911 32.0765C20.9711 32.3547 20.1777 32.2888 19.5123 31.8945L19.0879 31.6443C19.295 30.4034 18.7447 29.0938 17.5794 28.4035C17.5794 28.4035 17.5794 28.4035 17.5793 28.4034L15.9118 27.4156C15.0701 26.917 13.9795 27.1961 13.4809 28.0379L6.62523 39.6095C6.12561 40.4529 6.40362 41.5406 7.24752 42.0404L8.91493 43.0283C9.41949 43.3272 9.974 43.4693 10.5218 43.4693C11.1328 43.4693 11.7351 43.2923 12.2501 42.9589L12.5976 43.1639L11.8639 44.1858C10.9896 45.4038 11.2674 47.0974 12.4855 47.9718C13.0488 48.3762 13.7565 48.5608 14.4884 48.4459C14.6045 49.1247 14.9764 49.76 15.5786 50.1924C16.1442 50.5985 16.8487 50.7834 17.5818 50.6679C17.6983 51.3462 18.07 51.9809 18.6718 52.4131C19.4807 52.9937 20.4864 53.0608 21.3244 52.7029C21.5078 53.1792 21.8265 53.6093 22.2711 53.9286C23.4321 54.7619 25.0314 54.5445 25.9336 53.4649L27.8833 54.6199C29.1727 55.384 30.8363 54.9594 31.6008 53.6685C31.7963 53.3385 31.9176 52.9789 31.962 52.6092L31.9664 52.6119C33.2538 53.3744 34.9212 52.9475 35.6839 51.6604C35.9048 51.2875 36.0258 50.8831 36.0553 50.4778C37.1901 50.7631 38.4268 50.2864 39.0531 49.2294C39.2586 48.8826 39.3777 48.5081 39.4169 48.1311C40.6332 48.6084 42.0547 48.1471 42.7415 46.9878C43.111 46.3642 43.2155 45.6342 43.0358 44.932C42.933 44.5302 42.7439 44.1655 42.4844 43.8576L43.559 43.2297C44.4681 43.6029 45.5056 43.5431 46.3751 43.0282L48.0423 42.0403C48.8862 41.5408 49.1649 40.4534 48.6649 39.6093ZM9.73971 41.6362L8.07231 40.6482C7.99819 40.6043 7.97359 40.5083 8.01742 40.4341L14.8731 28.8623C14.9172 28.7879 15.0136 28.7637 15.0873 28.8075L16.7546 29.7953C17.4955 30.2343 17.7273 31.1846 17.2963 31.9119L11.8564 41.0943C11.4222 41.8274 10.4728 42.0703 9.73971 41.6362ZM13.4291 46.6573C12.9378 46.3045 12.8254 45.6211 13.1784 45.1295L14.2568 43.6274C14.6003 43.1488 15.2849 43.0178 15.7846 43.3765C16.2749 43.7285 16.3874 44.4138 16.0355 44.9042L14.957 46.4064C14.605 46.897 13.9193 47.0091 13.4291 46.6573ZM16.5223 48.878C16.0319 48.5259 15.9195 47.8404 16.2715 47.3502L17.3499 45.8481C17.3499 45.8481 17.3499 45.8481 17.3499 45.848C17.3499 45.848 17.3499 45.8479 17.35 45.8479L18.5401 44.1901C18.7107 43.9526 18.9635 43.7956 19.252 43.7483C19.312 43.7384 19.372 43.7336 19.4316 43.7336C19.6587 43.7336 19.8797 43.8043 20.0679 43.9393C20.3053 44.1099 20.4623 44.3626 20.5096 44.6511C20.557 44.9397 20.4892 45.2294 20.3186 45.467L18.05 48.6271C17.6974 49.1185 17.0139 49.231 16.5223 48.878ZM19.6155 51.0985C19.1254 50.7466 19.0128 50.0617 19.3642 49.5714C19.3643 49.5712 19.3645 49.571 19.3646 49.5708L21.6332 46.4108C21.9851 45.9205 22.6708 45.8079 23.161 46.1598C23.6514 46.5118 23.7639 47.1972 23.4118 47.6876L22.4039 49.0917C22.4039 49.0917 22.4039 49.0917 22.4038 49.0918L21.1432 50.8477C20.7912 51.3381 20.106 51.4508 19.6155 51.0985ZM23.2148 52.6141C22.7248 52.2621 22.6121 51.5775 22.9632 51.0872L23.7183 50.0355C24.0702 49.545 24.7559 49.4329 25.2461 49.7847C25.7363 50.1366 25.8489 50.822 25.4969 51.3124L24.7425 52.3631C24.3906 52.8536 23.705 52.9662 23.2148 52.6141ZM41.3497 46.1632C41.0418 46.6828 40.3689 46.8551 39.8492 46.5473C38.9692 46.026 33.2926 42.6629 32.6874 42.3043C32.3028 42.0766 31.8066 42.2035 31.5789 42.5879C31.3512 42.9724 31.478 43.4687 31.8625 43.6964L37.2769 46.9042L37.277 46.9043C37.7968 47.2121 37.9702 47.883 37.6611 48.4048C37.3531 48.9247 36.6799 49.0966 36.1604 48.7891C34.1579 47.6027 32.5318 46.6394 30.7432 45.5796C30.3585 45.3519 29.8624 45.4788 29.6347 45.8632C29.4069 46.2477 29.5338 46.744 29.9183 46.9717L33.9077 49.3352L33.9086 49.3358C34.4287 49.6446 34.6004 50.3151 34.2919 50.8359C33.984 51.3557 33.311 51.5279 32.7912 51.22L30.6501 49.9517C30.6499 49.9516 30.6496 49.9515 30.6494 49.9513C30.6492 49.9512 30.6489 49.9511 30.6487 49.951L29.0863 49.0252C28.7017 48.7974 28.2055 48.9242 27.9778 49.3088C27.7501 49.6933 27.8769 50.1895 28.2614 50.4173L29.8242 51.3431C29.8244 51.3433 29.8246 51.3435 29.8248 51.3436C30.3446 51.6514 30.518 52.3222 30.209 52.844C29.901 53.3639 29.228 53.5361 28.7082 53.2282L26.8851 52.1483C27.6666 50.9424 27.3694 49.3173 26.1898 48.4706C25.8433 48.222 25.4576 48.0672 25.063 48.0007C25.4815 46.8817 25.1207 45.5752 24.1046 44.8458C23.503 44.4138 22.7828 44.2646 22.103 44.3711C21.982 43.6638 21.5952 43.0442 21.0116 42.6253C19.914 41.8376 18.4223 41.989 17.5009 42.9211C17.3137 42.5922 17.0552 42.2973 16.7283 42.0625C15.8161 41.4079 14.6319 41.4018 13.7289 41.9532L13.3582 41.7344L18.4468 33.145L18.689 33.2879C19.7589 33.9217 21.0646 34.0538 22.2746 33.5859L23.8298 32.9846C24.7198 32.6407 25.2106 32.6182 26.0909 33.0336C25.5149 33.6807 25.173 34.5303 25.173 35.446V39.0334C25.173 39.9862 25.9476 40.7619 26.8997 40.7625H26.9021C27.8571 40.7625 28.7551 40.3907 29.4307 39.7156C29.8245 39.322 30.1152 38.8528 30.2894 38.3406C31.3341 38.9592 39.9651 44.0703 40.9657 44.6631C41.2174 44.8122 41.396 45.0504 41.4685 45.3338C41.541 45.6168 41.4988 45.9115 41.3497 46.1632ZM47.2179 40.6482L45.5504 41.6362C44.8174 42.0702 43.868 41.8271 43.434 41.0945L40.8842 36.7906C40.6564 36.4061 40.1599 36.2793 39.7757 36.5068C39.3913 36.7345 39.2643 37.2308 39.4919 37.6153L42.0417 41.9192C42.0897 42.0002 42.1418 42.0773 42.1957 42.1523L41.4869 42.5665C41.3435 42.6513 41.2057 42.7448 41.0739 42.8463L30.0822 36.3371C29.5437 36.0183 28.8609 36.4069 28.8609 37.0332C28.8524 37.0815 28.9445 37.9132 28.2867 38.5707C27.9168 38.9403 27.425 39.144 26.902 39.144C26.9015 39.144 26.9011 39.144 26.9007 39.144C26.8402 39.144 26.791 39.0942 26.791 39.0329V35.4456C26.791 34.5084 27.4357 33.7178 28.3077 33.497L30.995 32.817C31.97 32.5705 32.5212 33.0912 33.9812 33.5853C34.9947 33.9774 36.0967 33.9533 37.0749 33.5355L37.5633 34.3599C37.7911 34.7445 38.2874 34.8713 38.6718 34.6437C39.0562 34.4159 39.1832 33.9196 38.9556 33.5352L37.9937 31.9117C37.5585 31.1772 37.801 30.2306 38.5354 29.7952L40.2028 28.8074C40.2757 28.7641 40.372 28.7863 40.4171 28.8623L47.2726 40.4339C47.3169 40.5086 47.2925 40.6041 47.2179 40.6482Z"/>
</symbol><symbol id="icon-purchase-delivery" viewBox="0 0 53 53">
<path d="M3 27H26V45L16 44.5L10 41.5L6 44.5L3 45V27Z"/>
<path d="M26.5 32H36L40 46L31.5 41.5L26.5 43.5V32Z"/>
<path d="M31.629 44.4517C30.2151 44.4517 29.0645 45.6023 29.0645 47.0162C29.0645 48.4301 30.2151 49.5807 31.629 49.5807C33.0429 49.5807 34.1935 48.4301 34.1935 47.0162C34.1935 45.6023 33.0429 44.4517 31.629 44.4517ZM31.629 47.871C31.158 47.871 30.7741 47.488 30.7741 47.0162C30.7741 46.5443 31.158 46.1613 31.629 46.1613C32.1 46.1613 32.4838 46.5443 32.4838 47.0162C32.4838 47.488 32.1 47.871 31.629 47.871Z"/>
<path d="M11.1133 44.4517C9.69944 44.4517 8.54883 45.6023 8.54883 47.0162C8.54883 48.4301 9.69944 49.5807 11.1133 49.5807C12.5272 49.5807 13.6779 48.4301 13.6779 47.0162C13.6779 45.6023 12.5272 44.4517 11.1133 44.4517ZM11.1133 47.871C10.6423 47.871 10.2585 47.488 10.2585 47.0162C10.2585 46.5443 10.6423 46.1613 11.1133 46.1613C11.5844 46.1613 11.9682 46.5443 11.9682 47.0162C11.9682 47.488 11.5844 47.871 11.1133 47.871Z"/>
<path d="M12.8223 13.6774C14.2362 13.6774 15.3868 12.5268 15.3868 11.1129C15.3868 9.69895 14.2362 8.54834 12.8223 8.54834C11.4084 8.54834 10.2578 9.69895 10.2578 11.1129C10.2578 12.5268 11.4084 13.6774 12.8223 13.6774ZM12.8223 10.258C13.2933 10.258 13.6772 10.641 13.6772 11.1129C13.6772 11.5847 13.2933 11.9677 12.8223 11.9677C12.3513 11.9677 11.9675 11.5847 11.9675 11.1129C11.9675 10.641 12.3513 10.258 12.8223 10.258Z"/>
<path d="M47.0157 30.7744C45.6018 30.7744 44.4512 31.925 44.4512 33.3389C44.4512 34.7528 45.6018 35.9034 47.0157 35.9034C48.4296 35.9034 49.5802 34.7528 49.5802 33.3389C49.5802 31.925 48.4296 30.7744 47.0157 30.7744ZM47.0157 34.1938C46.5447 34.1938 46.1608 33.8108 46.1608 33.3389C46.1608 32.8671 46.5447 32.4841 47.0157 32.4841C47.4867 32.4841 47.8705 32.8671 47.8705 33.3389C47.8705 33.8108 47.4867 34.1938 47.0157 34.1938Z"/>
<path d="M47.8334 27.4172C47.8462 27.1112 47.871 26.8052 47.871 26.5C47.871 22.6036 46.8075 18.8159 44.8106 15.4982C45.6851 13.9595 46.1613 12.2045 46.1613 10.4256V10.2581C46.1613 4.6016 41.5597 0 35.9032 0C32.1095 0 28.797 2.07555 27.0223 5.14613C23.7081 5.07005 20.3435 5.777 17.3396 7.20031C16.2411 5.93429 14.6254 5.12903 12.8226 5.12903C9.5229 5.12903 6.83871 7.81408 6.83871 11.1129C6.83871 12.4003 7.26442 13.6749 8.03548 14.7024L8.38939 15.1742C6.41385 18.3277 5.30769 21.9172 5.16066 25.6452H3.41935C2.47647 25.6452 1.70968 26.412 1.70968 27.3548V44.4516C0.76679 44.4516 0 45.2184 0 46.1613V47.871C0 48.8139 0.76679 49.5806 1.70968 49.5806H5.7146C6.67715 51.5989 8.73218 53 11.1129 53C13.4936 53 15.5487 51.5989 16.5112 49.5806H26.2307C27.1933 51.5989 29.2483 53 31.629 53C34.0098 53 36.0648 51.5989 37.0273 49.5806H39.3226C40.2655 49.5806 41.0323 48.8139 41.0323 47.871V45.5167C41.0323 45.3082 41.0066 45.0996 40.9562 44.8944L40.4091 42.706C41.6828 41.6127 42.8189 40.38 43.8011 39.0242L47.0161 43.3121L51.8032 36.929C52.5751 35.9007 53 34.6252 53 33.3387C53 30.3177 50.7467 27.8182 47.8334 27.4172ZM35.9032 1.70968C40.6168 1.70968 44.4516 5.54448 44.4516 10.2581V10.4248C44.4516 12.331 43.8028 14.2074 42.6248 15.706L35.9032 24.262L29.1816 15.706C28.0037 14.2074 27.3548 12.3319 27.3548 10.4248V10.2581C27.3548 5.54448 31.1896 1.70968 35.9032 1.70968ZM12.8226 6.83871C15.1794 6.83871 17.0968 8.75611 17.0968 11.1129C17.0968 12.0319 16.7933 12.9431 16.2419 13.6766L12.8226 18.2363L9.40323 13.6766C8.85186 12.9431 8.54839 12.0319 8.54839 11.1129C8.54839 8.75611 10.4658 6.83871 12.8226 6.83871ZM3.41935 27.3548H10.2581V33.867L14.5323 31.7299L18.8065 33.867V27.3548H25.6452V44.4516H16.5112C15.5487 42.4333 13.4936 41.0323 11.1129 41.0323C8.73218 41.0323 6.67715 42.4333 5.7146 44.4516H3.41935V27.3548ZM11.9677 27.3548H17.0968V31.1007L14.5323 29.8185L11.9677 31.1007V27.3548ZM27.3548 32.4839H35.4228C35.8152 32.4839 36.1571 32.7506 36.252 33.131L36.5179 34.1936H32.4839C31.541 34.1936 30.7742 34.9603 30.7742 35.9032V37.6129C30.7742 38.5558 31.541 39.3226 32.4839 39.3226H37.8001L39.0824 44.4516H37.0273C36.0648 42.4333 34.0098 41.0323 31.629 41.0323C29.9553 41.0323 28.4422 41.7247 27.3548 42.8368V32.4839ZM37.3727 37.6129H32.4839V35.9032H36.9453L37.3727 37.6129ZM1.70968 47.871V46.1613H5.19742C5.15724 46.4417 5.12903 46.7255 5.12903 47.0161C5.12903 47.3068 5.15724 47.5906 5.19742 47.871H1.70968ZM11.1129 51.2903C8.75611 51.2903 6.83871 49.3729 6.83871 47.0161C6.83871 44.6593 8.75611 42.7419 11.1129 42.7419C13.4697 42.7419 15.3871 44.6593 15.3871 47.0161C15.3871 49.3729 13.4697 51.2903 11.1129 51.2903ZM17.0284 47.871C17.0686 47.5906 17.0968 47.3068 17.0968 47.0161C17.0968 46.7255 17.0686 46.4417 17.0284 46.1613H25.7135C25.6734 46.4417 25.6452 46.7255 25.6452 47.0161C25.6452 47.3068 25.6734 47.5906 25.7135 47.871H17.0284ZM31.629 51.2903C29.2722 51.2903 27.3548 49.3729 27.3548 47.0161C27.3548 44.6593 29.2722 42.7419 31.629 42.7419C33.9858 42.7419 35.9032 44.6593 35.9032 47.0161C35.9032 49.3729 33.9858 51.2903 31.629 51.2903ZM37.5445 47.871C37.5847 47.5906 37.6129 47.3068 37.6129 47.0161C37.6129 46.7255 37.5847 46.4417 37.5445 46.1613H39.3226V47.871H37.5445ZM39.9423 40.8399L37.9112 32.7164C37.6249 31.5735 36.6016 30.7742 35.4228 30.7742H27.3548V27.3548C27.3548 26.412 26.588 25.6452 25.6452 25.6452H6.86948C7.00626 22.46 7.89871 19.386 9.49127 16.6446L12.8226 21.0863L17.6097 14.7032C18.3816 13.6749 18.8065 12.3994 18.8065 11.1129C18.8065 10.2333 18.6107 9.39981 18.2679 8.64669C20.7726 7.48668 23.4482 6.88145 26.2401 6.8464C25.8623 7.91581 25.6452 9.06044 25.6452 10.2581V10.4248C25.6452 12.7132 26.4239 14.9648 27.837 16.7625L35.9032 27.0283L43.7421 17.0515C45.3261 19.9374 46.1613 23.1772 46.1613 26.5C46.1613 26.8086 46.1374 27.1189 46.1237 27.4292C43.2471 27.8626 41.0323 30.3434 41.0323 33.3387C41.0323 34.6261 41.458 35.9007 42.229 36.9282L42.7223 37.5864C41.9127 38.7687 40.9869 39.8611 39.9423 40.8399ZM50.4355 35.9024L47.0161 40.4621L43.5968 35.9024C43.0454 35.1689 42.7419 34.2577 42.7419 33.3387C42.7419 30.9819 44.6593 29.0645 47.0161 29.0645C49.3729 29.0645 51.2903 30.9819 51.2903 33.3387C51.2903 34.2577 50.9869 35.1689 50.4355 35.9024Z"/>
<path d="M35.9032 17.0969C39.6739 17.0969 42.7419 14.0288 42.7419 10.2581C42.7419 6.48745 39.6739 3.41943 35.9032 3.41943C32.1325 3.41943 29.0645 6.48745 29.0645 10.2581C29.0645 14.0288 32.1325 17.0969 35.9032 17.0969ZM35.9032 5.12911C38.7318 5.12911 41.0322 7.42948 41.0322 10.2581C41.0322 13.0868 38.7318 15.3872 35.9032 15.3872C33.0745 15.3872 30.7741 13.0868 30.7741 10.2581C30.7741 7.42948 33.0745 5.12911 35.9032 5.12911Z"/>
<path d="M20.5156 22.2256H22.2253V23.9353H20.5156V22.2256Z"/>
<path d="M23.9355 22.2256H25.6452V23.9353H23.9355V22.2256Z"/>
<path d="M27.3555 22.2256H29.0651V23.9353H27.3555V22.2256Z"/>
</symbol><symbol id="icon-purchase-payment" viewBox="0 0 48 54">
<path d="M11.9121 6.79939C11.9121 6.49576 12.2269 6.33838 12.5532 6.33838H14.7231C15.8927 6.33838 16.9833 6.7207 16.9833 8.31715C16.9833 9.23918 16.6236 9.84645 16.0275 10.1052C16.7134 10.375 17.1855 10.8134 17.1855 11.9381V12.1742C17.1855 13.928 16.2075 14.5579 14.9365 14.5579H12.5527C12.1593 14.5579 11.9121 14.3445 11.9121 14.108V6.79939ZM13.3627 9.53169H14.6217C15.229 9.53169 15.5215 9.13824 15.5215 8.56476C15.5215 7.97974 15.1841 7.62007 14.6106 7.62007H13.3623V9.53169H13.3627ZM14.6333 13.2758C15.3188 13.2758 15.7238 12.905 15.7238 12.0506V11.8705C15.7238 10.9934 15.3188 10.6787 14.6333 10.6787H13.3627V13.2758H14.6333Z"/>
<path d="M18.2324 6.78786C18.2324 6.4731 18.5921 6.33838 18.9633 6.33838C19.323 6.33838 19.6942 6.4731 19.6942 6.78786V14.0969C19.6942 14.4006 19.323 14.5579 18.9633 14.5579C18.5921 14.5579 18.2324 14.4006 18.2324 14.0969V6.78786Z"/>
<path d="M21.6836 14.5579C21.3577 14.5579 21.043 14.4006 21.043 14.0969V6.78786C21.043 6.4731 21.4026 6.33838 21.7738 6.33838C22.1335 6.33838 22.5047 6.4731 22.5047 6.78786V13.2762H25.2481C25.5406 13.2762 25.6869 13.591 25.6869 13.9169C25.6869 14.2316 25.5406 14.5579 25.2481 14.5579H21.6836Z"/>
<path d="M27.1254 14.5579C26.7991 14.5579 26.4844 14.4006 26.4844 14.0969V6.78786C26.4844 6.4731 26.8445 6.33838 27.2152 6.33838C27.5753 6.33838 27.9461 6.4731 27.9461 6.78786V13.2762H30.6899C30.982 13.2762 31.1283 13.591 31.1283 13.9169C31.1283 14.2316 30.982 14.5579 30.6899 14.5579H27.1254Z"/>
<path d="M38.4248 14.5469C37.0644 14.5131 36.041 13.7823 36.041 13.1523C36.041 12.8376 36.3224 12.365 36.6705 12.365C37.0978 12.365 37.4352 13.0963 38.4248 13.2084V10.9709C37.4014 10.5885 36.2433 10.1502 36.2433 8.71069C36.2433 7.28275 37.3005 6.66435 38.4248 6.5181V6.20334C38.4248 6.05708 38.5933 5.92236 38.8071 5.92236C38.9983 5.92236 39.1894 6.05708 39.1894 6.20334V6.49585C39.9203 6.5181 41.1122 6.73151 41.1122 7.38409C41.1122 7.64241 40.9325 8.15987 40.5164 8.15987C40.2017 8.15987 39.9429 7.79979 39.1894 7.74376V9.72295C40.1901 10.0937 41.3149 10.6001 41.3149 12.129C41.3149 13.512 40.4489 14.3104 39.1894 14.5127V14.8617C39.1894 15.0079 38.9983 15.1426 38.8071 15.1426C38.5933 15.1426 38.4248 15.0079 38.4248 14.8617V14.5469ZM38.5146 9.47534V7.77754C37.9526 7.86777 37.6152 8.13762 37.6152 8.56485C37.6152 9.05965 37.9975 9.27306 38.5146 9.47534ZM39.0992 11.2407V13.1976C39.594 13.0963 39.9425 12.8038 39.9425 12.2756C39.9429 11.7244 39.5829 11.4545 39.0992 11.2407Z"/>
<path d="M32.1606 23.1099H11.7812C11.3445 23.1099 10.9902 23.4638 10.9902 23.9009C10.9902 24.338 11.3445 24.6919 11.7812 24.6919H32.1606C32.5977 24.6919 32.9516 24.338 32.9516 23.9009C32.9516 23.4638 32.5977 23.1099 32.1606 23.1099Z"/>
<path d="M32.1606 29.6909H11.7812C11.3445 29.6909 10.9902 30.0448 10.9902 30.4819C10.9902 30.9186 11.3445 31.2729 11.7812 31.2729H32.1606C32.5977 31.2729 32.9516 30.9186 32.9516 30.4819C32.9516 30.0448 32.5977 29.6909 32.1606 29.6909Z"/>
<path d="M32.1606 36.271H11.7812C11.3445 36.271 10.9902 36.6253 10.9902 37.062C10.9902 37.4991 11.3445 37.853 11.7812 37.853H32.1606C32.5977 37.853 32.9516 37.4991 32.9516 37.062C32.9516 36.6253 32.5977 36.271 32.1606 36.271Z"/>
<path d="M32.1606 42.8516H11.7812C11.3445 42.8516 10.9902 43.2055 10.9902 43.6426C10.9902 44.0797 11.3445 44.4336 11.7812 44.4336H32.1606C32.5977 44.4336 32.9516 44.0797 32.9516 43.6426C32.9516 43.2055 32.5977 42.8516 32.1606 42.8516Z"/>
<path d="M41.0319 23.1099H35.9043C35.4676 23.1099 35.1133 23.4638 35.1133 23.9009C35.1133 24.338 35.4676 24.6919 35.9043 24.6919H41.0319C41.4686 24.6919 41.8229 24.338 41.8229 23.9009C41.8229 23.4638 41.4686 23.1099 41.0319 23.1099Z"/>
<path d="M41.0319 29.6909H35.9043C35.4676 29.6909 35.1133 30.0448 35.1133 30.4819C35.1133 30.9186 35.4676 31.2729 35.9043 31.2729H41.0319C41.4686 31.2729 41.8229 30.9186 41.8229 30.4819C41.8229 30.0448 41.4686 29.6909 41.0319 29.6909Z"/>
<path d="M41.0319 36.271H35.9043C35.4676 36.271 35.1133 36.6253 35.1133 37.062C35.1133 37.4991 35.4676 37.853 35.9043 37.853H41.0319C41.4686 37.853 41.8229 37.4991 41.8229 37.062C41.8229 36.6253 41.4686 36.271 41.0319 36.271Z"/>
<path d="M43.1252 0H4.25542C1.96724 0 0.105469 1.86177 0.105469 4.14995V38.4969C0.105469 40.3669 1.62653 41.888 3.49695 41.888H3.89822C4.33493 41.888 4.68924 41.5341 4.68924 41.097C4.68924 40.6603 4.33493 40.306 3.89822 40.306H3.49695C2.49911 40.306 1.6875 39.4943 1.6875 38.4969V4.14995C1.6875 2.73395 2.83942 1.58203 4.25542 1.58203C5.67142 1.58203 6.82333 2.73395 6.82333 4.14995V51.6714C6.82333 52.4085 7.3239 53.0434 8.04117 53.2148L11.1463 53.9567C11.3877 54.0144 11.6428 54.014 11.8838 53.9567L15.4174 53.113L18.9481 53.9567C19.1891 54.0144 19.4442 54.014 19.6856 53.9567L23.2184 53.113L26.7495 53.9567C26.9909 54.0144 27.246 54.014 27.4874 53.9567L31.0206 53.113L34.5521 53.9567C34.7936 54.0144 35.0482 54.014 35.2896 53.9567L38.8232 53.113L42.3544 53.9563C42.4751 53.9856 42.5995 54 42.7239 54C42.8479 54 42.9719 53.9856 43.0926 53.9567L46.1986 53.2148C46.9159 53.0434 47.4164 52.4085 47.4164 51.6714V4.29126C47.4164 1.92522 45.4912 0 43.1252 0V0ZM45.8307 51.676L42.7227 52.418L39.1907 51.5742C38.9493 51.5165 38.6943 51.5165 38.4532 51.5742L34.9196 52.418L31.3881 51.5742C31.1471 51.5165 30.892 51.5165 30.6506 51.5742L27.1174 52.418L23.5859 51.5742C23.3444 51.5165 23.0894 51.5165 22.8484 51.5742L19.3156 52.418L15.7849 51.5742C15.6642 51.5454 15.5402 51.531 15.4162 51.531C15.2921 51.531 15.1681 51.5454 15.0474 51.5742L11.5142 52.418L8.40536 51.6714V4.14995C8.40536 4.08321 8.40331 4.01729 8.40001 3.95137C8.39919 3.92995 8.39754 3.90852 8.39589 3.8871C8.39342 3.84261 8.39012 3.79852 8.386 3.75403C8.38353 3.72972 8.38065 3.70541 8.37776 3.68069C8.37323 3.63991 8.36829 3.59871 8.36252 3.55833C8.35881 3.53362 8.3551 3.5089 8.35098 3.48459C8.34439 3.44339 8.33698 3.4026 8.32915 3.3614C8.32462 3.33875 8.3205 3.31609 8.31596 3.29343C8.30608 3.24646 8.29495 3.20032 8.28383 3.15417C8.27971 3.13811 8.27641 3.12204 8.27229 3.10638C8.25623 3.045 8.23892 2.98402 8.22038 2.92387C8.21544 2.90863 8.21008 2.8938 8.20514 2.87856C8.19072 2.83365 8.17548 2.78833 8.15982 2.74384C8.15199 2.72241 8.14334 2.70099 8.1351 2.67957C8.12109 2.64207 8.10626 2.60417 8.09102 2.56709C8.08154 2.54443 8.07166 2.52177 8.06218 2.49953C8.04652 2.46327 8.03004 2.42784 8.01357 2.39241C8.00327 2.37057 7.99297 2.34874 7.98225 2.3269C7.96413 2.28983 7.94476 2.25275 7.9254 2.21608C7.91551 2.19754 7.90604 2.17859 7.89615 2.16046C7.86813 2.10938 7.83888 2.0587 7.80881 2.00926C7.80675 2.00555 7.8051 2.00226 7.80304 1.99855C7.7709 1.94582 7.73712 1.89391 7.70293 1.84282C7.69139 1.82593 7.67986 1.80945 7.66832 1.79297C7.64401 1.75836 7.61971 1.72375 7.59499 1.68997C7.58098 1.67143 7.56697 1.65289 7.55255 1.63435C7.53937 1.61705 7.5266 1.59933 7.513 1.58203H43.1252C44.619 1.58203 45.8344 2.79739 45.8344 4.29167L45.8307 51.676Z"/>
</symbol><symbol id="icon-purchase-worker" viewBox="0 0 43 49">
<path d="M12.5 5.5C11.7 5.9 10.8333 8.66667 10.5 10L10 11H32L32.5 10.5V9L31 6.5L29.5 4L27 2.5L24 1.5C23.1667 1.33333 21.4 1 21 1C20.5 1 18.5 1.5 17.5 2C16.5 2.5 13.5 5 12.5 5.5Z"/>
<path d="M41.2384 38.5472C40.7081 35.363 38.4755 32.7502 35.4122 31.7291L28.6122 29.4625V28.4517H27.0316V29.9343L25.8516 34.6533L22.6595 30.8226H20.3384L17.1462 34.6533L15.9671 29.9343V28.4517H14.3864V29.4625L7.5865 31.7291C4.524 32.7502 2.29134 35.363 1.76024 38.5472L0.0175781 49H21.4993H42.9811L41.2384 38.5472ZM7.34861 47.4194H1.88432L2.13801 45.8941L7.43476 46.5564L7.34861 47.4194ZM17.6528 47.4194H8.93716L9.64055 40.3855L8.0678 40.2283L7.59203 44.9836L2.39803 44.334L3.31876 38.8073C3.75343 36.2024 5.57987 34.0645 8.08598 33.2292L14.6164 31.0518L16.3678 38.0564L18.1499 35.9178L19.0928 37.3325L17.6528 47.4194ZM23.7494 47.4194H21.4993H19.2493L20.7438 36.9579L19.2058 34.651L21.0789 32.4033H21.919L23.7921 34.651L22.2541 36.9579L23.7494 47.4194ZM34.9309 40.2275L33.3581 40.3847L34.0615 47.4186H25.3458L23.9051 37.3317L24.8479 35.917L26.6309 38.0564L28.3823 31.0518L34.9127 33.2292C37.4188 34.0645 39.2452 36.2024 39.6799 38.808L40.6006 44.3348L35.4066 44.9844L34.9309 40.2275ZM35.6501 47.4194L35.5639 46.5564L40.8607 45.8941L41.1144 47.4194H35.6501Z"/>
<path d="M8.96552 14.9055C8.41071 15.5859 8.06376 16.4427 8.06376 17.3871C8.06376 19.4151 9.60489 21.0716 11.5744 21.2944C11.9774 22.6815 12.7219 23.9531 13.7715 25.0026L16.8537 28.0849C17.5998 28.831 18.5916 29.2419 19.6475 29.2419H23.3518C24.4068 29.2419 25.3995 28.831 26.1456 28.0849L29.2278 25.0026C30.2774 23.9531 31.0218 22.6807 31.4249 21.2944C33.3936 21.0716 34.9347 19.4151 34.9347 17.3871C34.9347 16.4427 34.5878 15.5859 34.033 14.9055C35.0082 14.6115 35.725 13.7153 35.725 12.6452C35.725 11.338 34.6613 10.2742 33.3541 10.2742H33.2419C32.612 5.60892 29.2073 1.70552 24.6605 0.444952V0H18.338V0.444952C13.7912 1.70552 10.3857 5.60971 9.75663 10.2742H9.64441C8.33721 10.2742 7.27344 11.338 7.27344 12.6452C7.27344 13.7153 7.99026 14.6115 8.96552 14.9055ZM9.64441 17.3871C9.64441 16.3581 10.3075 15.4887 11.2251 15.1615V18.8555C11.2251 19.1139 11.2401 19.37 11.2622 19.6245C10.3257 19.3076 9.64441 18.4295 9.64441 17.3871ZM30.192 18.8555C30.1928 20.7554 29.453 22.5416 28.1095 23.8851L25.0272 26.9674C24.5862 27.4084 23.9753 27.6613 23.351 27.6613H19.6467C19.0224 27.6613 18.4122 27.4084 17.9705 26.9674L14.8882 23.8851C13.5446 22.5416 12.8049 20.7554 12.8049 18.8555V15.0161H30.192V18.8555ZM31.7363 19.6237C31.7584 19.37 31.7734 19.1139 31.7734 18.8555V15.1615C32.691 15.4887 33.3541 16.3581 33.3541 17.3871C33.3541 18.4295 32.6728 19.3076 31.7363 19.6237ZM18.338 2.09119V8.69355H19.9186V1.58064H23.0799V8.69355H24.6605V2.09119C28.3237 3.27905 31.0574 6.46879 31.6517 10.2742H11.3468C11.9411 6.46879 14.6748 3.27905 18.338 2.09119ZM9.64441 11.8548H33.3541C33.7895 11.8548 34.1444 12.2097 34.1444 12.6452C34.1444 13.0806 33.7895 13.4355 33.3541 13.4355H9.64441C9.20894 13.4355 8.85408 13.0806 8.85408 12.6452C8.85408 12.2097 9.20894 11.8548 9.64441 11.8548Z"/>
<path d="M27.8228 7.11279H26.2422V8.69344H27.8228V7.11279Z"/>
<path d="M16.7564 7.11279H15.1758V8.69344H16.7564V7.11279Z"/>
</symbol><symbol id="icon-reviews-youtube" viewBox="0 0 63 64">
    <path d="M30.4483 0C13.4017 0 1 12.4064 1 29.4483C1 46.4902 13.4017 61 30.4483 61C47.4948 61 62 46.4902 62 29.4483C62 12.4064 47.4948 0 30.4483 0ZM40.9655 29.4483L26.2414 42.069C26.1589 42.1282 26.3427 42.0614 26.2414 42.069C26.1401 42.0766 24.2284 42.1152 24.1379 42.069C24.0475 42.0227 24.191 42.1556 24.1379 42.069C24.0849 41.9824 24.1381 40.0671 24.1379 39.9655V18.931C24.1376 18.8293 24.085 19.0179 24.1379 18.931C24.1909 18.8441 24.0473 18.9774 24.1379 18.931C24.2285 18.8847 26.1399 18.9232 26.2414 18.931C26.3429 18.9389 26.159 18.8712 26.2414 18.931L40.9655 29.4483C40.9255 29.371 41.0366 29.4985 40.9655 29.4483C40.9655 29.3612 41.0055 29.5256 40.9655 29.4483C41.0055 29.371 40.9655 29.5353 40.9655 29.4483C41.0366 29.398 40.9255 29.5256 40.9655 29.4483Z"/>
</symbol></svg>