<svg width="49" height="55" xmlns="http://www.w3.org/2000/svg"><path d="M32.982 14.803H6.643a.81.81 0 1 0 0 1.618h26.339a.81.81 0 1 0 0-1.618ZM6.643 10.81h13.17a.81.81 0 0 0 0-1.62H6.642a.81.81 0 1 0 0 1.62Zm26.339 8.966H6.643a.81.81 0 1 0 0 1.618h26.339a.81.81 0 1 0 0-1.618Z"/><path d="M12.642 49.378H4.213a2.512 2.512 0 0 1-2.509-2.509V4.127a2.512 2.512 0 0 1 2.51-2.509h24.283c.078 0 .155.007.232.018v5.046a4.132 4.132 0 0 0 4.127 4.127h5.046c.01.076.017.154.017.232v13.778a.81.81 0 0 0 1.619 0V11.041c0-.887-.346-1.722-.974-2.35L30.846.973A3.3 3.3 0 0 0 28.496 0H4.214A4.132 4.132 0 0 0 .086 4.127V46.87a4.132 4.132 0 0 0 4.127 4.127h8.43a.81.81 0 0 0 0-1.618ZM36.775 9.191h-3.92a2.512 2.512 0 0 1-2.508-2.51V2.763l6.428 6.429Z"/><path d="m48.665 39.61-6.856-11.572a1.773 1.773 0 0 0-2.43-.623l-1.668.988a3.168 3.168 0 0 0-1.397 3.694 2.48 2.48 0 0 1-1.745-.019c-1.317-.414-2.318-1.248-3.97-.83-2.808.715-2.722.68-2.976.766-1.644-.935-2.632-1.214-4.377-.539l-1.555.602a2.488 2.488 0 0 1-2.179-.182l-.424-.25a3.16 3.16 0 0 0-1.509-3.241l-1.667-.988a1.776 1.776 0 0 0-2.431.622L6.625 39.609c-.5.844-.221 1.932.623 2.431l1.667.988c.504.3 1.059.441 1.607.441a3.19 3.19 0 0 0 1.728-.51l.348.205-.734 1.022a2.712 2.712 0 0 0 2.624 4.26 2.704 2.704 0 0 0 1.09 1.746c.566.407 1.27.591 2.004.476a2.71 2.71 0 0 0 3.743 2.035c.183.476.502.906.946 1.226a2.715 2.715 0 0 0 3.663-.464l1.95 1.155a2.712 2.712 0 0 0 4.078-2.01l.004.002a2.717 2.717 0 0 0 4.09-2.134 2.719 2.719 0 0 0 3.36-2.347 2.718 2.718 0 0 0 3.326-1.143 2.697 2.697 0 0 0 .294-2.056 2.7 2.7 0 0 0-.552-1.074l1.075-.628c.91.373 1.947.313 2.816-.202l1.667-.988a1.773 1.773 0 0 0 .623-2.43ZM9.74 41.635l-1.668-.988a.157.157 0 0 1-.055-.214l6.856-11.572a.157.157 0 0 1 .214-.054l1.668.987c.74.44.972 1.39.541 2.117l-5.44 9.182a1.547 1.547 0 0 1-2.116.542Zm3.69 5.021a1.094 1.094 0 0 1-.252-1.527l1.079-1.503a1.098 1.098 0 0 1 1.528-.25c.49.351.602 1.037.25 1.527l-1.078 1.502a1.096 1.096 0 0 1-1.528.251Zm3.092 2.221a1.096 1.096 0 0 1-.25-1.528l1.078-1.502 1.19-1.658a1.088 1.088 0 0 1 .892-.456 1.092 1.092 0 0 1 .887 1.733l-2.269 3.16a1.094 1.094 0 0 1-1.528.251Zm3.094 2.22a1.096 1.096 0 0 1-.252-1.527l2.27-3.16a1.096 1.096 0 0 1 1.779 1.277l-1.01 1.404-1.26 1.756a1.096 1.096 0 0 1-1.527.25Zm3.599 1.516a1.096 1.096 0 0 1-.252-1.527l.755-1.052a1.096 1.096 0 0 1 1.528-.25c.49.352.603 1.037.25 1.527l-.753 1.051a1.096 1.096 0 0 1-1.528.251Zm18.135-6.45a1.096 1.096 0 0 1-1.5.383l-7.163-4.243a.81.81 0 0 0-.824 1.392l5.414 3.208a1.095 1.095 0 1 1-1.117 1.885l-5.417-3.21a.81.81 0 0 0-.825 1.393l3.99 2.363a1.095 1.095 0 1 1-1.117 1.885l-2.14-1.268h-.002v-.001l-1.563-.926a.809.809 0 1 0-.825 1.392l1.563.926a1.095 1.095 0 1 1-1.116 1.885l-1.823-1.08A2.716 2.716 0 0 0 25.063 48a2.717 2.717 0 0 0-.958-3.155 2.703 2.703 0 0 0-2.002-.475 2.694 2.694 0 0 0-1.091-1.746 2.718 2.718 0 0 0-3.511.296 2.697 2.697 0 0 0-.773-.858 2.718 2.718 0 0 0-3-.11l-.37-.219 5.089-8.589.242.143a4.097 4.097 0 0 0 3.586.298l1.555-.601c.89-.344 1.38-.367 2.26.049a3.622 3.622 0 0 0-.917 2.412v3.587a1.73 1.73 0 0 0 1.727 1.73h.002c.955 0 1.853-.372 2.529-1.047.393-.394.684-.863.858-1.375l10.677 6.322c.251.15.43.387.502.67.073.284.03.578-.118.83Zm5.868-5.516-1.668.988a1.547 1.547 0 0 1-2.116-.542l-2.55-4.303a.81.81 0 0 0-1.392.824l2.55 4.304c.048.081.1.158.154.233l-.71.414a4.084 4.084 0 0 0-.412.28l-10.992-6.509a.81.81 0 0 0-1.221.696c-.009.048.084.88-.574 1.538-.37.37-.862.573-1.385.573h-.001a.11.11 0 0 1-.11-.111v-3.587c0-.938.645-1.728 1.517-1.949l2.687-.68c.975-.246 1.526.274 2.986.768a4.09 4.09 0 0 0 3.094-.05l.488.825a.81.81 0 0 0 1.393-.825l-.962-1.623a1.544 1.544 0 0 1 .541-2.117l1.668-.988a.156.156 0 0 1 .214.055l6.856 11.572c.044.075.02.17-.055.214Z"/></svg>