<svg width="35" height="29" xmlns="http://www.w3.org/2000/svg"><path d="m29.577 9.94 4.72-1.777c.427-.161.703-.569.703-1.038 0-.47-.276-.877-.703-1.038L18.732.224a3.496 3.496 0 0 0-2.464 0L.704 6.087A1.093 1.093 0 0 0 0 7.125c0 .47.276.877.703 1.038l4.72 1.778v9.582c0 .632.27 1.232.684 1.636a11.644 11.644 0 0 0 1.356 1.126 2.919 2.919 0 0 0-.831 2.037v.545c0 .241.073.47.2.66l-.763 1.816a.82.82 0 0 0 .408 1.067.776.776 0 0 0 1.033-.422l.72-1.711a3.4 3.4 0 0 0 .31.087v1.825c0 .448.352.811.786.811a.798.798 0 0 0 .786-.81v-1.826a3.4 3.4 0 0 0 .31-.087l.72 1.711c.173.412.636.6 1.034.422a.82.82 0 0 0 .408-1.067l-.764-1.816c.128-.19.2-.42.2-.66v-.418a19.6 19.6 0 0 0 5.48.77c4.01 0 8.505-1.25 11.393-4.06a2.322 2.322 0 0 0 .684-1.636V9.941Zm-12.77-8.192c.447-.169.94-.169 1.386 0L32.47 7.125l-14.276 5.377c-.447.169-.94.169-1.386 0l-5.487-2.066 4.54-2.314.408.154a3.492 3.492 0 0 0 2.464 0l.724-.273c.442-.167.739-.604.739-1.09v-.597c0-1.505-1.186-2.752-2.644-2.78a2.61 2.61 0 0 0-1.914.795 2.919 2.919 0 0 0-.832 2.037v.482C9.075 9.773 9.442 9.579 9.3 9.675l-6.77-2.55 14.277-5.377Zm-.43 4.842v-.222c0-.327.13-.647.36-.88.217-.22.492-.336.785-.331.607.011 1.102.532 1.102 1.16v.273l-.43.162a1.96 1.96 0 0 1-1.387 0l-.43-.162ZM8.54 17.23a10.17 10.17 0 0 1-1.356-1.102.638.638 0 0 1-.19-.455v-5.14l1.547.584c-.002.104-.001-.702-.001 6.113Zm-.338 7.315c0-.23-.042-.695.36-1.102.23-.233.516-.336.785-.331.806.015 1.102.604 1.102 1.433-.944.356-1.113.428-2.247 0Zm.338-3.464c-.45-.308-.863-.638-1.235-.987-.117-.11-.312-.258-.312-.57v-1.441c.477.375.996.72 1.547 1.038v1.96Zm2.909 1.48a2.682 2.682 0 0 0-1.338-.95v-1.704c1.655.712 3.523 1.188 5.484 1.372a.793.793 0 0 0 .853-.734.804.804 0 0 0-.71-.881c-2.053-.193-3.984-.724-5.627-1.525v-6.431l6.156 2.319a3.519 3.519 0 0 0 2.464 0l9.274-3.493v5.139a.64.64 0 0 1-.191.455c-1.975 1.922-5.092 3.211-8.553 3.536a.804.804 0 0 0-.711.88c.039.447.42.776.853.735 3.331-.313 6.397-1.461 8.602-3.196v1.441a.644.644 0 0 1-.191.456c-2.61 2.54-6.717 3.619-10.315 3.619-2.12 0-4.207-.359-6.05-1.038Z" fill="#fff"/></svg>