<svg width="48" height="54" xmlns="http://www.w3.org/2000/svg"><path d="M11.912 6.8c0-.304.315-.462.641-.462h2.17c1.17 0 2.26.383 2.26 1.98 0 .921-.36 1.528-.956 1.787.686.27 1.159.708 1.159 1.833v.236c0 1.754-.979 2.384-2.25 2.384h-2.383c-.394 0-.64-.213-.64-.45V6.799Zm1.45 2.732h1.26c.607 0 .9-.394.9-.967 0-.585-.338-.945-.911-.945h-1.249v1.912Zm1.271 3.744c.686 0 1.09-.371 1.09-1.225v-.18c0-.878-.404-1.192-1.09-1.192h-1.27v2.597h1.27Zm3.599-6.488c0-.315.36-.45.731-.45.36 0 .731.135.731.45v7.309c0 .304-.371.46-.73.46-.372 0-.732-.156-.732-.46v-7.31Zm3.452 7.77c-.326 0-.641-.157-.641-.461v-7.31c0-.314.36-.449.73-.449.36 0 .732.135.732.45v6.488h2.743c.293 0 .439.315.439.64 0 .316-.146.642-.439.642h-3.564Zm5.441 0c-.326 0-.64-.157-.64-.461v-7.31c0-.314.36-.449.73-.449.36 0 .731.135.731.45v6.488h2.744c.292 0 .438.315.438.64 0 .316-.146.642-.438.642h-3.565Zm11.3-.011c-1.36-.034-2.384-.765-2.384-1.395 0-.314.281-.787.63-.787.427 0 .764.731 1.754.843v-2.237c-1.024-.383-2.182-.82-2.182-2.26 0-1.428 1.057-2.047 2.182-2.193v-.315c0-.146.168-.28.382-.28.191 0 .382.134.382.28v.293c.731.022 1.923.236 1.923.888 0 .258-.18.776-.596.776-.314 0-.573-.36-1.327-.416v1.979c1.001.37 2.126.877 2.126 2.406 0 1.383-.866 2.181-2.126 2.384v.349c0 .146-.19.28-.382.28-.214 0-.382-.134-.382-.28v-.315Zm.09-5.072V7.778c-.562.09-.9.36-.9.787 0 .495.383.708.9.91Zm.584 1.766v1.957c.495-.102.844-.394.844-.922 0-.552-.36-.822-.844-1.035ZM32.16 23.11H11.782a.79.79 0 1 0 0 1.582h20.38a.79.79 0 1 0 0-1.582Zm0 6.58H11.782a.79.79 0 1 0 0 1.583h20.38a.79.79 0 1 0 0-1.582Zm0 6.581H11.782a.791.791 0 0 0 0 1.582h20.38a.79.79 0 1 0 0-1.582Zm0 6.581H11.782a.79.79 0 1 0 0 1.582h20.38a.79.79 0 1 0 0-1.582Zm8.872-19.742h-5.128a.79.79 0 1 0 0 1.582h5.128a.79.79 0 1 0 0-1.582Zm0 6.58h-5.128a.79.79 0 1 0 0 1.583h5.128a.791.791 0 0 0 0-1.582Zm0 6.581h-5.128a.791.791 0 0 0 0 1.582h5.128a.79.79 0 1 0 0-1.582Z"/><path d="M43.125 0H4.255a4.155 4.155 0 0 0-4.15 4.15v34.347a3.395 3.395 0 0 0 3.392 3.391h.401a.791.791 0 1 0 0-1.582h-.401c-.998 0-1.81-.812-1.81-1.81V4.15a2.57 2.57 0 0 1 2.568-2.568A2.57 2.57 0 0 1 6.823 4.15v47.52c0 .737.5 1.372 1.218 1.544l3.105.742c.242.057.497.057.738 0l3.533-.844 3.531.844c.241.057.496.057.738 0l3.532-.844 3.532.844a1.6 1.6 0 0 0 .737 0l3.534-.844 3.531.844c.242.057.496.057.738 0l3.533-.844 3.531.843a1.568 1.568 0 0 0 .739 0l3.106-.741a1.582 1.582 0 0 0 1.217-1.544V4.291A4.296 4.296 0 0 0 43.126 0Zm2.706 51.676-3.108.742-3.532-.844a1.593 1.593 0 0 0-.738 0l-3.533.844-3.532-.844a1.593 1.593 0 0 0-.737 0l-3.534.844-3.531-.844a1.593 1.593 0 0 0-.738 0l-3.532.844-3.531-.844a1.59 1.59 0 0 0-.738 0l-3.533.844-3.109-.747V4.15a3.962 3.962 0 0 0-.019-.396l-.008-.073a3.96 3.96 0 0 0-.015-.123l-.012-.073a4.273 4.273 0 0 0-.022-.124l-.013-.068-.032-.139-.012-.048a4.41 4.41 0 0 0-.052-.182l-.015-.045a5.144 5.144 0 0 0-.045-.135l-.025-.064a3.747 3.747 0 0 0-.044-.113L8.062 2.5c-.015-.037-.032-.072-.048-.108a4.638 4.638 0 0 0-.089-.176l-.029-.056a3.916 3.916 0 0 0-.087-.15l-.006-.011a4.376 4.376 0 0 0-.135-.206c-.024-.035-.048-.07-.073-.103l-.042-.056-.04-.052h35.612a2.712 2.712 0 0 1 2.71 2.71l-.004 47.384Z"/></svg>