<svg width="33" height="33" xmlns="http://www.w3.org/2000/svg"><path d="M13.297 27.661c.855 0 1.551-.696 1.551-1.551s-.696-1.551-1.55-1.551c-.856 0-1.552.696-1.552 1.551s.696 1.551 1.551 1.551Zm0-2.135a.585.585 0 1 1 0 1.17.585.585 0 0 1 0-1.17Zm4.27 2.135a1.552 1.552 0 0 0 0-3.102c-.855 0-1.551.696-1.551 1.551s.696 1.551 1.55 1.551Zm0-2.135a.585.585 0 1 1-.001 1.17.585.585 0 0 1 0-1.17Z" fill="#F7CE03"/><path d="M32.001 17.084h-1.136V3.848c0-.201-.06-.396-.171-.564L28.806.453A1.015 1.015 0 0 0 27.96 0H5.04c-.34 0-.657.17-.846.453L2.306 3.284a1.02 1.02 0 0 0-.17.564v1.49h-.07a1 1 0 0 0-.998 1v5.375a1 1 0 0 0 .999 1h.069v4.371H.999a1 1 0 0 0-.999 1v1.104a1 1 0 0 0 .999.999h.204l.714 2.142a1.55 1.55 0 0 0 1.286 1.049v6.52h-.068a1 1 0 0 0-1 .999V32a1 1 0 0 0 1 .999H8.51A1 1 0 0 0 9.509 32v-1.104a1 1 0 0 0-1-1h-.068V23.39H9.61v4.892c0 .835.68 1.515 1.515 1.515h10.75c.836 0 1.515-.68 1.515-1.515V23.39h1.169v6.508h-.069a1 1 0 0 0-.999.999V32a1 1 0 0 0 1 .999h5.375a1 1 0 0 0 .998-.999v-1.104a1 1 0 0 0-.998-1h-.07v-6.52a1.548 1.548 0 0 0 1.287-1.047l.714-2.143h.204a1 1 0 0 0 .999-1v-1.104a1 1 0 0 0-.999-.999Zm-24.628 0v-5.44H19.22v.364c0 .272.106.527.298.72l.755.754c.192.192.448.298.72.298h.362v1.118a.483.483 0 1 0 .967 0V13.78h.364c.271 0 .527-.106.719-.298l.755-.755a1.01 1.01 0 0 0 .298-.72v-.362h1.169v5.44H7.373Zm13.62-4.27a.05.05 0 0 1-.037-.015l-.755-.756a.05.05 0 0 1-.014-.035v-2.5h3.304v2.5a.05.05 0 0 1-.015.035l-.755.756a.05.05 0 0 1-.036.014h-1.693ZM7.372 9.508H19.22v1.169H7.373V9.509Zm16.118-.967h-3.304v-.584c0-.322.262-.585.584-.585h2.136c.322 0 .584.263.584.585v.584Zm.967.967h1.169v1.169h-1.17V9.509Zm1.169-.967h-1.17v-.584c0-.856-.695-1.551-1.55-1.551H20.77c-.855 0-1.551.696-1.551 1.55v.585H7.373v-5.44h18.254v5.44Zm.966 7.374h3.305v1.168h-3.305v-1.168ZM28.002.989l1.887 2.831a.05.05 0 0 1 .009.028v11.1h-3.305V.967h1.367a.05.05 0 0 1 .042.023Zm-2.375 1.147H7.373V.966h18.254v1.17ZM2.035 11.713V6.338c0-.018.014-.032.032-.032H3.17c.018 0 .032.014.032.032v5.375a.032.032 0 0 1-.032.033H2.067a.032.032 0 0 1-.032-.033Zm1.136 1a1 1 0 0 0 1-1V6.338a1 1 0 0 0-1-1h-.069v-1.49c0-.01.003-.02.009-.028L4.998.99A.05.05 0 0 1 5.04.966h1.367v13.982H3.102v-2.237h.07Zm-.069 3.203h3.305v1.168H3.102v-1.168Zm5.44 14.98v1.105a.032.032 0 0 1-.032.032H3.135a.032.032 0 0 1-.033-.032v-1.104c0-.018.015-.032.033-.032H8.51c.018 0 .032.014.032.032Zm-4.372-.998v-1.17h3.304v1.17H4.17Zm3.304-2.136H4.17V23.39h3.304v4.372Zm14.95.52a.548.548 0 0 1-.549.548h-10.75a.549.549 0 0 1-.548-.548V23.39h11.846v4.892Zm6.406-.52h-3.304V23.39h3.304v4.372Zm1.068 3.135V32a.032.032 0 0 1-.032.032H24.49a.032.032 0 0 1-.032-.032v-1.104c0-.018.014-.032.032-.032h5.376c.017 0 .032.014.032.032Zm-4.372-1V28.73h3.304v1.169h-3.304Zm4.64-7.873a.585.585 0 0 1-.555.4H3.39a.584.584 0 0 1-.555-.4l-.612-1.837h28.556l-.612 1.837Zm1.867-2.836a.032.032 0 0 1-.032.032H.999a.032.032 0 0 1-.032-.032v-1.105c0-.017.014-.032.032-.032h31.002c.018 0 .032.015.032.032v1.105Z" fill="#F7CE03"/></svg>