<svg width="54" height="54" xmlns="http://www.w3.org/2000/svg"><path d="M53.208 23.722a.79.79 0 0 0-.79.791v2.1a3.432 3.432 0 0 1-3.428 3.427h-4.24c-.006.042-.145-1.729-.145-1.711a1.543 1.543 0 0 0-1.007-1.318 1.65 1.65 0 0 0-.57-.09c-1.379 0-2.583.884-3.067 2.254a4.06 4.06 0 0 0-.189.865H29.65a.791.791 0 0 0-.685.396l-1.736 3.007a.255.255 0 0 1-.229.132.255.255 0 0 1-.228-.132l-1.737-3.007a.79.79 0 0 0-.685-.396h-3.63a.791.791 0 1 0 0 1.582h3.174l1.508 2.612c.334.578.931.923 1.598.923.668 0 1.265-.345 1.599-.923l1.508-2.612h9.61c.034 1.28.275 2.349.817 3.772.238.624.305 1.301.204 1.98h-8.583a2.674 2.674 0 0 0-2.672 2.671c0 .524.153 1.013.414 1.426a2.673 2.673 0 0 0-1.376 2.335c0 .988.54 1.852 1.339 2.314-.27.417-.428.914-.428 1.447 0 1.145.725 2.124 1.74 2.503a2.655 2.655 0 0 0-.316 1.258A2.675 2.675 0 0 0 33.525 54h7.56c1.586 0 3.15-.421 4.52-1.22a9.194 9.194 0 0 1 4.62-1.245l2.983.005a.791.791 0 0 0 .002-1.582l-2.986-.005c-1.9 0-3.772.505-5.414 1.46a7.414 7.414 0 0 1-3.725 1.005h-2.477a2.663 2.663 0 0 0-.57-2.997 2.661 2.661 0 0 0 0-3.709 2.663 2.663 0 0 0 .027-3.787 2.662 2.662 0 0 0 .543-2.97h1.836c-.15 1.326.045 2.522.587 3.566.722 1.387 2.063 2.51 3.984 3.338a.789.789 0 0 0 1.04-.413.791.791 0 0 0-.414-1.04c-3.087-1.33-4.182-3.313-3.448-6.243a5.532 5.532 0 0 0-.181-3.332c-.69-1.809-.774-2.817-.697-4.267.025-.484.097-.747.137-.862.196-.553.726-1.2 1.576-1.2h.004l.124 1.517c.07.87.39 1.696.925 2.388.063.08 1.485 1.93 1.577 2.042a.791.791 0 0 0 1.243-.98l-1.428-1.847h3.517a5.015 5.015 0 0 0 5.01-5.01v-2.099a.79.79 0 0 0-.792-.79ZM36.17 42.717a1.09 1.09 0 0 1-.001 2.179h-4.978a1.09 1.09 0 0 1 0-2.18h4.979Zm-4.068 3.76h4.017a1.09 1.09 0 0 1 0 2.179h-4.017a1.09 1.09 0 0 1 0-2.179Zm1.424 5.941c-.6 0-1.09-.49-1.09-1.09 0-.6.49-1.09 1.09-1.09h2.643c.601 0 1.09.49 1.09 1.09 0 .601-.489 1.09-1.09 1.09h-2.643Zm3.733-12.373c0 .6-.489 1.09-1.09 1.09h-4.015a1.09 1.09 0 0 1 0-2.179h4.016c.6 0 1.089.488 1.089 1.089ZM25.899 7.9a.79.79 0 1 0 0-1.582h-2.876a.791.791 0 0 0-.79.79v6.825a.79.79 0 0 0 .79.79H25.9a.79.79 0 1 0 0-1.581h-2.085v-1.83h1.763a.79.79 0 1 0 0-1.582h-1.763V7.9H25.9Zm-7.773-1.582h-1.983a.79.79 0 0 0-.791.79v6.825a.79.79 0 0 0 .79.79h2.33a2.634 2.634 0 0 0 2.63-2.632c0-.846-.403-1.599-1.025-2.08a2.365 2.365 0 0 0-1.951-3.693ZM16.934 7.9h1.192a.78.78 0 0 1 0 1.563h-1.192V7.9Zm1.538 5.242h-1.538v-2.097h1.538a1.048 1.048 0 0 1 0 2.097Zm12.402 0c-.695 0-1.365-.281-1.792-.752a.791.791 0 0 0-1.172 1.062c.721.796 1.83 1.272 2.964 1.272 1.391 0 2.552-.915 2.761-2.175.15-.904-.261-2.16-1.913-2.723-.73-.242-1.538-.529-1.816-.724-.256-.162-.239-.441-.228-.523.019-.135.113-.463.584-.605.995-.3 1.91.426 1.935.445a.79.79 0 0 0 1.014-1.214c-.064-.053-1.574-1.297-3.406-.746-.921.278-1.57 1.007-1.694 1.905-.115.835.247 1.63.946 2.074.425.28 1.16.556 2.155.886.29.099.958.392.863.967-.069.412-.513.85-1.2.85Zm8.25-6.824h-3.769a.79.79 0 1 0 0 1.582h1.086v6.032a.79.79 0 1 0 1.582 0V7.9h1.1a.79.79 0 1 0 0-1.582Zm-6.226 10.58a.791.791 0 0 0-.79.791v6.824a.79.79 0 1 0 1.582 0v-6.824a.791.791 0 0 0-.792-.79Zm-17.867.792v6.823a.791.791 0 0 0 1.582 0v-2.738h3.14v2.738a.791.791 0 0 0 1.582 0v-6.824a.791.791 0 1 0-1.582 0v2.504h-3.14V17.69a.791.791 0 1 0-1.582 0Z"/><path d="M46.504 18.48a.79.79 0 1 0 0-1.582H43.63a.79.79 0 0 0-.791.791v6.824a.79.79 0 0 0 .79.791h2.876a.79.79 0 1 0 0-1.582H44.42v-1.83h1.762a.79.79 0 1 0 0-1.582H44.42v-1.83h2.084Zm-35.594 0c.525 0 1.031.155 1.465.448a.791.791 0 0 0 .885-1.311 4.182 4.182 0 0 0-2.35-.719 4.208 4.208 0 0 0-4.203 4.203 4.208 4.208 0 0 0 4.203 4.203c1.045-.023 2.032-.385 2.755-1.246a.79.79 0 1 0-1.212-1.016c-.304.362-.842.678-1.543.68a2.624 2.624 0 0 1-2.62-2.62 2.624 2.624 0 0 1 2.62-2.621Zm27.838 0c.525 0 1.031.155 1.465.448a.791.791 0 0 0 .885-1.311 4.182 4.182 0 0 0-2.35-.719 4.208 4.208 0 0 0-4.203 4.203 4.208 4.208 0 0 0 4.203 4.203c1.045-.023 2.032-.385 2.755-1.246a.79.79 0 1 0-1.212-1.016c-.304.362-.842.678-1.543.68a2.624 2.624 0 0 1-2.621-2.62 2.624 2.624 0 0 1 2.62-2.621Zm-16.279 2.621a4.208 4.208 0 0 0 4.203 4.203 4.208 4.208 0 0 0 4.202-4.203 4.208 4.208 0 0 0-4.202-4.203 4.208 4.208 0 0 0-4.203 4.203Zm6.823 0a2.624 2.624 0 0 1-2.62 2.621 2.624 2.624 0 0 1-2.621-2.62 2.624 2.624 0 0 1 2.62-2.622 2.624 2.624 0 0 1 2.621 2.621ZM5.345 8.749a1.028 1.028 0 0 0-.835.704c-.122.377-.022.783.262 1.06l1.276 1.244-.3 1.757c-.068.39.09.779.41 1.012a1.03 1.03 0 0 0 1.09.078l1.577-.83 1.578.83a1.032 1.032 0 0 0 1.501-1.09l-.302-1.757 1.277-1.244c.284-.277.384-.683.261-1.06a1.028 1.028 0 0 0-.835-.704l-1.764-.256-.788-1.599a1.028 1.028 0 0 0-.928-.576c-.396 0-.752.22-.927.576l-.789 1.599-1.764.256Zm3.055.702.425-.861.425.86c.15.306.442.518.779.567l.95.138-.688.67c-.243.238-.354.58-.297.916l.163.946-.85-.446a1.034 1.034 0 0 0-.963 0l-.85.446.162-.947a1.035 1.035 0 0 0-.297-.915l-.688-.67.95-.138c.338-.05.629-.26.78-.566Zm41.09.151a1.019 1.019 0 0 0-.828-.698l-1.687-.245-.755-1.528a1.02 1.02 0 0 0-.92-.572c-.393 0-.745.219-.919.571l-.754 1.529-1.687.245a1.02 1.02 0 0 0-.828.698 1.02 1.02 0 0 0 .26 1.051l1.22 1.19-.288 1.68c-.067.389.09.773.408 1.004a1.023 1.023 0 0 0 1.08.078l1.509-.793 1.508.793a1.02 1.02 0 0 0 1.08-.078c.319-.23.475-.615.409-1.003l-.288-1.68 1.22-1.19a1.02 1.02 0 0 0 .26-1.052Zm-2.794 1.313a1.025 1.025 0 0 0-.295.907l.147.858-.77-.405a1.025 1.025 0 0 0-.954 0l-.77.405.147-.858a1.028 1.028 0 0 0-.295-.907l-.623-.607.86-.126c.334-.048.623-.257.773-.56l.385-.78.384.779c.15.303.439.513.773.561l.86.125-.622.608Zm6.369 27.845a5.226 5.226 0 0 1-4.182-2.13.79.79 0 1 0-1.274.939c1.26 1.734 3.438 2.82 5.6 2.774a.79.79 0 1 0 0-1.582h-.144Z"/><path d="M48.99 0H10.672a.791.791 0 1 0 0 1.582H48.99a3.432 3.432 0 0 1 3.428 3.428v15.812a.791.791 0 1 0 1.582 0V5.01A5.015 5.015 0 0 0 48.99 0ZM24.103 41.47a2.65 2.65 0 0 0 .414-1.425 2.674 2.674 0 0 0-2.671-2.672h-8.583a3.91 3.91 0 0 1 .203-1.979c.543-1.423.784-2.492.817-3.772h2.745a.791.791 0 1 0 0-1.582h-2.801a4.058 4.058 0 0 0-.188-.865c-.484-1.37-1.688-2.255-3.067-2.255-.215 0-.401.03-.571.092a1.543 1.543 0 0 0-1.007 1.318c-.031.335-.11 1.463-.145 1.71H5.01a3.432 3.432 0 0 1-3.427-3.428V5.01A3.432 3.432 0 0 1 5.01 1.582h1.97A.791.791 0 1 0 6.98 0H5.01A5.016 5.016 0 0 0 0 5.01v21.602a5.016 5.016 0 0 0 5.01 5.01h3.516l-1.362 1.765c-.66.827-1.157 1.6-1.52 2.361-.87 1.83-2.719 3.013-4.71 3.013a.791.791 0 1 0 0 1.582c2.598 0 5.008-1.537 6.139-3.915.31-.652.745-1.325 1.331-2.058a.491.491 0 0 0 .009-.011l1.506-1.953a4.493 4.493 0 0 0 .925-2.388l.123-1.516h.005c.85 0 1.38.646 1.575 1.2.04.114.112.378.138.862.077 1.45-.008 2.458-.697 4.266a5.533 5.533 0 0 0-.182 3.332c.735 2.93-.361 4.914-3.448 6.244a.791.791 0 0 0 .626 1.453c1.921-.828 3.262-1.951 3.984-3.339.543-1.044.738-2.24.588-3.565h1.835a2.663 2.663 0 0 0 .543 2.97 2.663 2.663 0 0 0 .027 3.787 2.662 2.662 0 0 0 0 3.709 2.663 2.663 0 0 0-.57 2.997h-2.477a7.416 7.416 0 0 1-3.725-1.005 10.775 10.775 0 0 0-5.413-1.46l-2.986.004a.79.79 0 0 0 0 1.583l2.984-.004c1.621 0 3.218.43 4.619 1.245a9 9 0 0 0 4.52 1.22h7.56a2.675 2.675 0 0 0 2.67-2.672c0-.455-.114-.883-.315-1.259a2.676 2.676 0 0 0 1.74-2.503c0-.533-.159-1.03-.428-1.447a2.673 2.673 0 0 0 1.338-2.313 2.673 2.673 0 0 0-1.376-2.336Zm-1.295 3.425H17.83a1.09 1.09 0 0 1 0-2.179h4.978a1.09 1.09 0 0 1 0 2.18Zm.127-4.85c0 .6-.489 1.09-1.09 1.09H17.83a1.09 1.09 0 0 1 0-2.179h4.016c.6 0 1.089.488 1.089 1.089Zm-2.461 12.373H17.83c-.6 0-1.09-.49-1.09-1.09 0-.601.49-1.09 1.09-1.09h2.643c.6 0 1.09.489 1.09 1.09 0 .6-.489 1.09-1.09 1.09Zm1.423-3.762H17.88a1.09 1.09 0 0 1 0-2.179h4.016a1.09 1.09 0 0 1 0 2.179Z"/></svg>