<svg width="33" height="33" xmlns="http://www.w3.org/2000/svg"><path d="M16.5 8.853a7.57 7.57 0 0 1 4.692 1.608.483.483 0 1 0 .593-.763A8.529 8.529 0 0 0 16.5 7.886c-4.75 0-8.613 3.864-8.613 8.614 0 4.14 2.935 7.605 6.833 8.428l.032.007a8.65 8.65 0 0 0 3.529-.007c3.898-.823 6.833-4.289 6.833-8.428a8.547 8.547 0 0 0-1.663-5.088.483.483 0 1 0-.78.572 7.586 7.586 0 0 1 1.476 4.516c0 3.472-2.326 6.41-5.5 7.34v-4.688c.457-.226.88-.526 1.254-.894 2.233-2.202 1.83-5.943-.893-7.593a.847.847 0 0 0-1.284.722v2.789l-1.255 1.199-1.192-1.193v-2.795a.846.846 0 0 0-1.285-.722c-2.678 1.623-3.17 5.373-.862 7.614.366.355.78.645 1.224.867v1.62a.484.484 0 0 0 .967 0v-1.26c.78.197 1.593.193 2.359.003v4.547c-.23.035-.461.06-.696.075v-2.72a.483.483 0 0 0-.967 0v2.72a7.694 7.694 0 0 1-.696-.075v-1.034a.483.483 0 1 0-.967 0v.818c-3.175-.93-5.5-3.868-5.5-7.34 0-4.217 3.43-7.647 7.646-7.647Zm-1.43 9.559a.496.496 0 0 0-.099-.04 3.874 3.874 0 0 1-2.344-3.394 3.885 3.885 0 0 1 1.683-3.369v2.632c0 .22.086.428.242.584l1.33 1.33a.83.83 0 0 0 1.156.014l1.397-1.336a.83.83 0 0 0 .255-.597V11.61a3.848 3.848 0 0 1 1.687 3.2 3.876 3.876 0 0 1-5.307 3.603Z" fill="#fff"/><path d="m31.77 12.857-3.169-.383a.236.236 0 0 1-.193-.16 12.628 12.628 0 0 0-.532-1.28.226.226 0 0 1 .023-.238l1.975-2.518a1.398 1.398 0 0 0-.111-1.85l-3.191-3.191a1.398 1.398 0 0 0-1.85-.111L22.204 5.1a.226.226 0 0 1-.238.023 12.7 12.7 0 0 0-1.28-.532.236.236 0 0 1-.16-.193l-.383-3.17A1.399 1.399 0 0 0 18.757 0h-4.514c-.705 0-1.302.528-1.386 1.23l-.383 3.168a.236.236 0 0 1-.16.194 12.38 12.38 0 0 0-1.28.532.226.226 0 0 1-.238-.023L8.278 3.126a1.398 1.398 0 0 0-1.85.111l-.798.798a.483.483 0 1 0 .684.684l.798-.798a.43.43 0 0 1 .57-.034l2.517 1.975c.36.282.84.333 1.255.133.384-.185.781-.35 1.181-.49.438-.155.744-.534.8-.99l.382-3.17a.43.43 0 0 1 .426-.378h4.514c.217 0 .4.162.426.378l.383 3.17c.055.456.361.835.799.989.4.14.797.306 1.181.49.415.2.896.15 1.255-.132l2.518-1.975a.43.43 0 0 1 .569.034l3.191 3.191a.43.43 0 0 1 .034.57l-1.975 2.517c-.282.36-.333.84-.133 1.255.185.384.35.782.491 1.181.154.438.533.744.99.8l3.169.382a.43.43 0 0 1 .378.426v4.514a.43.43 0 0 1-.378.426l-3.17.383a1.196 1.196 0 0 0-.989.799c-.14.4-.306.797-.49 1.181-.2.415-.15.896.132 1.255l1.975 2.518a.43.43 0 0 1-.034.57l-3.191 3.19a.43.43 0 0 1-.57.035l-2.517-1.976a1.185 1.185 0 0 0-1.255-.133c-.384.185-.781.35-1.181.491a1.197 1.197 0 0 0-.8.99l-.382 3.169a.43.43 0 0 1-.426.378h-4.514a.43.43 0 0 1-.426-.378l-.383-3.17a1.197 1.197 0 0 0-.799-.989c-.4-.14-.797-.306-1.181-.49-.415-.2-.896-.15-1.255.132l-2.518 1.975a.43.43 0 0 1-.569-.034l-3.191-3.191a.43.43 0 0 1-.034-.57l1.975-2.517c.282-.36.333-.84.133-1.255-.185-.384-.35-.782-.491-1.181a1.197 1.197 0 0 0-.99-.8l-3.169-.382a.43.43 0 0 1-.378-.426v-4.514c0-.217.162-.4.378-.426l3.17-.383c.456-.055.835-.361.989-.799.14-.4.306-.797.49-1.181.2-.415.15-.896-.132-1.255L3.887 7.681a.43.43 0 0 1 .034-.569l.798-.798a.484.484 0 0 0-.684-.684l-.798.798a1.397 1.397 0 0 0-.111 1.85l1.975 2.518a.225.225 0 0 1 .023.239c-.2.416-.38.847-.532 1.28a.236.236 0 0 1-.193.16l-3.17.382c-.7.085-1.229.68-1.229 1.386v4.514c0 .705.528 1.301 1.23 1.386l3.169.383c.088.01.162.072.193.16.152.433.331.863.532 1.28.039.08.03.171-.023.238l-1.975 2.518a1.397 1.397 0 0 0 .111 1.85l3.191 3.19c.5.5 1.295.548 1.85.112l2.518-1.975a.225.225 0 0 1 .239-.023c.415.2.846.38 1.28.532.087.03.149.105.16.193l.382 3.17c.085.7.68 1.229 1.386 1.229h4.514c.705 0 1.301-.529 1.386-1.23l.383-3.169a.236.236 0 0 1 .16-.193c.433-.152.863-.331 1.28-.532a.225.225 0 0 1 .238.023l2.518 1.975c.555.436 1.35.388 1.85-.111l3.19-3.191c.5-.5.548-1.294.112-1.85l-1.975-2.518a.225.225 0 0 1-.023-.238c.2-.417.38-.847.532-1.28a.236.236 0 0 1 .193-.16l3.17-.383c.7-.085 1.229-.68 1.229-1.386v-4.514c0-.705-.529-1.302-1.23-1.386Z" fill="#fff"/></svg>