<svg width="54" height="56" xmlns="http://www.w3.org/2000/svg"><path d="M52.136 0H20.65a1.15 1.15 0 0 0-1.148 1.148v2.57h-2.57a1.15 1.15 0 0 0-1.149 1.15v10.068L3.736 20.957a1.904 1.904 0 0 0-1.058 1.712v6.313c0 2.141.253 4.052.735 5.785a7.732 7.732 0 0 0-2.696 5.868c0 4.273 3.476 7.75 7.749 7.75a7.706 7.706 0 0 0 2.87-.554v4.4a1.238 1.238 0 0 0 2.067.917l3.009-2.722 3.008 2.722a1.237 1.237 0 0 0 2.067-.918v-6.464h6.17a.82.82 0 1 0 0-1.64H23.13c1.738-1.488 3.19-3.084 4.314-4.886h14.377a.82.82 0 1 0 0-1.64H28.347a16.86 16.86 0 0 0 .844-2.109h2.732a.82.82 0 1 0 0-1.64H29.64c.15-.676.268-1.378.352-2.11h11.83a.82.82 0 1 0 0-1.64H30.118c.016-.367.027-.738.027-1.12v-.988h11.676a.82.82 0 1 0 0-1.641H30.146v-2.108h4.183a.82.82 0 1 0 0-1.641h-4.186a1.902 1.902 0 0 0-1.056-1.646l-.925-.463h13.66a.82.82 0 1 0 0-1.64H24.88l-7.455-3.726V5.359h30.501v6.125a.82.82 0 1 0 1.64 0V4.867a1.15 1.15 0 0 0-1.148-1.148H21.142V1.64h30.502v38.766h-2.078V15.313a.82.82 0 0 0-1.64 0v28.813H31.484a.82.82 0 1 0 0 1.64h16.932a1.15 1.15 0 0 0 1.149-1.148v-2.57h2.57a1.15 1.15 0 0 0 1.148-1.149V1.15A1.15 1.15 0 0 0 52.136 0ZM2.357 40.635a6.115 6.115 0 0 1 6.109-6.108 6.115 6.115 0 0 1 6.108 6.108 6.115 6.115 0 0 1-6.108 6.109 6.115 6.115 0 0 1-6.109-6.109Zm14.884 8.33a1.233 1.233 0 0 0-1.659 0l-2.605 2.356v-4.392a7.742 7.742 0 0 0 2.963-8.337 8.351 8.351 0 0 0 3.906-.721v13.45l-2.605-2.356Zm11.264-26.296v6.313c0 4.32-1.077 7.733-3.39 10.743-.964 1.257-2.136 2.44-3.628 3.648v-6.477a8.394 8.394 0 0 0 2.375-10.578.82.82 0 0 0-1.454.76c.509.973.766 2.025.766 3.126a6.77 6.77 0 0 1-7.943 6.659 7.777 7.777 0 0 0-4.923-3.754 6.712 6.712 0 0 1-.66-2.905 6.77 6.77 0 0 1 6.764-6.763 6.74 6.74 0 0 1 3.7 1.103.82.82 0 1 0 .898-1.372 8.37 8.37 0 0 0-4.598-1.372c-4.634 0-8.404 3.77-8.404 8.404 0 .938.156 1.84.441 2.683a7.697 7.697 0 0 0-3.596.896c-.358-1.477-.535-3.065-.535-4.801v-6.313c0-.104.058-.198.151-.244l11.943-5.969 11.942 5.969c.093.046.151.14.151.244Z"/><path d="M22.707 15.925c0 .453.367.82.82.82h18.296a.82.82 0 1 0 0-1.64H23.527a.82.82 0 0 0-.82.82Zm19.115 6.678H37.39a.82.82 0 1 0 0 1.64h4.43a.82.82 0 1 0 0-1.64Zm0 11.247h-6.947a.82.82 0 1 0 0 1.641h6.947a.82.82 0 1 0 0-1.64Zm-3.524-22.52a.82.82 0 1 0 0-1.64H27.051a.82.82 0 0 0 0 1.64h11.247ZM18.944 28.297 16.02 31.22l-1.913-1.913a.82.82 0 0 0-1.16 1.16l2.493 2.493a.818.818 0 0 0 1.16 0l3.504-3.504a.82.82 0 1 0-1.16-1.16Zm12.523 21.287-1.68-.245-.752-1.523a1.23 1.23 0 0 0-1.11-.689c-.473 0-.898.264-1.108.69l-.752 1.522-1.68.245a1.23 1.23 0 0 0-1 .841 1.23 1.23 0 0 0 .314 1.268l1.216 1.186-.287 1.674c-.08.467.108.93.492 1.21a1.233 1.233 0 0 0 1.302.094l1.504-.79 1.503.79c.42.22.919.184 1.303-.094.383-.28.572-.743.492-1.21l-.288-1.674 1.217-1.186c.34-.33.46-.816.313-1.267a1.23 1.23 0 0 0-.999-.842Zm-1.828 2.268a1.236 1.236 0 0 0-.355 1.095l.184 1.077-.967-.508a1.235 1.235 0 0 0-1.15 0l-.968.508.185-1.077a1.237 1.237 0 0 0-.356-1.095l-.782-.762 1.08-.158c.404-.058.752-.31.932-.676l.483-.98.484.98c.18.365.529.618.931.676l1.082.158-.783.762Zm11.978-2.268-1.68-.245-.752-1.523a1.23 1.23 0 0 0-1.109-.689c-.474 0-.9.264-1.11.69l-.75 1.522-1.682.245a1.23 1.23 0 0 0-.998.841 1.23 1.23 0 0 0 .313 1.268l1.216 1.186-.287 1.674c-.08.467.108.93.492 1.21a1.23 1.23 0 0 0 1.303.094l1.503-.79 1.503.79a1.233 1.233 0 0 0 1.303-.094 1.23 1.23 0 0 0 .492-1.21l-.287-1.674 1.216-1.186c.34-.33.46-.816.313-1.267a1.229 1.229 0 0 0-.998-.842Zm-1.827 2.268a1.236 1.236 0 0 0-.356 1.095l.185 1.077-.967-.508a1.235 1.235 0 0 0-1.152 0l-.967.508.185-1.077a1.237 1.237 0 0 0-.356-1.095l-.782-.762 1.081-.158c.403-.058.751-.311.931-.676l.484-.98.483.98c.18.365.529.618.932.676l1.081.158-.782.762Zm11.978-2.268-1.68-.245-.752-1.523a1.23 1.23 0 0 0-1.11-.689c-.474 0-.899.264-1.109.69l-.751 1.522-1.681.245a1.23 1.23 0 0 0-.998.841 1.23 1.23 0 0 0 .312 1.268l1.217 1.186-.288 1.674c-.08.467.109.93.492 1.21a1.232 1.232 0 0 0 1.303.094l1.503-.79 1.504.79c.42.22.918.184 1.302-.094a1.23 1.23 0 0 0 .492-1.21l-.287-1.674 1.216-1.186c.34-.33.46-.817.313-1.268a1.229 1.229 0 0 0-.998-.841Zm-1.828 2.268a1.236 1.236 0 0 0-.356 1.095l.185 1.077-.967-.508a1.234 1.234 0 0 0-1.151 0l-.967.508.184-1.077a1.237 1.237 0 0 0-.355-1.095l-.783-.762 1.081-.158c.403-.058.751-.31.932-.676l.483-.98.484.98c.18.365.528.618.931.676l1.081.158-.782.762ZM11.662 38.774l-1.468-.214-.657-1.33a1.187 1.187 0 0 0-1.071-.666c-.458 0-.869.255-1.072.666l-.656 1.33-1.468.214a1.187 1.187 0 0 0-.964.813c-.142.435-.026.905.302 1.224l1.062 1.036-.25 1.462c-.078.452.104.9.475 1.169a1.191 1.191 0 0 0 1.258.09l1.313-.69 1.313.69c.405.214.888.179 1.258-.09a1.19 1.19 0 0 0 .476-1.169l-.251-1.462 1.062-1.035c.328-.32.444-.79.303-1.225a1.188 1.188 0 0 0-.965-.813Zm-1.713 2.062c-.282.274-.41.67-.344 1.057l.138.803-.721-.379a1.195 1.195 0 0 0-1.112 0l-.721.38.138-.804a1.194 1.194 0 0 0-.344-1.057l-.583-.569.805-.117c.39-.056.726-.3.9-.653l.36-.73.361.73c.174.352.51.597.9.653l.806.117-.583.569Z"/></svg>