<svg width="43" height="49" xmlns="http://www.w3.org/2000/svg"><path d="M12.5 5.5c-.8.4-1.667 3.167-2 4.5l-.5 1h22l.5-.5V9L31 6.5 29.5 4 27 2.5l-3-1c-.833-.167-2.6-.5-3-.5-.5 0-2.5.5-3.5 1s-4 3-5 3.5Zm28.738 33.047a8.673 8.673 0 0 0-5.826-6.818l-6.8-2.267v-1.01h-1.58v1.482l-1.18 4.72-3.192-3.831h-2.322l-3.192 3.83-1.179-4.719v-1.482h-1.58v1.01l-6.8 2.267a8.676 8.676 0 0 0-5.827 6.818L.018 49H42.98l-1.743-10.453ZM7.348 47.42H1.885l.254-1.525 5.297.662-.086.863Zm10.305 0H8.937l.704-7.033-1.573-.158-.476 4.756-5.194-.65.92-5.527a7.098 7.098 0 0 1 4.768-5.578l6.53-2.177 1.752 7.004 1.782-2.138.943 1.415-1.44 10.086Zm6.096 0h-4.5l1.495-10.461-1.538-2.307 1.873-2.248h.84l1.873 2.248-1.538 2.307 1.495 10.461Zm11.182-7.191-1.573.157.704 7.034h-8.716l-1.44-10.087.942-1.415 1.783 2.14 1.751-7.005 6.53 2.177a7.098 7.098 0 0 1 4.768 5.579l.92 5.527-5.193.65-.476-4.758Zm.72 7.191-.087-.863 5.297-.662.253 1.525H35.65Z"/><path d="M8.966 14.905a3.913 3.913 0 0 0-.902 2.482c0 2.028 1.54 3.685 3.51 3.907a8.638 8.638 0 0 0 2.197 3.709l3.083 3.082a3.924 3.924 0 0 0 2.794 1.157h3.704a3.928 3.928 0 0 0 2.794-1.157l3.082-3.082a8.644 8.644 0 0 0 2.197-3.709c1.969-.222 3.51-1.879 3.51-3.907 0-.944-.347-1.801-.902-2.482a2.366 2.366 0 0 0 1.692-2.26 2.374 2.374 0 0 0-2.37-2.37h-.113c-.63-4.666-4.035-8.57-8.581-9.83V0h-6.323v.445c-4.547 1.26-7.952 5.165-8.581 9.83h-.113a2.374 2.374 0 0 0-2.37 2.37c0 1.07.716 1.966 1.692 2.26Zm.678 2.482c0-1.029.663-1.898 1.581-2.226v3.694c0 .259.015.515.037.77a2.368 2.368 0 0 1-1.618-2.238Zm20.548 1.468c0 1.9-.739 3.687-2.082 5.03l-3.083 3.082a2.387 2.387 0 0 1-1.676.694h-3.704a2.388 2.388 0 0 1-1.676-.694l-3.083-3.082a7.066 7.066 0 0 1-2.083-5.03v-3.839h17.387v3.84Zm1.544.769c.022-.254.037-.51.037-.768V15.16a2.368 2.368 0 0 1 1.581 2.226c0 1.043-.681 1.92-1.618 2.237ZM18.338 2.09v6.603h1.58V1.58h3.162v7.113h1.58V2.09c3.664 1.188 6.397 4.378 6.992 8.183H11.347c.594-3.805 3.328-6.995 6.991-8.183Zm-8.694 9.764h23.71a.791.791 0 0 1 0 1.58H9.644a.792.792 0 0 1-.79-.79c0-.435.355-.79.79-.79Z"/><path d="M27.823 7.113h-1.58v1.58h1.58v-1.58Zm-11.067 0h-1.58v1.58h1.58v-1.58Z"/></svg>