<svg width="53" height="53" xmlns="http://www.w3.org/2000/svg"><path d="M3 27h23v18l-10-.5-6-3-4 3-3 .5V27Zm23.5 5H36l4 14-8.5-4.5-5 2V32Zm5.129 12.452a2.568 2.568 0 0 0-2.565 2.564 2.568 2.568 0 0 0 2.565 2.565 2.568 2.568 0 0 0 2.564-2.565 2.568 2.568 0 0 0-2.564-2.564Zm0 3.419a.856.856 0 0 1 0-1.71.856.856 0 0 1 0 1.71Z"/><path d="M11.113 44.452a2.568 2.568 0 0 0-2.564 2.564 2.568 2.568 0 0 0 2.564 2.565 2.568 2.568 0 0 0 2.565-2.565 2.568 2.568 0 0 0-2.565-2.564Zm0 3.419a.856.856 0 1 1 .002-1.711.856.856 0 0 1-.002 1.711Zm1.709-34.194a2.568 2.568 0 0 0 2.565-2.564 2.568 2.568 0 0 0-2.565-2.565 2.568 2.568 0 0 0-2.564 2.565 2.568 2.568 0 0 0 2.564 2.564Zm0-3.419a.856.856 0 0 1 0 1.71.856.856 0 0 1 0-1.71Zm34.194 20.516a2.568 2.568 0 0 0-2.565 2.565 2.568 2.568 0 0 0 2.565 2.564 2.568 2.568 0 0 0 2.564-2.564 2.568 2.568 0 0 0-2.564-2.565Zm0 3.42a.856.856 0 0 1 0-1.71.856.856 0 0 1 0 1.71Z"/><path d="M47.833 27.417c.013-.306.038-.612.038-.917a21.31 21.31 0 0 0-3.06-11.002 10.299 10.299 0 0 0 1.35-5.072v-.168C46.161 4.602 41.56 0 35.903 0c-3.794 0-7.106 2.076-8.88 5.146A21.616 21.616 0 0 0 17.34 7.2a5.968 5.968 0 0 0-4.517-2.071 5.991 5.991 0 0 0-5.984 5.984 6.02 6.02 0 0 0 1.196 3.59l.354.471a21.241 21.241 0 0 0-3.228 10.471H3.419c-.943 0-1.71.767-1.71 1.71v17.097c-.942 0-1.709.766-1.709 1.71v1.709c0 .943.767 1.71 1.71 1.71h4.005A5.985 5.985 0 0 0 11.113 53a5.985 5.985 0 0 0 5.398-3.42h9.72A5.985 5.985 0 0 0 31.629 53a5.985 5.985 0 0 0 5.398-3.42h2.296c.943 0 1.71-.766 1.71-1.709v-2.354c0-.209-.026-.417-.077-.623l-.547-2.188a21.37 21.37 0 0 0 3.392-3.682l3.215 4.288 4.787-6.383A6.018 6.018 0 0 0 53 33.339c0-3.021-2.253-5.52-5.167-5.922ZM35.903 1.71c4.714 0 8.549 3.834 8.549 8.548v.167a8.584 8.584 0 0 1-1.827 5.281l-6.722 8.556-6.721-8.556a8.583 8.583 0 0 1-1.827-5.281v-.167c0-4.714 3.835-8.548 8.548-8.548Zm-23.08 5.129a4.279 4.279 0 0 1 4.274 4.274c0 .919-.304 1.83-.855 2.564l-3.42 4.56-3.419-4.56a4.294 4.294 0 0 1-.855-2.564 4.279 4.279 0 0 1 4.275-4.274ZM3.419 27.355h6.84v6.512l4.273-2.137 4.274 2.137v-6.512h6.84v17.097H16.51a5.985 5.985 0 0 0-5.398-3.42 5.985 5.985 0 0 0-5.398 3.42H3.419V27.355Zm8.549 0h5.129V31.1l-2.565-1.282-2.564 1.282v-3.746Zm15.387 5.129h8.068c.392 0 .734.267.829.647l.266 1.063h-4.034c-.943 0-1.71.766-1.71 1.71v1.709c0 .943.767 1.71 1.71 1.71H37.8l1.282 5.129h-2.055a5.985 5.985 0 0 0-5.398-3.42 5.961 5.961 0 0 0-4.274 1.805V32.484Zm10.018 5.129h-4.89v-1.71h4.462l.428 1.71ZM1.71 47.87v-1.71h3.487c-.04.28-.068.564-.068.855 0 .29.028.575.068.855H1.71Zm9.403 3.42a4.279 4.279 0 0 1-4.274-4.275 4.279 4.279 0 0 1 4.274-4.274 4.279 4.279 0 0 1 4.274 4.274 4.279 4.279 0 0 1-4.274 4.274Zm5.915-3.42c.04-.28.069-.564.069-.855 0-.29-.028-.574-.069-.855h8.686c-.04.28-.069.564-.069.855 0 .29.028.575.069.855h-8.686Zm14.601 3.42a4.279 4.279 0 0 1-4.274-4.275 4.279 4.279 0 0 1 4.274-4.274 4.279 4.279 0 0 1 4.274 4.274 4.279 4.279 0 0 1-4.274 4.274Zm5.915-3.42c.04-.28.069-.564.069-.855 0-.29-.028-.574-.069-.855h1.779v1.71h-1.779Zm2.398-7.031-2.03-8.124a2.562 2.562 0 0 0-2.49-1.942h-8.067v-3.42c0-.942-.767-1.709-1.71-1.709H6.87a19.535 19.535 0 0 1 2.622-9l3.332 4.441 4.787-6.383a6.018 6.018 0 0 0 1.197-3.59c0-.88-.196-1.713-.54-2.466a19.402 19.402 0 0 1 7.973-1.8 10.213 10.213 0 0 0-.595 3.411v.167a10.3 10.3 0 0 0 2.192 6.337l8.066 10.266 7.84-9.976A19.609 19.609 0 0 1 46.16 26.5c0 .309-.024.619-.037.93-2.877.433-5.092 2.913-5.092 5.909 0 1.287.426 2.562 1.197 3.59l.493.657a19.696 19.696 0 0 1-2.78 3.254Zm10.493-4.938-3.419 4.56-3.42-4.56a4.294 4.294 0 0 1-.854-2.563 4.279 4.279 0 0 1 4.274-4.274 4.279 4.279 0 0 1 4.274 4.274c0 .919-.303 1.83-.855 2.563Z"/><path d="M35.903 17.097a6.847 6.847 0 0 0 6.839-6.839 6.847 6.847 0 0 0-6.839-6.839 6.847 6.847 0 0 0-6.838 6.84 6.847 6.847 0 0 0 6.838 6.838Zm0-11.968c2.829 0 5.13 2.3 5.13 5.13a5.134 5.134 0 0 1-5.13 5.128 5.134 5.134 0 0 1-5.129-5.129c0-2.829 2.3-5.129 5.13-5.129ZM20.516 22.226h1.71v1.71h-1.71v-1.71Zm3.42 0h1.71v1.71h-1.71v-1.71Zm3.419 0h1.71v1.71h-1.71v-1.71Z"/></svg>