<svg width="49" height="55" viewBox="0 0 49 55" xmlns="http://www.w3.org/2000/svg">
<path d="M32.9818 14.8032H6.64309C6.19621 14.8032 5.83398 15.1654 5.83398 15.6123C5.83398 16.0592 6.19621 16.4214 6.64309 16.4214H32.9819C33.4287 16.4214 33.791 16.0592 33.791 15.6123C33.791 15.1654 33.4286 14.8032 32.9818 14.8032Z"/>
<path d="M6.64309 10.8091H19.8124C20.2592 10.8091 20.6215 10.4469 20.6215 10C20.6215 9.55314 20.2592 9.19092 19.8124 9.19092H6.64309C6.19621 9.19092 5.83398 9.55314 5.83398 10C5.83398 10.447 6.19621 10.8091 6.64309 10.8091Z"/>
<path d="M32.9818 19.7759H6.64309C6.19621 19.7759 5.83398 20.1381 5.83398 20.585C5.83398 21.0319 6.19621 21.3941 6.64309 21.3941H32.9819C33.4287 21.3941 33.791 21.0319 33.791 20.585C33.7909 20.1381 33.4286 19.7759 32.9818 19.7759Z"/>
<path d="M12.6423 49.3784H4.21319C2.82971 49.3784 1.70403 48.2528 1.70403 46.8693V4.12726C1.70403 2.74377 2.82971 1.6181 4.21319 1.6181H28.4966C28.575 1.6181 28.6522 1.62529 28.7286 1.63561V6.68164C28.7286 8.95748 30.5801 10.8089 32.8558 10.8089H37.9018C37.9122 10.8854 37.9193 10.9626 37.9193 11.041V24.8191C37.9193 25.2659 38.2815 25.6282 38.7284 25.6282C39.1753 25.6282 39.5375 25.2659 39.5375 24.8191V11.0411C39.5375 10.1536 39.1918 9.31917 38.5642 8.6915L30.846 0.973242C30.2184 0.345684 29.3841 0 28.4966 0H4.21319C1.93735 0 0.0859375 1.85152 0.0859375 4.12726V46.8693C0.0859375 49.1451 1.93746 50.9965 4.21319 50.9965H12.6423C13.0891 50.9965 13.4514 50.6343 13.4514 50.1874C13.4514 49.7405 13.0891 49.3784 12.6423 49.3784ZM36.7751 9.1908H32.8559C31.4725 9.1908 30.3468 8.06513 30.3468 6.68164V2.76246L36.7751 9.1908Z"/>
<path d="M48.6649 39.6093L41.8094 28.0379C41.3098 27.1942 40.2225 26.9153 39.3784 27.4154L37.7109 28.4033C36.4165 29.1701 35.8694 30.7218 36.3138 32.0969C35.752 32.3005 35.1361 32.2972 34.5689 32.078C33.2523 31.6638 32.2514 30.8305 30.5982 31.2486C27.7913 31.9633 27.8766 31.9275 27.6227 32.0145C25.9791 31.0788 24.9911 30.8003 23.2464 31.4753L21.6911 32.0765C20.9711 32.3547 20.1777 32.2888 19.5123 31.8945L19.0879 31.6443C19.295 30.4034 18.7447 29.0938 17.5794 28.4035C17.5794 28.4035 17.5794 28.4035 17.5793 28.4034L15.9118 27.4156C15.0701 26.917 13.9795 27.1961 13.4809 28.0379L6.62523 39.6095C6.12561 40.4529 6.40362 41.5406 7.24752 42.0404L8.91493 43.0283C9.41949 43.3272 9.974 43.4693 10.5218 43.4693C11.1328 43.4693 11.7351 43.2923 12.2501 42.9589L12.5976 43.1639L11.8639 44.1858C10.9896 45.4038 11.2674 47.0974 12.4855 47.9718C13.0488 48.3762 13.7565 48.5608 14.4884 48.4459C14.6045 49.1247 14.9764 49.76 15.5786 50.1924C16.1442 50.5985 16.8487 50.7834 17.5818 50.6679C17.6983 51.3462 18.07 51.9809 18.6718 52.4131C19.4807 52.9937 20.4864 53.0608 21.3244 52.7029C21.5078 53.1792 21.8265 53.6093 22.2711 53.9286C23.4321 54.7619 25.0314 54.5445 25.9336 53.4649L27.8833 54.6199C29.1727 55.384 30.8363 54.9594 31.6008 53.6685C31.7963 53.3385 31.9176 52.9789 31.962 52.6092L31.9664 52.6119C33.2538 53.3744 34.9212 52.9475 35.6839 51.6604C35.9048 51.2875 36.0258 50.8831 36.0553 50.4778C37.1901 50.7631 38.4268 50.2864 39.0531 49.2294C39.2586 48.8826 39.3777 48.5081 39.4169 48.1311C40.6332 48.6084 42.0547 48.1471 42.7415 46.9878C43.111 46.3642 43.2155 45.6342 43.0358 44.932C42.933 44.5302 42.7439 44.1655 42.4844 43.8576L43.559 43.2297C44.4681 43.6029 45.5056 43.5431 46.3751 43.0282L48.0423 42.0403C48.8862 41.5408 49.1649 40.4534 48.6649 39.6093ZM9.73971 41.6362L8.07231 40.6482C7.99819 40.6043 7.97359 40.5083 8.01742 40.4341L14.8731 28.8623C14.9172 28.7879 15.0136 28.7637 15.0873 28.8075L16.7546 29.7953C17.4955 30.2343 17.7273 31.1846 17.2963 31.9119L11.8564 41.0943C11.4222 41.8274 10.4728 42.0703 9.73971 41.6362ZM13.4291 46.6573C12.9378 46.3045 12.8254 45.6211 13.1784 45.1295L14.2568 43.6274C14.6003 43.1488 15.2849 43.0178 15.7846 43.3765C16.2749 43.7285 16.3874 44.4138 16.0355 44.9042L14.957 46.4064C14.605 46.897 13.9193 47.0091 13.4291 46.6573ZM16.5223 48.878C16.0319 48.5259 15.9195 47.8404 16.2715 47.3502L17.3499 45.8481C17.3499 45.8481 17.3499 45.8481 17.3499 45.848C17.3499 45.848 17.3499 45.8479 17.35 45.8479L18.5401 44.1901C18.7107 43.9526 18.9635 43.7956 19.252 43.7483C19.312 43.7384 19.372 43.7336 19.4316 43.7336C19.6587 43.7336 19.8797 43.8043 20.0679 43.9393C20.3053 44.1099 20.4623 44.3626 20.5096 44.6511C20.557 44.9397 20.4892 45.2294 20.3186 45.467L18.05 48.6271C17.6974 49.1185 17.0139 49.231 16.5223 48.878ZM19.6155 51.0985C19.1254 50.7466 19.0128 50.0617 19.3642 49.5714C19.3643 49.5712 19.3645 49.571 19.3646 49.5708L21.6332 46.4108C21.9851 45.9205 22.6708 45.8079 23.161 46.1598C23.6514 46.5118 23.7639 47.1972 23.4118 47.6876L22.4039 49.0917C22.4039 49.0917 22.4039 49.0917 22.4038 49.0918L21.1432 50.8477C20.7912 51.3381 20.106 51.4508 19.6155 51.0985ZM23.2148 52.6141C22.7248 52.2621 22.6121 51.5775 22.9632 51.0872L23.7183 50.0355C24.0702 49.545 24.7559 49.4329 25.2461 49.7847C25.7363 50.1366 25.8489 50.822 25.4969 51.3124L24.7425 52.3631C24.3906 52.8536 23.705 52.9662 23.2148 52.6141ZM41.3497 46.1632C41.0418 46.6828 40.3689 46.8551 39.8492 46.5473C38.9692 46.026 33.2926 42.6629 32.6874 42.3043C32.3028 42.0766 31.8066 42.2035 31.5789 42.5879C31.3512 42.9724 31.478 43.4687 31.8625 43.6964L37.2769 46.9042L37.277 46.9043C37.7968 47.2121 37.9702 47.883 37.6611 48.4048C37.3531 48.9247 36.6799 49.0966 36.1604 48.7891C34.1579 47.6027 32.5318 46.6394 30.7432 45.5796C30.3585 45.3519 29.8624 45.4788 29.6347 45.8632C29.4069 46.2477 29.5338 46.744 29.9183 46.9717L33.9077 49.3352L33.9086 49.3358C34.4287 49.6446 34.6004 50.3151 34.2919 50.8359C33.984 51.3557 33.311 51.5279 32.7912 51.22L30.6501 49.9517C30.6499 49.9516 30.6496 49.9515 30.6494 49.9513C30.6492 49.9512 30.6489 49.9511 30.6487 49.951L29.0863 49.0252C28.7017 48.7974 28.2055 48.9242 27.9778 49.3088C27.7501 49.6933 27.8769 50.1895 28.2614 50.4173L29.8242 51.3431C29.8244 51.3433 29.8246 51.3435 29.8248 51.3436C30.3446 51.6514 30.518 52.3222 30.209 52.844C29.901 53.3639 29.228 53.5361 28.7082 53.2282L26.8851 52.1483C27.6666 50.9424 27.3694 49.3173 26.1898 48.4706C25.8433 48.222 25.4576 48.0672 25.063 48.0007C25.4815 46.8817 25.1207 45.5752 24.1046 44.8458C23.503 44.4138 22.7828 44.2646 22.103 44.3711C21.982 43.6638 21.5952 43.0442 21.0116 42.6253C19.914 41.8376 18.4223 41.989 17.5009 42.9211C17.3137 42.5922 17.0552 42.2973 16.7283 42.0625C15.8161 41.4079 14.6319 41.4018 13.7289 41.9532L13.3582 41.7344L18.4468 33.145L18.689 33.2879C19.7589 33.9217 21.0646 34.0538 22.2746 33.5859L23.8298 32.9846C24.7198 32.6407 25.2106 32.6182 26.0909 33.0336C25.5149 33.6807 25.173 34.5303 25.173 35.446V39.0334C25.173 39.9862 25.9476 40.7619 26.8997 40.7625H26.9021C27.8571 40.7625 28.7551 40.3907 29.4307 39.7156C29.8245 39.322 30.1152 38.8528 30.2894 38.3406C31.3341 38.9592 39.9651 44.0703 40.9657 44.6631C41.2174 44.8122 41.396 45.0504 41.4685 45.3338C41.541 45.6168 41.4988 45.9115 41.3497 46.1632ZM47.2179 40.6482L45.5504 41.6362C44.8174 42.0702 43.868 41.8271 43.434 41.0945L40.8842 36.7906C40.6564 36.4061 40.1599 36.2793 39.7757 36.5068C39.3913 36.7345 39.2643 37.2308 39.4919 37.6153L42.0417 41.9192C42.0897 42.0002 42.1418 42.0773 42.1957 42.1523L41.4869 42.5665C41.3435 42.6513 41.2057 42.7448 41.0739 42.8463L30.0822 36.3371C29.5437 36.0183 28.8609 36.4069 28.8609 37.0332C28.8524 37.0815 28.9445 37.9132 28.2867 38.5707C27.9168 38.9403 27.425 39.144 26.902 39.144C26.9015 39.144 26.9011 39.144 26.9007 39.144C26.8402 39.144 26.791 39.0942 26.791 39.0329V35.4456C26.791 34.5084 27.4357 33.7178 28.3077 33.497L30.995 32.817C31.97 32.5705 32.5212 33.0912 33.9812 33.5853C34.9947 33.9774 36.0967 33.9533 37.0749 33.5355L37.5633 34.3599C37.7911 34.7445 38.2874 34.8713 38.6718 34.6437C39.0562 34.4159 39.1832 33.9196 38.9556 33.5352L37.9937 31.9117C37.5585 31.1772 37.801 30.2306 38.5354 29.7952L40.2028 28.8074C40.2757 28.7641 40.372 28.7863 40.4171 28.8623L47.2726 40.4339C47.3169 40.5086 47.2925 40.6041 47.2179 40.6482Z"/>
</svg>
