<svg width="54" height="54" viewBox="0 0 54 54" xmlns="http://www.w3.org/2000/svg">
<path d="M53.2083 23.7222C52.7713 23.7222 52.4173 24.0762 52.4173 24.5132V26.6122C52.4173 28.5023 50.8797 30.04 48.9895 30.04H44.75C44.7441 30.0818 44.605 28.311 44.6053 28.3287C44.5556 27.7332 44.1606 27.2165 43.5977 27.0114C43.4284 26.95 43.2419 26.9202 43.0278 26.9202C41.649 26.9202 40.445 27.8052 39.9605 29.1746C39.8744 29.4178 39.8118 29.7084 39.7723 30.04H29.6492C29.3666 30.04 29.1055 30.1908 28.9642 30.4355L27.2276 33.4433C27.1614 33.558 27.0562 33.5751 26.9993 33.5751C26.9424 33.5752 26.8371 33.558 26.7709 33.4433L25.0343 30.4355C24.893 30.1908 24.632 30.04 24.3493 30.04H20.7188C20.2819 30.04 19.9277 30.394 19.9277 30.831C19.9277 31.2679 20.2819 31.622 20.7188 31.622H23.8926L25.4008 34.2343C25.7345 34.8122 26.332 35.1572 26.9993 35.1571C27.6666 35.1571 28.2641 34.8121 28.5977 34.2343L30.1059 31.622H39.7163C39.7497 32.9017 39.9906 33.9706 40.5333 35.3943C40.7711 36.0182 40.8381 36.6952 40.7366 37.3736C38.5926 37.3736 34.2578 37.3736 32.1538 37.3736C30.6807 37.3736 29.4824 38.572 29.4824 40.045C29.4824 40.5689 29.6346 41.0576 29.8961 41.4706C29.0761 41.9271 28.52 42.8026 28.52 43.8059C28.52 44.7939 29.0594 45.6576 29.8588 46.1197C29.5888 46.5371 29.4312 47.0337 29.4312 47.5668C29.4312 48.7119 30.1557 49.6908 31.1702 50.0699C30.969 50.4452 30.8546 50.8735 30.8546 51.3282C30.8546 52.8005 32.0524 53.9992 33.5248 54.0002H41.0851C42.6713 54.0002 44.2345 53.5786 45.6054 52.7808C47.0067 51.9656 48.6032 51.535 50.2249 51.535C50.2392 51.5349 53.1632 51.5395 53.2084 51.5395C53.6447 51.5395 53.9987 51.1861 53.9994 50.7498C54 50.3128 53.6464 49.9582 53.2097 49.9575C53.1699 49.9575 50.2911 49.953 50.2241 49.953C48.3241 49.953 46.4524 50.4578 44.8098 51.4134C43.6801 52.0707 42.3922 52.4181 41.0851 52.4181H38.6078C38.7573 52.0849 38.8412 51.7162 38.8412 51.3281C38.8412 50.5819 38.5335 49.9065 38.0385 49.4213C38.5032 48.9405 38.7899 48.2866 38.7899 47.5666C38.7899 46.8468 38.5032 46.193 38.0387 45.7122C38.5335 45.227 38.8412 44.5518 38.8412 43.8058C38.8412 43.0732 38.5445 42.4085 38.0653 41.9254C38.5447 41.4423 38.8412 40.7777 38.8412 40.045C38.8412 39.6571 38.7575 39.2886 38.608 38.9557H40.4435C40.2932 40.2814 40.4887 41.477 41.0314 42.5206C41.7533 43.9084 43.0937 45.0317 45.0153 45.8593C45.1173 45.9032 45.2234 45.924 45.3278 45.924C45.6342 45.924 45.9258 45.7449 46.0548 45.4457C46.2275 45.0444 46.0423 44.579 45.6411 44.4063C42.5542 43.0768 41.4585 41.0929 42.1931 38.1626C42.4756 37.0354 42.4128 35.8832 42.0116 34.8309C41.3224 33.0225 41.2377 32.0143 41.3145 30.5645C41.3401 30.0801 41.4116 29.8165 41.452 29.7024C41.6479 29.1489 42.1782 28.5023 43.0279 28.5023H43.0324L43.1556 30.0189C43.2266 30.8896 43.5465 31.7153 44.0805 32.4065C44.1442 32.4869 45.5661 34.3365 45.6581 34.4492C45.9286 34.7923 46.4259 34.8512 46.769 34.5808C47.1121 34.3104 47.1711 33.8131 46.9006 33.4699L45.4735 31.6221H48.9895C51.7519 31.6221 53.9993 29.3747 53.9993 26.6123V24.5132C53.9993 24.0762 53.6453 23.7222 53.2083 23.7222ZM36.1696 42.7165C36.7703 42.7165 37.259 43.2052 37.259 43.8058C37.259 44.4065 36.7703 44.8952 36.1696 44.8952H31.1913C30.5906 44.8952 30.102 44.4065 30.102 43.8058C30.102 43.2052 30.5906 42.7165 31.1913 42.7165H36.1696ZM32.1025 46.4773H36.1185C36.7191 46.4773 37.2077 46.966 37.2077 47.5666C37.2077 48.1673 36.7191 48.656 36.1185 48.656H32.1025C31.5019 48.656 31.0132 48.1673 31.0132 47.5666C31.0132 46.966 31.5018 46.4773 32.1025 46.4773ZM33.5257 52.4181C32.9252 52.4177 32.4365 51.9286 32.4365 51.3281C32.4365 50.7271 32.9255 50.2381 33.5265 50.2381H36.1691C36.77 50.2381 37.2591 50.7271 37.2591 51.3281C37.2591 51.929 36.77 52.4181 36.169 52.4181H33.5257ZM37.259 40.045C37.259 40.6457 36.7703 41.1344 36.1696 41.1344H32.1538C31.5531 41.1344 31.0644 40.6457 31.0644 40.045C31.0644 39.4444 31.5531 38.9557 32.1538 38.9557H36.1696C36.7704 38.9555 37.259 39.4443 37.259 40.045Z" />
<path d="M25.8987 7.8999C26.3356 7.8999 26.6897 7.54584 26.6897 7.10889C26.6897 6.67193 26.3356 6.31787 25.8987 6.31787H23.0234C22.5866 6.31787 22.2324 6.67193 22.2324 7.10889V13.9326C22.2324 14.3696 22.5866 14.7236 23.0234 14.7236H25.8987C26.3356 14.7236 26.6897 14.3696 26.6897 13.9326C26.6897 13.4957 26.3356 13.1416 25.8987 13.1416H23.8145V11.3117H25.5772C26.014 11.3117 26.3682 10.9577 26.3682 10.5207C26.3682 10.0837 26.014 9.72968 25.5772 9.72968H23.8145V7.8998H25.8987V7.8999Z" />
<path d="M18.1259 6.31787H16.1426C15.7057 6.31787 15.3516 6.67193 15.3516 7.10889V13.9326C15.3516 14.3696 15.7057 14.7236 16.1426 14.7236H18.4723C19.9218 14.7236 21.1011 13.5425 21.1011 12.0907C21.1011 11.2452 20.6992 10.4922 20.0769 10.0112C20.336 9.6317 20.488 9.17333 20.488 8.67995C20.4881 7.37752 19.4285 6.31787 18.1259 6.31787ZM16.9337 7.8999H18.126C18.5562 7.8999 18.9061 8.24985 18.9061 8.67995C18.9061 9.11153 18.5561 9.46263 18.126 9.46263H16.9337V7.8999ZM18.4724 13.1417H16.9337V11.0448H18.4724C19.0496 11.0448 19.5192 11.514 19.5192 12.0908C19.5192 12.6703 19.0495 13.1417 18.4724 13.1417Z" />
<path d="M30.8741 13.1416C30.1786 13.1416 29.5088 12.8607 29.0823 12.39C28.7887 12.0662 28.2885 12.0417 27.9649 12.335C27.6412 12.6283 27.6166 13.1286 27.91 13.4524C28.6315 14.2485 29.7395 14.7238 30.8741 14.7238C32.2652 14.7238 33.4264 13.8092 33.6352 12.5491C33.7851 11.6446 33.3738 10.3888 31.7215 9.82591C30.9926 9.58397 30.1837 9.29699 29.9057 9.10219C29.6502 8.93987 29.667 8.6608 29.6783 8.57927C29.6968 8.44448 29.7908 8.11553 30.2616 7.97378C31.2566 7.67425 32.1723 8.39977 32.1967 8.41928C32.531 8.69698 33.0272 8.65289 33.3073 8.31971C33.5884 7.98527 33.5452 7.4863 33.2108 7.20523C33.1472 7.15186 31.6368 5.90754 29.8054 6.45903C28.8838 6.73663 28.2345 7.46647 28.1111 8.36369C27.996 9.19901 28.3585 9.99361 29.0573 10.4377C29.4815 10.7181 30.2176 10.9942 31.2115 11.3237C31.5028 11.4228 32.1698 11.7157 32.0745 12.2907C32.0062 12.703 31.5622 13.1416 30.8741 13.1416Z" />
<path d="M39.1238 6.31787H35.3555C34.9185 6.31787 34.5645 6.67193 34.5645 7.10889C34.5645 7.54584 34.9185 7.8999 35.3555 7.8999H36.441V13.9323C36.441 14.3693 36.795 14.7233 37.232 14.7233C37.6689 14.7233 38.023 14.3693 38.023 13.9323V7.8999H39.1238C39.5607 7.8999 39.9148 7.54584 39.9148 7.10889C39.9148 6.67193 39.5607 6.31787 39.1238 6.31787Z" />
<path d="M32.8984 16.8984C32.4615 16.8984 32.1074 17.2525 32.1074 17.6895V24.513C32.1074 24.9499 32.4615 25.304 32.8984 25.304C33.3354 25.304 33.6895 24.9499 33.6895 24.513V17.6895C33.6895 17.2525 33.3353 16.8984 32.8984 16.8984Z" />
<path d="M15.0312 17.6895V24.513C15.0312 24.9499 15.3854 25.304 15.8223 25.304C16.2591 25.304 16.6133 24.9499 16.6133 24.513V21.7752H19.7532V24.513C19.7532 24.9499 20.1074 25.304 20.5442 25.304C20.9811 25.304 21.3352 24.9499 21.3352 24.513V17.6895C21.3352 17.2525 20.9811 16.8984 20.5442 16.8984C20.1074 16.8984 19.7532 17.2525 19.7532 17.6895V20.1932H16.6133V17.6895C16.6133 17.2525 16.2591 16.8984 15.8223 16.8984C15.3854 16.8984 15.0312 17.2525 15.0312 17.6895Z" />
<path d="M46.5041 18.4805C46.941 18.4805 47.2951 18.1264 47.2951 17.6895C47.2951 17.2525 46.941 16.8984 46.5041 16.8984H43.6289C43.1919 16.8984 42.8379 17.2525 42.8379 17.6895V24.513C42.8379 24.9499 43.1919 25.304 43.6289 25.304H46.5041C46.941 25.304 47.2951 24.9499 47.2951 24.513C47.2951 24.076 46.941 23.7219 46.5041 23.7219H44.4199V21.8922H46.1825C46.6195 21.8922 46.9735 21.5381 46.9735 21.1012C46.9735 20.6642 46.6195 20.3101 46.1825 20.3101H44.4199V18.4804H46.5041V18.4805Z" />
<path d="M10.9099 18.4806C11.4351 18.4806 11.9415 18.6352 12.3746 18.9278C12.7366 19.1721 13.2283 19.0771 13.4729 18.7151C13.7174 18.3531 13.6223 17.8614 13.2602 17.6168C12.5648 17.1469 11.752 16.8984 10.9099 16.8984C8.59239 16.8984 6.70703 18.7838 6.70703 21.1013C6.70703 23.4187 8.59239 25.3041 10.9099 25.3041C11.9548 25.2808 12.9419 24.9191 13.6653 24.0583C13.9461 23.7235 13.9023 23.2247 13.5676 22.944C13.2329 22.6631 12.7338 22.707 12.4532 23.0418C12.1493 23.4044 11.6109 23.7201 10.9099 23.7222C9.46472 23.7222 8.28906 22.5465 8.28906 21.1014C8.28906 19.6562 9.46472 18.4806 10.9099 18.4806Z" />
<path d="M38.7477 18.4806C39.273 18.4806 39.7794 18.6352 40.2125 18.9278C40.5745 19.1721 41.0662 19.0771 41.3107 18.7151C41.5553 18.3531 41.4602 17.8614 41.0981 17.6168C40.4027 17.1469 39.5899 16.8984 38.7477 16.8984C36.4303 16.8984 34.5449 18.7838 34.5449 21.1013C34.5449 23.4187 36.4303 25.3041 38.7477 25.3041C39.7927 25.2808 40.7798 24.9191 41.5032 24.0583C41.784 23.7235 41.7402 23.2247 41.4055 22.944C41.0708 22.6631 40.5717 22.707 40.2911 23.0418C39.9872 23.4044 39.4488 23.7201 38.7477 23.7222C37.3026 23.7222 36.127 22.5465 36.127 21.1014C36.127 19.6562 37.3026 18.4806 38.7477 18.4806Z" />
<path d="M22.4688 21.1013C22.4688 23.4187 24.3541 25.3041 26.6716 25.3041C28.989 25.3041 30.8744 23.4187 30.8744 21.1013C30.8744 18.7838 28.989 16.8984 26.6716 16.8984C24.3541 16.8984 22.4688 18.7839 22.4688 21.1013ZM29.2924 21.1013C29.2924 22.5463 28.1167 23.7221 26.6716 23.7221C25.2264 23.7221 24.0508 22.5464 24.0508 21.1013C24.0508 19.6561 25.2264 18.4805 26.6716 18.4805C28.1166 18.4806 29.2924 19.6562 29.2924 21.1013Z" />
<path d="M5.34489 8.74903C4.95254 8.8062 4.63287 9.07598 4.51031 9.45303C4.38786 9.82998 4.48816 10.2362 4.77209 10.5131L6.04847 11.7572L5.74714 13.514C5.68017 13.9049 5.83785 14.2925 6.15868 14.5256C6.33998 14.6572 6.55198 14.724 6.76544 14.724C6.92987 14.724 7.09503 14.6844 7.24754 14.6041L8.82525 13.7747L10.4029 14.604C10.7537 14.7887 11.171 14.7585 11.492 14.5256C11.8129 14.2925 11.9705 13.9049 11.9036 13.514L11.6022 11.7572L12.8787 10.513C13.1625 10.2362 13.2628 9.82998 13.1403 9.45303C13.0178 9.07598 12.6981 8.8062 12.3054 8.74903L10.5415 8.49274L9.75274 6.89447C9.57724 6.53883 9.22192 6.31787 8.82535 6.31787C8.42879 6.31787 8.07347 6.53883 7.89797 6.89436L7.10917 8.49274L5.34489 8.74903ZM8.40021 9.45114L8.82525 8.58998L9.25008 9.45072C9.40058 9.75615 9.69168 9.96772 10.029 10.0169L10.9792 10.155L10.2913 10.8255C10.0476 11.0632 9.93657 11.4054 9.99416 11.7407L10.1566 12.6872L9.30671 12.2405C9.15589 12.1612 8.99062 12.1215 8.82525 12.1215C8.65977 12.1215 8.49429 12.1613 8.34357 12.2406L7.49392 12.6872L7.65634 11.7403C7.71371 11.4051 7.60255 11.063 7.35881 10.8252L6.67116 10.155L7.62175 10.0169C7.95861 9.96793 8.2496 9.75636 8.40021 9.45114Z" />
<path d="M49.49 9.60221C49.3685 9.22811 49.0511 8.96064 48.662 8.90422L46.9748 8.659L46.2205 7.13055C46.0466 6.77776 45.6941 6.55859 45.3007 6.55859C44.9073 6.55859 44.555 6.77776 44.3811 7.13034L43.6266 8.659L41.9397 8.90422C41.5505 8.96064 41.2331 9.22811 41.1115 9.60221C40.9899 9.97631 41.0896 10.3792 41.3711 10.6535L42.5919 11.8434L42.3037 13.5239C42.2372 13.9116 42.3937 14.2959 42.7119 14.5271C42.8916 14.6575 43.1019 14.7239 43.3136 14.7239C43.4766 14.7239 43.6405 14.6845 43.7917 14.6049L45.3007 13.8116L46.8095 14.6048C47.1576 14.7879 47.5713 14.7582 47.8896 14.5272C48.2079 14.2961 48.3643 13.9117 48.2977 13.524L48.0097 11.8435L49.2302 10.6537C49.5119 10.3792 49.6116 9.97631 49.49 9.60221ZM46.6956 10.915C46.4539 11.1508 46.3438 11.4901 46.401 11.8224L46.548 12.6798L45.778 12.275C45.6286 12.1964 45.4646 12.1572 45.3008 12.1572C45.1371 12.1572 44.9731 12.1964 44.8237 12.275H44.8236L44.0538 12.6798L44.201 11.8217C44.2575 11.4898 44.1475 11.1509 43.9059 10.9146L43.283 10.3075L44.1429 10.1824C44.4772 10.1342 44.7661 9.92463 44.916 9.62141L45.3008 8.84136L45.6855 9.62088C45.8349 9.92421 46.1239 10.1341 46.4578 10.1823L47.3187 10.3075L46.6956 10.915Z" />
<path d="M53.0648 38.7606C51.4301 38.7606 49.8667 37.964 48.8827 36.6297C48.6235 36.2781 48.128 36.2032 47.7767 36.4626C47.425 36.7219 47.3503 37.2171 47.6095 37.5686C48.8693 39.303 51.0474 40.3895 53.2082 40.3427C53.6452 40.3427 53.9992 39.9886 53.9992 39.5516C53.9992 39.1147 53.6452 38.7606 53.2082 38.7606H53.0648Z" />
<path d="M48.9904 0H10.6719C10.235 0 9.88086 0.354059 9.88086 0.791016C9.88086 1.22797 10.235 1.58203 10.6719 1.58203H48.9904C50.8805 1.58203 52.4181 3.11966 52.4181 5.00977V20.8216C52.4181 21.2586 52.7722 21.6127 53.2091 21.6127C53.6461 21.6127 54.0001 21.2586 54.0001 20.8216V5.00977C54.0001 2.24743 51.7527 0 48.9904 0Z" />
<path d="M24.1031 41.4703C24.3647 41.0575 24.5168 40.5688 24.5168 40.0449C24.5168 38.5718 23.3185 37.3735 21.8455 37.3735C19.5917 37.3742 15.5193 37.3743 13.2626 37.3735C13.1611 36.6952 13.2281 36.0182 13.4659 35.3942C14.0086 33.9706 14.2495 32.9018 14.2829 31.6219H17.028C17.4649 31.6219 17.8191 31.2678 17.8191 30.8308C17.8191 30.3939 17.4649 30.0398 17.028 30.0398H14.227C14.1876 29.7082 14.1249 29.4178 14.0389 29.1746C13.5545 27.805 12.3505 26.9201 10.9715 26.9201C10.7572 26.9201 10.5707 26.9499 10.4008 27.0116C9.83876 27.2162 9.44346 27.7333 9.39379 28.3303C9.36257 28.6646 9.28347 29.7926 9.2494 30.0398H5.00977C3.11977 30.0398 1.58203 28.5022 1.58203 26.6121V5.00977C1.58203 3.11966 3.11977 1.58203 5.00977 1.58203H6.98034C7.4172 1.58203 7.77136 1.22797 7.77136 0.791016C7.77136 0.354059 7.4172 0 6.98034 0H5.00977C2.24743 0 1.15387e-06 2.24743 1.15387e-06 5.00977V26.6121C1.15387e-06 29.3744 2.24743 31.6219 5.00977 31.6219H8.52588L7.16407 33.3874C6.50363 34.2144 6.00655 34.9865 5.64427 35.748C4.77373 37.5782 2.92497 38.7606 0.934349 38.7606C0.497497 38.7606 0.143333 39.1147 0.143333 39.5516C0.143333 39.9886 0.497497 40.3426 0.934349 40.3426C3.53204 40.3426 5.94158 38.8059 7.07284 36.4276C7.38302 35.7756 7.8185 35.1025 8.40417 34.3695C8.40702 34.366 8.40976 34.3626 8.41261 34.3589L9.9186 32.4064C10.4529 31.7149 10.7729 30.8892 10.8438 30.0183L10.9671 28.5019H10.9715C11.8214 28.5019 12.3516 29.1483 12.5474 29.702C12.5877 29.816 12.6593 30.0797 12.6848 30.5641C12.7616 32.014 12.6768 33.0223 11.9876 34.8304C11.5865 35.8829 11.5238 37.0349 11.8063 38.1622C12.5407 41.0924 11.445 43.0764 8.35808 44.4058C7.95688 44.5787 7.77168 45.044 7.94454 45.4452C8.07342 45.7444 8.36504 45.9235 8.67143 45.9235C8.77584 45.9235 8.88205 45.9027 8.98393 45.8589C10.9055 45.0312 12.2459 43.9079 12.9678 42.5201C13.5107 41.4765 13.7061 40.2809 13.5558 38.9552H15.3914C15.242 39.2882 15.1582 39.6567 15.1582 40.0446C15.1582 40.7773 15.4549 41.4419 15.9341 41.925C15.4549 42.4081 15.1582 43.0727 15.1582 43.8054C15.1582 44.5514 15.4658 45.2266 15.9606 45.7117C15.496 46.1926 15.2093 46.8464 15.2093 47.5662C15.2093 48.2861 15.4961 48.9399 15.9608 49.4209C15.4659 49.9061 15.1582 50.5814 15.1582 51.3276C15.1582 51.7158 15.242 52.0845 15.3916 52.4177H12.9143C11.6073 52.4177 10.3193 52.0702 9.18949 51.413C7.54682 50.4572 5.67527 49.9525 3.7762 49.9525C3.75648 49.9524 0.840587 49.9571 0.789751 49.9571C0.3529 49.9577 -0.000737127 50.3124 1.15387e-06 50.7494C0.000633966 51.1858 0.354693 51.5391 0.791017 51.5391C0.828669 51.5391 3.7106 51.5346 3.77547 51.5346C5.3961 51.5346 6.99279 51.9651 8.39405 52.7804C9.76514 53.578 11.3282 53.9998 12.9144 53.9998H20.4741H20.4747C21.947 53.9987 23.1448 52.8001 23.1448 51.3277C23.1448 50.8731 23.0304 50.4447 22.8292 50.0695C23.8437 49.6903 24.5681 48.7115 24.5681 47.5663C24.5681 47.0333 24.4105 46.5366 24.1405 46.1193C24.9399 45.6571 25.4794 44.7933 25.4794 43.8055C25.4794 42.8024 24.9231 41.9269 24.1031 41.4703ZM22.808 44.8951H17.8296C17.229 44.8951 16.7403 44.4064 16.7403 43.8057C16.7403 43.2051 17.229 42.7163 17.8296 42.7163H22.808C23.4087 42.7163 23.8973 43.2051 23.8973 43.8057C23.8973 44.4064 23.4087 44.8951 22.808 44.8951ZM22.9349 40.0449C22.9349 40.6455 22.4463 41.1343 21.8456 41.1343H17.8297C17.2291 41.1343 16.7404 40.6455 16.7404 40.0449C16.7404 39.4443 17.2291 38.9555 17.8297 38.9555H21.8456C22.4462 38.9554 22.9349 39.4442 22.9349 40.0449ZM20.4736 52.418H17.8303C17.2294 52.418 16.7404 51.9289 16.7404 51.328C16.7404 50.727 17.2294 50.2379 17.8303 50.2379H20.473C21.0739 50.2379 21.5629 50.727 21.5629 51.328C21.5628 51.9285 21.0741 52.4175 20.4736 52.418ZM21.8968 48.6559H17.8809C17.2802 48.6559 16.7915 48.1672 16.7915 47.5665C16.7915 46.9659 17.2801 46.4771 17.8809 46.4771H21.8968C22.4974 46.4771 22.9861 46.9659 22.9861 47.5665C22.9861 48.1672 22.4974 48.6559 21.8968 48.6559Z" />
</svg>
