<svg width="63" height="64" viewBox="0 0 63 64"  xmlns="http://www.w3.org/2000/svg">
    <path d="M30.4483 0C13.4017 0 1 12.4064 1 29.4483C1 46.4902 13.4017 61 30.4483 61C47.4948 61 62 46.4902 62 29.4483C62 12.4064 47.4948 0 30.4483 0ZM40.9655 29.4483L26.2414 42.069C26.1589 42.1282 26.3427 42.0614 26.2414 42.069C26.1401 42.0766 24.2284 42.1152 24.1379 42.069C24.0475 42.0227 24.191 42.1556 24.1379 42.069C24.0849 41.9824 24.1381 40.0671 24.1379 39.9655V18.931C24.1376 18.8293 24.085 19.0179 24.1379 18.931C24.1909 18.8441 24.0473 18.9774 24.1379 18.931C24.2285 18.8847 26.1399 18.9232 26.2414 18.931C26.3429 18.9389 26.159 18.8712 26.2414 18.931L40.9655 29.4483C40.9255 29.371 41.0366 29.4985 40.9655 29.4483C40.9655 29.3612 41.0055 29.5256 40.9655 29.4483C41.0055 29.371 40.9655 29.5353 40.9655 29.4483C41.0366 29.398 40.9255 29.5256 40.9655 29.4483Z"/>
</svg>
