<svg width="54" height="56" viewBox="0 0 54 56" xmlns="http://www.w3.org/2000/svg">
<path d="M52.136 0H20.6502C20.0169 0 19.5017 0.515156 19.5017 1.14844V3.71864H16.9315C16.2983 3.71864 15.7831 4.2338 15.7831 4.86708V14.9363L3.73609 20.957C3.08323 21.2833 2.67767 21.9393 2.67767 22.6692V28.9816C2.67767 31.1233 2.93098 33.0343 3.41333 34.7671C1.76395 36.1892 0.716797 38.2915 0.716797 40.6351C0.716797 44.908 4.19306 48.3842 8.46591 48.3842C9.48003 48.3842 10.4483 48.1864 11.3369 47.8306V52.2306C11.3369 52.7192 11.6254 53.1629 12.072 53.3611C12.5184 53.5593 13.0413 53.4755 13.4035 53.1478L16.4118 50.4265L19.4201 53.1478C19.6519 53.3575 19.9493 53.4672 20.2504 53.4672C20.4199 53.4672 20.5908 53.4324 20.7517 53.361C21.1983 53.1627 21.4868 52.719 21.4868 52.2305V45.7663H27.6568C28.11 45.7663 28.4772 45.399 28.4772 44.946C28.4772 44.493 28.11 44.1257 27.6568 44.1257H23.1309C24.8694 42.6377 26.3212 41.0415 27.445 39.2401H41.8224C42.2756 39.2401 42.6427 38.8729 42.6427 38.4198C42.6427 37.9668 42.2756 37.5995 41.8224 37.5995H28.3474C28.6706 36.9265 28.9528 36.2252 29.1914 35.491H31.9225C32.3756 35.491 32.7428 35.1237 32.7428 34.6707C32.7428 34.2176 32.3756 33.8504 31.9225 33.8504H29.6408C29.7917 33.1752 29.909 32.4728 29.9927 31.7418H41.8223C42.2755 31.7418 42.6426 31.3745 42.6426 30.9215C42.6426 30.4685 42.2755 30.1012 41.8223 30.1012H30.1192C30.1351 29.7344 30.1456 29.3627 30.1456 28.9815V27.9927H41.8223C42.2755 27.9927 42.6426 27.6254 42.6426 27.1724C42.6426 26.7193 42.2755 26.352 41.8223 26.352H30.1457V24.2435H34.3287C34.7819 24.2435 35.149 23.8762 35.149 23.4232C35.149 22.9702 34.7819 22.6029 34.3287 22.6029H30.1434C30.1196 21.8998 29.7202 21.2732 29.0872 20.9569L28.1618 20.4944H41.8223C42.2755 20.4944 42.6426 20.1271 42.6426 19.674C42.6426 19.221 42.2755 18.8537 41.8223 18.8537H24.879L17.4236 15.1277V5.35927H47.9251V11.4844C47.9251 11.9374 48.2923 12.3047 48.7454 12.3047C49.1986 12.3047 49.5658 11.9374 49.5658 11.4844V4.86708C49.5658 4.2338 49.0506 3.71864 48.4173 3.71864H21.1424V1.64063H51.6439V40.4072H49.5658V15.3125C49.5658 14.8595 49.1986 14.4922 48.7454 14.4922C48.2923 14.4922 47.9251 14.8595 47.9251 15.3125V44.1258H31.485C31.0318 44.1258 30.6647 44.4931 30.6647 44.9461C30.6647 45.3992 31.0318 45.7664 31.485 45.7664H48.4173C49.0506 45.7664 49.5658 45.2513 49.5658 44.618V42.0478H52.136C52.7692 42.0478 53.2844 41.5326 53.2844 40.8994V1.14844C53.2844 0.515156 52.7692 0 52.136 0V0ZM2.35742 40.6351C2.35742 37.2669 5.0977 34.5266 8.46591 34.5266C11.8341 34.5266 14.5744 37.2669 14.5744 40.6351C14.5744 44.0033 11.8341 46.7436 8.46591 46.7436C5.0977 46.7436 2.35742 44.0033 2.35742 40.6351ZM17.2414 48.9648C16.7683 48.5369 16.0548 48.5369 15.582 48.9648L12.9774 51.3209V46.9295C14.9359 45.5218 16.2149 43.2258 16.2149 40.6352C16.2149 39.9281 16.1179 39.2436 15.9396 38.5923C16.096 38.6013 16.2531 38.6075 16.4117 38.6075C17.6348 38.6075 18.7966 38.3427 19.8459 37.8708V51.3209L17.2414 48.9648ZM28.505 22.6692V28.9816C28.505 33.3014 27.428 36.7153 25.1158 39.7254C24.1506 40.9819 22.9793 42.1658 21.4866 43.3731V36.8963C23.5074 35.3602 24.8152 32.9324 24.8152 30.2039C24.8152 28.8545 24.4856 27.5107 23.8621 26.3176C23.6523 25.9161 23.1566 25.7608 22.7551 25.9705C22.3536 26.1803 22.1982 26.676 22.408 27.0775C22.9166 28.0508 23.1745 29.1027 23.1745 30.204C23.1745 33.933 20.1408 36.9669 16.4117 36.9669C16.009 36.9669 15.6145 36.9307 15.2311 36.8627C14.1942 35.0106 12.4198 33.6261 10.3077 33.1091C9.88625 32.2284 9.6488 31.2437 9.6488 30.204C9.6488 26.475 12.6825 23.4411 16.4117 23.4411C17.7307 23.4411 19.01 23.8225 20.1114 24.544C20.49 24.7923 20.9988 24.6864 21.247 24.3073C21.4953 23.9283 21.3893 23.4198 21.0103 23.1716C19.6412 22.2747 18.051 21.8005 16.4117 21.8005C11.778 21.8005 8.00817 25.5702 8.00817 30.204C8.00817 31.1419 8.16381 32.0438 8.44917 32.8866C7.15144 32.8893 5.9283 33.2137 4.85347 33.7827C4.49505 32.3064 4.3183 30.7182 4.3183 28.9818V22.6693C4.3183 22.565 4.37616 22.4713 4.46945 22.4247L16.4116 16.4562L28.3538 22.4247C28.4471 22.4712 28.505 22.5649 28.505 22.6692Z" />
<path d="M22.707 15.9253C22.707 16.3783 23.0743 16.7456 23.5273 16.7456H41.8233C42.2764 16.7456 42.6436 16.3783 42.6436 15.9253C42.6436 15.4723 42.2764 15.105 41.8233 15.105H23.5273C23.0742 15.105 22.707 15.4722 22.707 15.9253Z" />
<path d="M41.8217 22.603H37.3906C36.9375 22.603 36.5703 22.9703 36.5703 23.4233C36.5703 23.8764 36.9375 24.2437 37.3906 24.2437H41.8218C42.275 24.2437 42.6422 23.8764 42.6422 23.4233C42.6422 22.9703 42.2749 22.603 41.8217 22.603Z" />
<path d="M41.8217 33.8506H34.875C34.4219 33.8506 34.0547 34.2179 34.0547 34.6709C34.0547 35.1239 34.4219 35.4912 34.875 35.4912H41.8218C42.275 35.4912 42.6422 35.1239 42.6422 34.6709C42.6422 34.2179 42.2749 33.8506 41.8217 33.8506Z" />
<path d="M38.2983 11.3301C38.7514 11.3301 39.1186 10.9628 39.1186 10.5098C39.1186 10.0567 38.7514 9.68945 38.2983 9.68945H27.0508C26.5978 9.68945 26.2305 10.0567 26.2305 10.5098C26.2305 10.9628 26.5978 11.3301 27.0508 11.3301H38.2983Z" />
<path d="M18.9442 28.2969L16.0204 31.2207L14.1073 29.3076C13.787 28.9873 13.2676 28.9873 12.9473 29.3076C12.6269 29.628 12.6269 30.1474 12.9473 30.4677L15.4404 32.9608C15.6005 33.121 15.8105 33.2011 16.0204 33.2011C16.2303 33.2011 16.4403 33.121 16.6004 32.9608L20.1044 29.4569C20.4247 29.1366 20.4247 28.6172 20.1044 28.2969C19.7839 27.9766 19.2645 27.9766 18.9442 28.2969Z" />
<path d="M31.4673 49.5836L29.7865 49.3394L29.035 47.8165C29.035 47.8165 29.035 47.8163 29.0349 47.8163C28.825 47.3911 28.4 47.127 27.9257 47.127C27.4516 47.127 27.0266 47.3911 26.8166 47.8165L26.0649 49.3394L24.3842 49.5836C23.9148 49.6519 23.5323 49.9744 23.3857 50.4254C23.2391 50.8764 23.359 51.3622 23.6987 51.6934L24.9149 52.8789L24.6278 54.5528C24.5476 55.0202 24.7361 55.4838 25.1198 55.7625C25.3366 55.92 25.5903 56.0001 25.8458 56.0001C26.0423 56.0001 26.2399 55.9526 26.4225 55.8567L27.9257 55.0664L29.429 55.8567C29.8488 56.0772 30.3476 56.0413 30.7315 55.7625C31.1152 55.4839 31.3038 55.0203 31.2236 54.5528L30.9365 52.8789L32.1528 51.6934C32.4923 51.3624 32.6122 50.8765 32.4657 50.4255C32.3192 49.9745 31.9367 49.6519 31.4673 49.5836ZM29.6394 51.8523C29.3478 52.1365 29.2148 52.5457 29.2837 52.9471L29.4684 54.0239L28.5014 53.5157C28.3211 53.4208 28.1234 53.3735 27.9256 53.3735C27.7279 53.3735 27.5303 53.4208 27.3501 53.5155L26.3831 54.0239L26.5677 52.9471C26.6365 52.5457 26.5035 52.1364 26.2119 51.8523L25.4296 51.0897L26.5108 50.9325C26.9136 50.874 27.2617 50.6212 27.4421 50.2558L27.9255 49.2762L28.4091 50.2558C28.5892 50.621 28.9375 50.874 29.3405 50.9325L30.4217 51.0897L29.6394 51.8523Z"/>
<path d="M41.6175 49.5836L39.9368 49.3394L39.1853 47.8165C39.1853 47.8165 39.1853 47.8163 39.1852 47.8163C38.9753 47.3911 38.5503 47.127 38.076 47.127C37.6019 47.127 37.1768 47.3911 36.9668 47.8165L36.2153 49.3394L34.5344 49.5836C34.0651 49.6519 33.6826 49.9744 33.5361 50.4255C33.3895 50.8765 33.5095 51.3623 33.849 51.6934L35.0652 52.8789L34.7781 54.5526C34.6978 55.02 34.8863 55.4835 35.2699 55.7624C35.6535 56.0413 36.1526 56.0774 36.5728 55.8567L38.0759 55.0664L39.5791 55.8567C39.7618 55.9526 39.9593 56.0001 40.1559 56.0001C40.4112 56.0001 40.6648 55.92 40.8817 55.7625C41.2654 55.4839 41.4539 55.0203 41.3738 54.5528L41.0867 52.8789L42.3029 51.6934C42.6424 51.3624 42.7624 50.8765 42.6158 50.4255C42.4695 49.9745 42.0869 49.6519 41.6175 49.5836ZM39.7897 51.8523C39.4981 52.1365 39.3651 52.5457 39.434 52.9471L39.6186 54.0239L38.6516 53.5157C38.4714 53.4208 38.2736 53.3735 38.0759 53.3735C37.8781 53.3735 37.6806 53.4208 37.5004 53.5155L36.5333 54.0239L36.718 52.9471C36.7868 52.5458 36.6538 52.1365 36.3622 51.8523L35.5798 51.0897L36.661 50.9325C37.0641 50.874 37.4122 50.621 37.5925 50.2558L38.0759 49.2762L38.5594 50.2558C38.7396 50.621 39.0878 50.874 39.4909 50.9325L40.572 51.0897L39.7897 51.8523Z"/>
<path d="M51.7678 49.5836L50.0872 49.3394L49.3357 47.8165C49.3357 47.8165 49.3357 47.8163 49.3356 47.8163C49.1257 47.3911 48.7006 47.127 48.2265 47.127C47.7523 47.127 47.3272 47.3911 47.1172 47.8165L46.3657 49.3394L44.6848 49.5836C44.2155 49.6519 43.833 49.9744 43.6865 50.4255C43.5399 50.8765 43.6599 51.3624 43.9994 51.6934L45.2156 52.8789L44.9285 54.5526C44.8482 55.02 45.0367 55.4836 45.4204 55.7624C45.6372 55.92 45.8909 56.0001 46.1463 56.0001C46.343 56.0001 46.5405 55.9526 46.723 55.8567L48.2263 55.0664L49.7295 55.8567C50.1493 56.0772 50.6482 56.0413 51.0321 55.7625C51.4158 55.4839 51.6043 55.0203 51.5242 54.5528L51.237 52.8789L52.4534 51.6932C52.7929 51.3622 52.9128 50.8763 52.7661 50.4254C52.6198 49.9744 52.2372 49.6519 51.7678 49.5836ZM49.9404 51.852C49.6486 52.1361 49.5155 52.5455 49.5844 52.9471L49.769 54.0239L48.802 53.5157C48.6219 53.4208 48.4241 53.3735 48.2264 53.3735C48.0286 53.3735 47.831 53.4208 47.6506 53.5155L46.6837 54.0239L46.8684 52.9471C46.9372 52.5458 46.8042 52.1365 46.5126 51.8523L45.7302 51.0897L46.8114 50.9325C47.2141 50.874 47.5622 50.6213 47.7428 50.2558L48.2264 49.2762L48.7098 50.2558C48.89 50.621 49.2382 50.874 49.6413 50.9325L50.7224 51.0897L49.9404 51.852Z"/>
<path d="M11.6616 38.7737L10.1937 38.5603L9.53724 37.2301C9.33446 36.8192 8.92398 36.564 8.46581 36.564C8.00763 36.564 7.59704 36.8192 7.39437 37.2301L6.7379 38.5603L5.27009 38.7736C4.81673 38.8394 4.44715 39.151 4.30551 39.5867C4.16387 40.0224 4.2797 40.4917 4.60782 40.8115L5.67007 41.847L5.41938 43.3089C5.34195 43.7605 5.52406 44.2083 5.89473 44.4777C6.10418 44.6298 6.34918 44.7072 6.59593 44.7072C6.78581 44.7072 6.97667 44.6613 7.15309 44.5686L8.46603 43.8783L9.77896 44.5686C10.1845 44.7819 10.6667 44.747 11.0373 44.4777C11.408 44.2084 11.5901 43.7605 11.5127 43.309L11.262 41.847L12.3242 40.8115C12.6524 40.4917 12.7682 40.0224 12.6265 39.5867C12.4845 39.151 12.1149 38.8395 11.6616 38.7737ZM9.9486 40.8358C9.66696 41.1104 9.53845 41.5057 9.60495 41.8934L9.74265 42.6962L9.02176 42.3172C8.67362 42.1342 8.25788 42.1342 7.90974 42.3172L7.18885 42.6962L7.32656 41.8934C7.39306 41.5057 7.26454 41.1104 6.9829 40.8359L6.3996 40.2674L7.20526 40.1503C7.59474 40.0938 7.93118 39.8495 8.1052 39.4966L8.4657 38.7662L8.82609 39.4964C9.0001 39.8494 9.33654 40.0937 9.72581 40.1502L10.5318 40.2673L9.9486 40.8358Z"/>
</svg>
