<svg width="53" height="53" viewBox="0 0 53 53" xmlns="http://www.w3.org/2000/svg">
<path d="M3 27H26V45L16 44.5L10 41.5L6 44.5L3 45V27Z"/>
<path d="M26.5 32H36L40 46L31.5 41.5L26.5 43.5V32Z"/>
<path d="M31.629 44.4517C30.2151 44.4517 29.0645 45.6023 29.0645 47.0162C29.0645 48.4301 30.2151 49.5807 31.629 49.5807C33.0429 49.5807 34.1935 48.4301 34.1935 47.0162C34.1935 45.6023 33.0429 44.4517 31.629 44.4517ZM31.629 47.871C31.158 47.871 30.7741 47.488 30.7741 47.0162C30.7741 46.5443 31.158 46.1613 31.629 46.1613C32.1 46.1613 32.4838 46.5443 32.4838 47.0162C32.4838 47.488 32.1 47.871 31.629 47.871Z"/>
<path d="M11.1133 44.4517C9.69944 44.4517 8.54883 45.6023 8.54883 47.0162C8.54883 48.4301 9.69944 49.5807 11.1133 49.5807C12.5272 49.5807 13.6779 48.4301 13.6779 47.0162C13.6779 45.6023 12.5272 44.4517 11.1133 44.4517ZM11.1133 47.871C10.6423 47.871 10.2585 47.488 10.2585 47.0162C10.2585 46.5443 10.6423 46.1613 11.1133 46.1613C11.5844 46.1613 11.9682 46.5443 11.9682 47.0162C11.9682 47.488 11.5844 47.871 11.1133 47.871Z"/>
<path d="M12.8223 13.6774C14.2362 13.6774 15.3868 12.5268 15.3868 11.1129C15.3868 9.69895 14.2362 8.54834 12.8223 8.54834C11.4084 8.54834 10.2578 9.69895 10.2578 11.1129C10.2578 12.5268 11.4084 13.6774 12.8223 13.6774ZM12.8223 10.258C13.2933 10.258 13.6772 10.641 13.6772 11.1129C13.6772 11.5847 13.2933 11.9677 12.8223 11.9677C12.3513 11.9677 11.9675 11.5847 11.9675 11.1129C11.9675 10.641 12.3513 10.258 12.8223 10.258Z"/>
<path d="M47.0157 30.7744C45.6018 30.7744 44.4512 31.925 44.4512 33.3389C44.4512 34.7528 45.6018 35.9034 47.0157 35.9034C48.4296 35.9034 49.5802 34.7528 49.5802 33.3389C49.5802 31.925 48.4296 30.7744 47.0157 30.7744ZM47.0157 34.1938C46.5447 34.1938 46.1608 33.8108 46.1608 33.3389C46.1608 32.8671 46.5447 32.4841 47.0157 32.4841C47.4867 32.4841 47.8705 32.8671 47.8705 33.3389C47.8705 33.8108 47.4867 34.1938 47.0157 34.1938Z"/>
<path d="M47.8334 27.4172C47.8462 27.1112 47.871 26.8052 47.871 26.5C47.871 22.6036 46.8075 18.8159 44.8106 15.4982C45.6851 13.9595 46.1613 12.2045 46.1613 10.4256V10.2581C46.1613 4.6016 41.5597 0 35.9032 0C32.1095 0 28.797 2.07555 27.0223 5.14613C23.7081 5.07005 20.3435 5.777 17.3396 7.20031C16.2411 5.93429 14.6254 5.12903 12.8226 5.12903C9.5229 5.12903 6.83871 7.81408 6.83871 11.1129C6.83871 12.4003 7.26442 13.6749 8.03548 14.7024L8.38939 15.1742C6.41385 18.3277 5.30769 21.9172 5.16066 25.6452H3.41935C2.47647 25.6452 1.70968 26.412 1.70968 27.3548V44.4516C0.76679 44.4516 0 45.2184 0 46.1613V47.871C0 48.8139 0.76679 49.5806 1.70968 49.5806H5.7146C6.67715 51.5989 8.73218 53 11.1129 53C13.4936 53 15.5487 51.5989 16.5112 49.5806H26.2307C27.1933 51.5989 29.2483 53 31.629 53C34.0098 53 36.0648 51.5989 37.0273 49.5806H39.3226C40.2655 49.5806 41.0323 48.8139 41.0323 47.871V45.5167C41.0323 45.3082 41.0066 45.0996 40.9562 44.8944L40.4091 42.706C41.6828 41.6127 42.8189 40.38 43.8011 39.0242L47.0161 43.3121L51.8032 36.929C52.5751 35.9007 53 34.6252 53 33.3387C53 30.3177 50.7467 27.8182 47.8334 27.4172ZM35.9032 1.70968C40.6168 1.70968 44.4516 5.54448 44.4516 10.2581V10.4248C44.4516 12.331 43.8028 14.2074 42.6248 15.706L35.9032 24.262L29.1816 15.706C28.0037 14.2074 27.3548 12.3319 27.3548 10.4248V10.2581C27.3548 5.54448 31.1896 1.70968 35.9032 1.70968ZM12.8226 6.83871C15.1794 6.83871 17.0968 8.75611 17.0968 11.1129C17.0968 12.0319 16.7933 12.9431 16.2419 13.6766L12.8226 18.2363L9.40323 13.6766C8.85186 12.9431 8.54839 12.0319 8.54839 11.1129C8.54839 8.75611 10.4658 6.83871 12.8226 6.83871ZM3.41935 27.3548H10.2581V33.867L14.5323 31.7299L18.8065 33.867V27.3548H25.6452V44.4516H16.5112C15.5487 42.4333 13.4936 41.0323 11.1129 41.0323C8.73218 41.0323 6.67715 42.4333 5.7146 44.4516H3.41935V27.3548ZM11.9677 27.3548H17.0968V31.1007L14.5323 29.8185L11.9677 31.1007V27.3548ZM27.3548 32.4839H35.4228C35.8152 32.4839 36.1571 32.7506 36.252 33.131L36.5179 34.1936H32.4839C31.541 34.1936 30.7742 34.9603 30.7742 35.9032V37.6129C30.7742 38.5558 31.541 39.3226 32.4839 39.3226H37.8001L39.0824 44.4516H37.0273C36.0648 42.4333 34.0098 41.0323 31.629 41.0323C29.9553 41.0323 28.4422 41.7247 27.3548 42.8368V32.4839ZM37.3727 37.6129H32.4839V35.9032H36.9453L37.3727 37.6129ZM1.70968 47.871V46.1613H5.19742C5.15724 46.4417 5.12903 46.7255 5.12903 47.0161C5.12903 47.3068 5.15724 47.5906 5.19742 47.871H1.70968ZM11.1129 51.2903C8.75611 51.2903 6.83871 49.3729 6.83871 47.0161C6.83871 44.6593 8.75611 42.7419 11.1129 42.7419C13.4697 42.7419 15.3871 44.6593 15.3871 47.0161C15.3871 49.3729 13.4697 51.2903 11.1129 51.2903ZM17.0284 47.871C17.0686 47.5906 17.0968 47.3068 17.0968 47.0161C17.0968 46.7255 17.0686 46.4417 17.0284 46.1613H25.7135C25.6734 46.4417 25.6452 46.7255 25.6452 47.0161C25.6452 47.3068 25.6734 47.5906 25.7135 47.871H17.0284ZM31.629 51.2903C29.2722 51.2903 27.3548 49.3729 27.3548 47.0161C27.3548 44.6593 29.2722 42.7419 31.629 42.7419C33.9858 42.7419 35.9032 44.6593 35.9032 47.0161C35.9032 49.3729 33.9858 51.2903 31.629 51.2903ZM37.5445 47.871C37.5847 47.5906 37.6129 47.3068 37.6129 47.0161C37.6129 46.7255 37.5847 46.4417 37.5445 46.1613H39.3226V47.871H37.5445ZM39.9423 40.8399L37.9112 32.7164C37.6249 31.5735 36.6016 30.7742 35.4228 30.7742H27.3548V27.3548C27.3548 26.412 26.588 25.6452 25.6452 25.6452H6.86948C7.00626 22.46 7.89871 19.386 9.49127 16.6446L12.8226 21.0863L17.6097 14.7032C18.3816 13.6749 18.8065 12.3994 18.8065 11.1129C18.8065 10.2333 18.6107 9.39981 18.2679 8.64669C20.7726 7.48668 23.4482 6.88145 26.2401 6.8464C25.8623 7.91581 25.6452 9.06044 25.6452 10.2581V10.4248C25.6452 12.7132 26.4239 14.9648 27.837 16.7625L35.9032 27.0283L43.7421 17.0515C45.3261 19.9374 46.1613 23.1772 46.1613 26.5C46.1613 26.8086 46.1374 27.1189 46.1237 27.4292C43.2471 27.8626 41.0323 30.3434 41.0323 33.3387C41.0323 34.6261 41.458 35.9007 42.229 36.9282L42.7223 37.5864C41.9127 38.7687 40.9869 39.8611 39.9423 40.8399ZM50.4355 35.9024L47.0161 40.4621L43.5968 35.9024C43.0454 35.1689 42.7419 34.2577 42.7419 33.3387C42.7419 30.9819 44.6593 29.0645 47.0161 29.0645C49.3729 29.0645 51.2903 30.9819 51.2903 33.3387C51.2903 34.2577 50.9869 35.1689 50.4355 35.9024Z"/>
<path d="M35.9032 17.0969C39.6739 17.0969 42.7419 14.0288 42.7419 10.2581C42.7419 6.48745 39.6739 3.41943 35.9032 3.41943C32.1325 3.41943 29.0645 6.48745 29.0645 10.2581C29.0645 14.0288 32.1325 17.0969 35.9032 17.0969ZM35.9032 5.12911C38.7318 5.12911 41.0322 7.42948 41.0322 10.2581C41.0322 13.0868 38.7318 15.3872 35.9032 15.3872C33.0745 15.3872 30.7741 13.0868 30.7741 10.2581C30.7741 7.42948 33.0745 5.12911 35.9032 5.12911Z"/>
<path d="M20.5156 22.2256H22.2253V23.9353H20.5156V22.2256Z"/>
<path d="M23.9355 22.2256H25.6452V23.9353H23.9355V22.2256Z"/>
<path d="M27.3555 22.2256H29.0651V23.9353H27.3555V22.2256Z"/>
</svg>
