<svg width="33" height="33" viewBox="0 0 33 33" xmlns="http://www.w3.org/2000/svg">
<path d="M16.5003 8.85297C18.2173 8.85297 19.8398 9.40913 21.1918 10.4613C21.4025 10.6254 21.7061 10.5874 21.87 10.3767C22.0342 10.1659 21.9962 9.86231 21.7854 9.69841C20.262 8.51283 18.4344 7.88617 16.5003 7.88617C11.7506 7.88617 7.88672 11.7503 7.88672 16.5C7.88672 20.6393 10.8216 24.1054 14.7195 24.9282C14.7303 24.9307 14.7414 24.9333 14.7525 24.9353C15.9001 25.1727 17.0957 25.1737 18.2481 24.9353C18.2591 24.9333 18.2702 24.931 18.281 24.9282C22.1789 24.1054 25.1141 20.6393 25.1141 16.5C25.1141 14.6555 24.5388 12.8961 23.4506 11.412C23.2928 11.1967 22.9904 11.1501 22.7751 11.308C22.5596 11.4658 22.513 11.7685 22.6709 11.9837C23.6367 13.3007 24.1473 14.8625 24.1473 16.5C24.1473 19.9716 21.8214 22.91 18.6464 23.8398V19.1524C19.1036 18.9258 19.5271 18.6264 19.9012 18.2576C22.1339 16.0556 21.7313 12.3153 19.0084 10.6645C18.7473 10.5061 18.42 10.5008 18.1542 10.6506C17.8885 10.8002 17.7236 11.0824 17.7236 11.387V14.1759L16.4693 15.3748L15.2769 14.1824V11.387C15.2769 11.0824 15.112 10.8002 14.8464 10.6506C14.5805 10.5008 14.253 10.5063 13.9916 10.6647C11.3141 12.2884 10.8219 16.0377 13.1298 18.2785C13.4962 18.6342 13.9096 18.9245 14.3542 19.1463V20.7665C14.3542 21.0333 14.5707 21.2499 14.8376 21.2499C15.1047 21.2499 15.321 21.0333 15.321 20.7665V19.5059C16.1002 19.7025 16.9142 19.699 17.6796 19.5086V24.0558C17.4507 24.0913 17.2186 24.1165 16.9837 24.1311V21.4108C16.9837 21.1439 16.7672 20.9274 16.5003 20.9274C16.2334 20.9274 16.0169 21.1439 16.0169 21.4108V24.1311C15.782 24.1163 15.5498 24.0913 15.321 24.0558V23.0223C15.321 22.7552 15.1047 22.5389 14.8376 22.5389C14.5707 22.5389 14.3542 22.7552 14.3542 23.0223V23.8398C11.1791 22.91 8.85326 19.9716 8.85326 16.5C8.85326 12.2833 12.2836 8.85297 16.5003 8.85297ZM15.0695 18.4117C15.0385 18.3948 15.0055 18.3817 14.971 18.3716C13.6409 17.8004 12.6917 16.5065 12.627 14.978C12.5699 13.6346 13.2104 12.3634 14.3101 11.6093V14.2406C14.3101 14.4614 14.396 14.6689 14.5521 14.825L15.8829 16.1556C16.1979 16.4708 16.716 16.4766 17.0378 16.1686L18.4351 14.8333C18.5973 14.6782 18.6902 14.4604 18.6902 14.2361V11.6091C19.7506 12.3337 20.377 13.5142 20.377 14.8086C20.377 16.4501 19.3684 17.8135 17.9943 18.388C17.9789 18.3938 17.9638 18.4001 17.9492 18.4074C17.0655 18.7636 16.0264 18.7921 15.0695 18.4117Z" fill="white"/>
<path d="M31.7709 12.8569L28.6013 12.4742C28.513 12.4636 28.4389 12.4024 28.408 12.3146C28.2556 11.8813 28.0766 11.4508 27.8762 11.0343C27.8377 10.9543 27.8463 10.8626 27.8989 10.7956L29.8743 8.27795C30.3098 7.72254 30.262 6.92745 29.763 6.42819L26.5718 3.23701C26.0725 2.738 25.2775 2.69016 24.7221 3.12572L22.2044 5.10136C22.1371 5.15373 22.0457 5.16254 21.9657 5.12377C21.5495 4.92336 21.1187 4.74435 20.6857 4.59203C20.5976 4.56107 20.5364 4.48705 20.5258 4.39867L20.1431 1.22914C20.0585 0.528465 19.4623 0 18.7566 0H14.2434C13.5377 0 12.9415 0.528465 12.8569 1.22914L12.4742 4.39842C12.4636 4.48705 12.4024 4.56107 12.3146 4.59203C11.8813 4.74435 11.4505 4.92336 11.0346 5.12377C10.9543 5.16229 10.8629 5.15373 10.7959 5.10111L8.27795 3.12572C7.72254 2.68991 6.92745 2.738 6.42844 3.23701L5.63033 4.03512C5.44151 4.22395 5.44151 4.5301 5.63033 4.71867C5.81916 4.9075 6.12506 4.9075 6.31389 4.71867L7.112 3.92081C7.26558 3.76723 7.51005 3.75238 7.68125 3.88657L10.199 5.86196C10.5582 6.14369 11.0391 6.1948 11.454 5.9949C11.8382 5.80984 12.2355 5.64468 12.6353 5.5042C13.0729 5.35011 13.3791 4.97095 13.4342 4.51449L13.8166 1.34496C13.8428 1.12944 14.0261 0.966797 14.2434 0.966797H18.7566C18.9736 0.966797 19.1572 1.12944 19.1834 1.34496L19.5658 4.51449C19.6209 4.97095 19.9271 5.35011 20.3647 5.50394C20.7645 5.64468 21.1618 5.80984 21.546 5.9949C21.9609 6.19455 22.4418 6.14369 22.801 5.86196L25.3187 3.88657C25.4897 3.75238 25.7344 3.76723 25.888 3.92081L29.0792 7.112C29.2328 7.26558 29.2476 7.5103 29.1134 7.68125L27.138 10.199C26.8563 10.5582 26.8055 11.0391 27.0051 11.454C27.1902 11.8382 27.3553 12.2358 27.4961 12.6353C27.6499 13.0729 28.0293 13.3791 28.4855 13.4342L31.6548 13.8166C31.8706 13.8428 32.0332 14.0261 32.0332 14.2434V18.7566C32.0332 18.9739 31.8706 19.1572 31.655 19.1834L28.4855 19.5661C28.0293 19.6209 27.6499 19.9271 27.4961 20.3647C27.3553 20.7645 27.1902 21.1618 27.0051 21.546C26.8055 21.9609 26.8563 22.4418 27.138 22.801L29.1134 25.319C29.2476 25.49 29.2328 25.7347 29.0792 25.8883L25.888 29.0794C25.7344 29.233 25.4897 29.2476 25.3187 29.1137L22.801 27.1383C22.4418 26.8563 21.9609 26.8055 21.546 27.0054C21.1618 27.1904 20.7645 27.3556 20.3647 27.4961C19.9271 27.6501 19.6209 28.0293 19.5658 28.4858L19.1834 31.655C19.1572 31.8708 18.9739 32.0335 18.7566 32.0335H14.2434C14.0261 32.0335 13.8428 31.8708 13.8166 31.655L13.4342 28.4858C13.3791 28.0293 13.0729 27.6501 12.6353 27.4961C12.2355 27.3556 11.8382 27.1904 11.454 27.0054C11.0391 26.8055 10.5582 26.8563 10.199 27.1383L7.68125 29.1134C7.5103 29.2474 7.26558 29.2328 7.112 29.0792L3.92081 25.888C3.76723 25.7344 3.75238 25.4897 3.88657 25.3187L5.86196 22.801C6.14369 22.4418 6.19455 21.9609 5.9949 21.546C5.80984 21.1618 5.64468 20.7642 5.50394 20.3647C5.35011 19.9271 4.9707 19.6209 4.51449 19.5658L1.34521 19.1834C1.12944 19.1572 0.966797 18.9739 0.966797 18.7566V14.2434C0.966797 14.0261 1.12944 13.8428 1.34496 13.8166L4.51449 13.4339C4.9707 13.3791 5.35011 13.0729 5.50394 12.6353C5.64468 12.2355 5.80984 11.8382 5.9949 11.454C6.19455 11.0391 6.14369 10.5582 5.86196 10.199L3.88657 7.68125C3.75238 7.5103 3.76723 7.26558 3.92081 7.112L4.71893 6.31389C4.9075 6.12506 4.9075 5.81891 4.71893 5.63033C4.5301 5.44151 4.22395 5.44151 4.03512 5.63033L3.23726 6.42844C2.738 6.92745 2.69016 7.72254 3.12598 8.27795L5.10136 10.7959C5.15398 10.8629 5.16254 10.9543 5.12377 11.0346C4.92336 11.4508 4.74435 11.8815 4.59203 12.3143C4.56107 12.4024 4.48705 12.4636 4.39867 12.4742L1.22914 12.8569C0.528465 12.9415 0 13.5377 0 14.2434V18.7566C0 19.4623 0.528465 20.0585 1.22914 20.1431L4.39867 20.5258C4.48705 20.5364 4.56107 20.5976 4.59203 20.6854C4.74435 21.1185 4.92336 21.5492 5.12377 21.9654C5.16254 22.0457 5.15373 22.1371 5.10136 22.2041L3.12598 24.7221C2.69016 25.2775 2.738 26.0725 3.23726 26.5716L6.42844 29.7627C6.92745 30.262 7.72254 30.3098 8.27795 29.874L10.7959 27.8986C10.8629 27.846 10.9543 27.8375 11.0346 27.8762C11.4505 28.0766 11.8813 28.2554 12.3146 28.408C12.4024 28.4387 12.4636 28.513 12.4742 28.6013L12.8569 31.7706C12.9415 32.4715 13.5377 33 14.2434 33H18.7566C19.4623 33 20.0585 32.4715 20.1431 31.7709L20.5258 28.6013C20.5364 28.513 20.5976 28.4389 20.6854 28.408C21.1187 28.2556 21.5495 28.0766 21.9654 27.8762C22.0457 27.8375 22.1371 27.8463 22.2041 27.8989L24.7221 29.8743C25.2772 30.3098 26.0725 30.262 26.5716 29.763L29.7627 26.5718C30.262 26.0725 30.3098 25.2775 29.874 24.7221L27.8986 22.2044C27.846 22.1374 27.8375 22.0457 27.8762 21.9657C28.0766 21.5492 28.2554 21.1187 28.408 20.6857C28.4387 20.5978 28.513 20.5366 28.6013 20.5258L31.7706 20.1431C32.4715 20.0585 33 19.4623 33 18.7566V14.2434C33 13.5377 32.4715 12.9415 31.7709 12.8569Z" fill="white"/>
</svg>
