<svg width="35" height="29" viewBox="0 0 35 29" xmlns="http://www.w3.org/2000/svg">
<path d="M29.577 9.94051L34.2966 8.16282C34.7239 8.00186 35 7.59443 35 7.12496C35 6.65549 34.7238 6.24828 34.2966 6.08732L18.7317 0.224454C17.9375 -0.074764 17.0626 -0.0748721 16.2682 0.224454L0.703513 6.08721C0.27619 6.24806 0 6.65538 0 7.12496C0 7.59454 0.276084 8.00186 0.703408 8.16282L5.42303 9.94051V19.5234C5.42303 20.1554 5.69314 20.7553 6.10706 21.1585C6.5171 21.5576 6.97166 21.9333 7.4636 22.2846C7.4635 22.2847 7.46329 22.2849 7.46308 22.285C6.93469 22.8203 6.63169 23.5626 6.63169 24.3218V24.8674C6.63169 25.108 6.70479 25.3368 6.83225 25.5268L6.06883 27.3431C5.89623 27.7538 6.07889 28.2313 6.47689 28.4095C6.87446 28.5876 7.33729 28.3993 7.51011 27.9883L8.22944 26.2768C8.33218 26.3107 8.43598 26.34 8.54071 26.3641V28.1893C8.54071 28.637 8.89231 29 9.32623 29C9.76015 29 10.1118 28.637 10.1118 28.1893V26.3641C10.2165 26.3399 10.3203 26.3107 10.4229 26.2768L11.1424 27.9883C11.3153 28.3996 11.7782 28.5875 12.1756 28.4095C12.5737 28.2313 12.7563 27.7538 12.5836 27.3431L11.8202 25.5268C11.9477 25.3368 12.0209 25.1079 12.0209 24.8673V24.4488C13.7432 24.954 15.6109 25.2189 17.4998 25.2189C21.5105 25.2189 26.0047 23.9698 28.8929 21.1582C29.308 20.7539 29.5768 20.1493 29.5768 19.5232C29.577 18.4393 29.577 11.039 29.577 9.94051V9.94051ZM16.8068 1.74768C17.2538 1.57926 17.7462 1.57926 18.1931 1.74768L32.4692 7.12507C32.2036 7.22506 18.4384 12.41 18.1932 12.5023C17.746 12.6708 17.2537 12.6707 16.8068 12.5023L11.32 10.4356L15.8594 8.12153L16.2684 8.27557C16.6655 8.42518 17.0827 8.49998 17.5001 8.49998C17.9174 8.49998 18.3348 8.42518 18.7319 8.27557L19.4563 8.00272C19.8981 7.83647 20.1948 7.39877 20.1948 6.91352V6.31627C20.1948 4.81121 19.009 3.56374 17.5514 3.53553C16.8399 3.52212 16.157 3.80416 15.6369 4.33114C15.1085 4.86645 14.8055 5.60876 14.8055 6.36794V6.8505C9.07539 9.77155 9.44113 9.57751 9.30026 9.67491L2.53095 7.12507L16.8068 1.74768ZM16.3762 6.59019V6.36783C16.3762 6.04127 16.5078 5.72064 16.737 5.48823C16.9536 5.2689 17.2292 5.15248 17.5216 5.15658C18.1292 5.16837 18.6236 5.68854 18.6236 6.31616V6.59009L18.1931 6.75223C17.7461 6.92065 17.2538 6.92054 16.8069 6.75223L16.3762 6.59019ZM8.54082 17.2286C8.04552 16.8899 7.59075 16.5222 7.18501 16.1272C7.06362 16.0091 6.99407 15.843 6.99407 15.6718V10.5325L8.54197 11.1155C8.54019 11.2199 8.54082 10.4139 8.54082 17.2286ZM8.20262 24.5443C8.20262 24.3136 8.16146 23.8495 8.56344 23.4422C8.79323 23.2095 9.07947 23.1057 9.34791 23.1107C10.1544 23.1264 10.4498 23.7148 10.4498 24.5442C9.50606 24.8997 9.33712 24.9716 8.20262 24.5443V24.5443ZM8.54082 21.0798C8.09097 20.7723 7.67821 20.4422 7.30608 20.093C7.18888 19.9829 6.99397 19.8347 6.99397 19.5234V18.0819C7.47062 18.4569 7.98969 18.8027 8.54082 19.1204V21.0798ZM11.4495 22.5603C11.1143 22.1155 10.6519 21.7788 10.1119 21.6093V19.9055C11.7675 20.618 13.6349 21.0937 15.5958 21.2777C16.0287 21.3178 16.4101 20.9896 16.4492 20.5437C16.4886 20.0978 16.1702 19.7035 15.7382 19.6629C13.6864 19.4704 11.7555 18.939 10.1118 18.1379V11.7067L16.2681 14.0257C16.6557 14.1716 17.0774 14.2501 17.4998 14.2501C17.9323 14.25 18.3546 14.1676 18.7315 14.0257H18.7316L28.0058 10.5325V15.6718C28.0058 15.843 27.9363 16.0091 27.8149 16.1272C25.8404 18.0495 22.7229 19.3382 19.2616 19.663C18.8296 19.7036 18.5112 20.0979 18.5506 20.5438C18.5897 20.9898 18.9715 21.3186 19.4039 21.2778C22.7351 20.9652 25.8006 19.817 28.0058 18.082V19.5235C28.0058 19.7016 27.9289 19.8679 27.8149 19.9789C25.2054 22.5194 21.0979 23.5977 17.4999 23.5977C15.3792 23.5975 13.2932 23.2394 11.4495 22.5603V22.5603Z" fill="white"/>
</svg>
