<svg width="33" height="33" viewBox="0 0 33 33" xmlns="http://www.w3.org/2000/svg">
<path d="M13.2972 27.6612C14.1525 27.6612 14.8484 26.9653 14.8484 26.11C14.8484 25.2546 14.1525 24.5588 13.2972 24.5588C12.4419 24.5588 11.7461 25.2547 11.7461 26.11C11.746 26.9653 12.4419 27.6612 13.2972 27.6612ZM13.2972 25.5256C13.6195 25.5256 13.8816 25.7877 13.8816 26.1099C13.8816 26.4322 13.6195 26.6943 13.2972 26.6943C12.975 26.6943 12.7129 26.4322 12.7129 26.1099C12.7128 25.7878 12.975 25.5256 13.2972 25.5256Z" fill="#F7CE03"/>
<path d="M17.5668 27.6612C18.4221 27.6612 19.1179 26.9653 19.1179 26.11C19.1179 25.2546 18.422 24.5588 17.5668 24.5588C16.7115 24.5588 16.0156 25.2546 16.0156 26.11C16.0156 26.9653 16.7115 27.6612 17.5668 27.6612ZM17.5668 25.5256C17.889 25.5256 18.1511 25.7877 18.1511 26.1099C18.1511 26.4322 17.889 26.6943 17.5668 26.6943C17.2446 26.6943 16.9824 26.4322 16.9824 26.11C16.9824 25.7878 17.2446 25.5256 17.5668 25.5256Z" fill="#F7CE03"/>
<path d="M32.001 17.0843H30.8645V3.84837C30.8645 3.64682 30.8054 3.45172 30.6936 3.28408L28.8063 0.453041C28.6172 0.169383 28.3007 0 27.9598 0H5.04023C4.69928 0 4.38281 0.169383 4.19377 0.452977L2.30646 3.28402C2.19463 3.45172 2.13553 3.64682 2.13553 3.84837V5.33885H2.06682C1.51594 5.33885 1.06779 5.78699 1.06779 6.33787V11.7133C1.06779 12.2641 1.51594 12.7123 2.06682 12.7123H2.13553V17.0843H0.999023C0.448143 17.0843 0 17.5325 0 18.0834V19.1877C0 19.7386 0.448143 20.1867 0.999023 20.1867H1.2027L1.91696 22.3294C2.10865 22.9044 2.61274 23.3072 3.20332 23.3778V29.8976H3.13455C2.58367 29.8976 2.13553 30.3458 2.13553 30.8966V32.001C2.13553 32.5519 2.58367 33 3.13455 33H8.50994C9.06082 33 9.50896 32.5519 9.50896 32.001V30.8967C9.50896 30.3458 9.06082 29.8977 8.50994 29.8977H8.44123V23.39H9.60996V28.282C9.60996 29.1172 10.2894 29.7967 11.1246 29.7967H21.8754C22.7106 29.7967 23.39 29.1172 23.39 28.282V23.39H24.5588V29.8977H24.4901C23.9392 29.8977 23.491 30.3458 23.491 30.8967V32.001C23.491 32.5519 23.9392 33 24.4901 33H29.8655C30.4163 33 30.8645 32.5519 30.8645 32.001V30.8967C30.8645 30.3458 30.4163 29.8977 29.8655 29.8977H29.7967V23.3779C30.3873 23.3072 30.8914 22.9044 31.083 22.3295L31.7973 20.1867H32.001C32.5519 20.1867 33 19.7386 33 19.1877V18.0834C33 17.5325 32.5519 17.0843 32.001 17.0843ZM7.37344 17.0843V11.6446H19.2199V12.0077C19.2199 12.2796 19.3258 12.5352 19.5178 12.7271L20.2729 13.4822C20.465 13.6742 20.7205 13.7801 20.9923 13.7801H21.3554V14.8984C21.3554 15.1654 21.5718 15.3818 21.8388 15.3818C22.1059 15.3818 22.3222 15.1654 22.3222 14.8984V13.7801H22.6855C22.9572 13.7801 23.2127 13.6742 23.4049 13.4822L24.1599 12.7271C24.352 12.5349 24.4578 12.2795 24.4578 12.0078V11.6446H25.6266V17.0843H7.37344ZM20.9923 12.8133C20.9787 12.8133 20.9661 12.8081 20.9565 12.7985L20.2013 12.0433C20.192 12.034 20.1867 12.021 20.1867 12.0077V9.5089H23.491V12.0077C23.491 12.021 23.4856 12.034 23.4762 12.0434L22.7211 12.7985C22.7117 12.808 22.699 12.8133 22.6854 12.8133H20.9923ZM7.37344 9.50896H19.2199V10.6778H7.37344V9.50896ZM23.491 8.54217H20.1867V7.95783C20.1867 7.63563 20.4488 7.3735 20.771 7.3735H22.9066C23.2288 7.3735 23.491 7.63563 23.491 7.95783V8.54217H23.491ZM24.4578 9.50896H25.6266V10.6778H24.4578V9.50896ZM25.6266 8.54217H24.4578V7.95783C24.4578 7.10248 23.762 6.4067 22.9067 6.4067H20.7711C19.9158 6.4067 19.22 7.10254 19.22 7.95783V8.54217H7.37344V3.10232H25.6266V8.54217ZM26.5934 15.9157H29.8977V17.0844H26.5934V15.9157ZM28.0018 0.989291L29.8892 3.82046C29.8947 3.82877 29.8977 3.83844 29.8977 3.84843V14.9489H26.5934V11.1612V9.02563V0.966797H27.9598C27.9767 0.966797 27.9924 0.975176 28.0018 0.989291ZM25.6266 2.13553H7.37344V0.966797H25.6266V2.13553ZM2.03453 11.7133V6.33787C2.03453 6.32014 2.04903 6.30564 2.06675 6.30564H3.17109C3.18882 6.30564 3.20332 6.32014 3.20332 6.33787V11.7133C3.20332 11.731 3.18882 11.7455 3.17109 11.7455H2.06675C2.04903 11.7455 2.03453 11.731 2.03453 11.7133ZM3.17109 12.7123C3.72197 12.7123 4.17012 12.2641 4.17012 11.7133V6.33787C4.17012 5.78699 3.72197 5.33885 3.17109 5.33885H3.10232V3.84837C3.10232 3.83844 3.10529 3.82871 3.11083 3.82033L4.99828 0.989162C5.00756 0.975176 5.02335 0.966797 5.04023 0.966797H6.40664V9.02557V11.1612V14.9489H3.10232V12.7123H3.17109V12.7123ZM3.10232 15.9157H6.40664V17.0844H3.10232V15.9157ZM8.54217 30.8967V32.001C8.54217 32.0187 8.52766 32.0332 8.50994 32.0332H3.13455C3.11682 32.0332 3.10232 32.0187 3.10232 32.001V30.8967C3.10232 30.879 3.11682 30.8645 3.13455 30.8645H8.50994C8.52773 30.8645 8.54217 30.879 8.54217 30.8967ZM4.17012 29.8977V28.7289H7.47444V29.8977H4.17012ZM7.47444 27.7621H4.17012V23.39H7.47444V27.7621ZM22.4232 28.282C22.4232 28.5841 22.1775 28.8299 21.8754 28.8299H11.1246C10.8226 28.8299 10.5768 28.5841 10.5768 28.282V23.39H22.4232V28.282ZM28.8299 27.7621H25.5256V23.39H28.8299V27.7621ZM29.8977 30.8967V32.001C29.8977 32.0187 29.8832 32.0332 29.8655 32.0332H24.4901C24.4723 32.0332 24.4578 32.0187 24.4578 32.001V30.8967C24.4578 30.879 24.4723 30.8645 24.4901 30.8645H29.8655C29.8832 30.8645 29.8977 30.879 29.8977 30.8967ZM25.5256 29.8977V28.7289H28.8299V29.8977H25.5256ZM30.1658 22.0236C30.0861 22.2627 29.8634 22.4232 29.6114 22.4232H3.38856C3.13661 22.4232 2.91386 22.2627 2.83413 22.0236L2.22183 20.1867H30.7781L30.1658 22.0236ZM32.0332 19.1877C32.0332 19.2054 32.0187 19.2199 32.001 19.2199H0.999023C0.981299 19.2199 0.966797 19.2054 0.966797 19.1877V18.0834C0.966797 18.0656 0.981299 18.0511 0.999023 18.0511H32.001C32.0187 18.0511 32.0332 18.0656 32.0332 18.0834V19.1877Z" fill="#F7CE03"/>
</svg>
