<svg width="43" height="49" viewBox="0 0 43 49" xmlns="http://www.w3.org/2000/svg">
<path d="M12.5 5.5C11.7 5.9 10.8333 8.66667 10.5 10L10 11H32L32.5 10.5V9L31 6.5L29.5 4L27 2.5L24 1.5C23.1667 1.33333 21.4 1 21 1C20.5 1 18.5 1.5 17.5 2C16.5 2.5 13.5 5 12.5 5.5Z"/>
<path d="M41.2384 38.5472C40.7081 35.363 38.4755 32.7502 35.4122 31.7291L28.6122 29.4625V28.4517H27.0316V29.9343L25.8516 34.6533L22.6595 30.8226H20.3384L17.1462 34.6533L15.9671 29.9343V28.4517H14.3864V29.4625L7.5865 31.7291C4.524 32.7502 2.29134 35.363 1.76024 38.5472L0.0175781 49H21.4993H42.9811L41.2384 38.5472ZM7.34861 47.4194H1.88432L2.13801 45.8941L7.43476 46.5564L7.34861 47.4194ZM17.6528 47.4194H8.93716L9.64055 40.3855L8.0678 40.2283L7.59203 44.9836L2.39803 44.334L3.31876 38.8073C3.75343 36.2024 5.57987 34.0645 8.08598 33.2292L14.6164 31.0518L16.3678 38.0564L18.1499 35.9178L19.0928 37.3325L17.6528 47.4194ZM23.7494 47.4194H21.4993H19.2493L20.7438 36.9579L19.2058 34.651L21.0789 32.4033H21.919L23.7921 34.651L22.2541 36.9579L23.7494 47.4194ZM34.9309 40.2275L33.3581 40.3847L34.0615 47.4186H25.3458L23.9051 37.3317L24.8479 35.917L26.6309 38.0564L28.3823 31.0518L34.9127 33.2292C37.4188 34.0645 39.2452 36.2024 39.6799 38.808L40.6006 44.3348L35.4066 44.9844L34.9309 40.2275ZM35.6501 47.4194L35.5639 46.5564L40.8607 45.8941L41.1144 47.4194H35.6501Z"/>
<path d="M8.96552 14.9055C8.41071 15.5859 8.06376 16.4427 8.06376 17.3871C8.06376 19.4151 9.60489 21.0716 11.5744 21.2944C11.9774 22.6815 12.7219 23.9531 13.7715 25.0026L16.8537 28.0849C17.5998 28.831 18.5916 29.2419 19.6475 29.2419H23.3518C24.4068 29.2419 25.3995 28.831 26.1456 28.0849L29.2278 25.0026C30.2774 23.9531 31.0218 22.6807 31.4249 21.2944C33.3936 21.0716 34.9347 19.4151 34.9347 17.3871C34.9347 16.4427 34.5878 15.5859 34.033 14.9055C35.0082 14.6115 35.725 13.7153 35.725 12.6452C35.725 11.338 34.6613 10.2742 33.3541 10.2742H33.2419C32.612 5.60892 29.2073 1.70552 24.6605 0.444952V0H18.338V0.444952C13.7912 1.70552 10.3857 5.60971 9.75663 10.2742H9.64441C8.33721 10.2742 7.27344 11.338 7.27344 12.6452C7.27344 13.7153 7.99026 14.6115 8.96552 14.9055ZM9.64441 17.3871C9.64441 16.3581 10.3075 15.4887 11.2251 15.1615V18.8555C11.2251 19.1139 11.2401 19.37 11.2622 19.6245C10.3257 19.3076 9.64441 18.4295 9.64441 17.3871ZM30.192 18.8555C30.1928 20.7554 29.453 22.5416 28.1095 23.8851L25.0272 26.9674C24.5862 27.4084 23.9753 27.6613 23.351 27.6613H19.6467C19.0224 27.6613 18.4122 27.4084 17.9705 26.9674L14.8882 23.8851C13.5446 22.5416 12.8049 20.7554 12.8049 18.8555V15.0161H30.192V18.8555ZM31.7363 19.6237C31.7584 19.37 31.7734 19.1139 31.7734 18.8555V15.1615C32.691 15.4887 33.3541 16.3581 33.3541 17.3871C33.3541 18.4295 32.6728 19.3076 31.7363 19.6237ZM18.338 2.09119V8.69355H19.9186V1.58064H23.0799V8.69355H24.6605V2.09119C28.3237 3.27905 31.0574 6.46879 31.6517 10.2742H11.3468C11.9411 6.46879 14.6748 3.27905 18.338 2.09119ZM9.64441 11.8548H33.3541C33.7895 11.8548 34.1444 12.2097 34.1444 12.6452C34.1444 13.0806 33.7895 13.4355 33.3541 13.4355H9.64441C9.20894 13.4355 8.85408 13.0806 8.85408 12.6452C8.85408 12.2097 9.20894 11.8548 9.64441 11.8548Z"/>
<path d="M27.8228 7.11279H26.2422V8.69344H27.8228V7.11279Z"/>
<path d="M16.7564 7.11279H15.1758V8.69344H16.7564V7.11279Z"/>
</svg>
