<svg width="48" height="54" viewBox="0 0 48 54" xmlns="http://www.w3.org/2000/svg">
<path d="M11.9121 6.79939C11.9121 6.49576 12.2269 6.33838 12.5532 6.33838H14.7231C15.8927 6.33838 16.9833 6.7207 16.9833 8.31715C16.9833 9.23918 16.6236 9.84645 16.0275 10.1052C16.7134 10.375 17.1855 10.8134 17.1855 11.9381V12.1742C17.1855 13.928 16.2075 14.5579 14.9365 14.5579H12.5527C12.1593 14.5579 11.9121 14.3445 11.9121 14.108V6.79939ZM13.3627 9.53169H14.6217C15.229 9.53169 15.5215 9.13824 15.5215 8.56476C15.5215 7.97974 15.1841 7.62007 14.6106 7.62007H13.3623V9.53169H13.3627ZM14.6333 13.2758C15.3188 13.2758 15.7238 12.905 15.7238 12.0506V11.8705C15.7238 10.9934 15.3188 10.6787 14.6333 10.6787H13.3627V13.2758H14.6333Z"/>
<path d="M18.2324 6.78786C18.2324 6.4731 18.5921 6.33838 18.9633 6.33838C19.323 6.33838 19.6942 6.4731 19.6942 6.78786V14.0969C19.6942 14.4006 19.323 14.5579 18.9633 14.5579C18.5921 14.5579 18.2324 14.4006 18.2324 14.0969V6.78786Z"/>
<path d="M21.6836 14.5579C21.3577 14.5579 21.043 14.4006 21.043 14.0969V6.78786C21.043 6.4731 21.4026 6.33838 21.7738 6.33838C22.1335 6.33838 22.5047 6.4731 22.5047 6.78786V13.2762H25.2481C25.5406 13.2762 25.6869 13.591 25.6869 13.9169C25.6869 14.2316 25.5406 14.5579 25.2481 14.5579H21.6836Z"/>
<path d="M27.1254 14.5579C26.7991 14.5579 26.4844 14.4006 26.4844 14.0969V6.78786C26.4844 6.4731 26.8445 6.33838 27.2152 6.33838C27.5753 6.33838 27.9461 6.4731 27.9461 6.78786V13.2762H30.6899C30.982 13.2762 31.1283 13.591 31.1283 13.9169C31.1283 14.2316 30.982 14.5579 30.6899 14.5579H27.1254Z"/>
<path d="M38.4248 14.5469C37.0644 14.5131 36.041 13.7823 36.041 13.1523C36.041 12.8376 36.3224 12.365 36.6705 12.365C37.0978 12.365 37.4352 13.0963 38.4248 13.2084V10.9709C37.4014 10.5885 36.2433 10.1502 36.2433 8.71069C36.2433 7.28275 37.3005 6.66435 38.4248 6.5181V6.20334C38.4248 6.05708 38.5933 5.92236 38.8071 5.92236C38.9983 5.92236 39.1894 6.05708 39.1894 6.20334V6.49585C39.9203 6.5181 41.1122 6.73151 41.1122 7.38409C41.1122 7.64241 40.9325 8.15987 40.5164 8.15987C40.2017 8.15987 39.9429 7.79979 39.1894 7.74376V9.72295C40.1901 10.0937 41.3149 10.6001 41.3149 12.129C41.3149 13.512 40.4489 14.3104 39.1894 14.5127V14.8617C39.1894 15.0079 38.9983 15.1426 38.8071 15.1426C38.5933 15.1426 38.4248 15.0079 38.4248 14.8617V14.5469ZM38.5146 9.47534V7.77754C37.9526 7.86777 37.6152 8.13762 37.6152 8.56485C37.6152 9.05965 37.9975 9.27306 38.5146 9.47534ZM39.0992 11.2407V13.1976C39.594 13.0963 39.9425 12.8038 39.9425 12.2756C39.9429 11.7244 39.5829 11.4545 39.0992 11.2407Z"/>
<path d="M32.1606 23.1099H11.7812C11.3445 23.1099 10.9902 23.4638 10.9902 23.9009C10.9902 24.338 11.3445 24.6919 11.7812 24.6919H32.1606C32.5977 24.6919 32.9516 24.338 32.9516 23.9009C32.9516 23.4638 32.5977 23.1099 32.1606 23.1099Z"/>
<path d="M32.1606 29.6909H11.7812C11.3445 29.6909 10.9902 30.0448 10.9902 30.4819C10.9902 30.9186 11.3445 31.2729 11.7812 31.2729H32.1606C32.5977 31.2729 32.9516 30.9186 32.9516 30.4819C32.9516 30.0448 32.5977 29.6909 32.1606 29.6909Z"/>
<path d="M32.1606 36.271H11.7812C11.3445 36.271 10.9902 36.6253 10.9902 37.062C10.9902 37.4991 11.3445 37.853 11.7812 37.853H32.1606C32.5977 37.853 32.9516 37.4991 32.9516 37.062C32.9516 36.6253 32.5977 36.271 32.1606 36.271Z"/>
<path d="M32.1606 42.8516H11.7812C11.3445 42.8516 10.9902 43.2055 10.9902 43.6426C10.9902 44.0797 11.3445 44.4336 11.7812 44.4336H32.1606C32.5977 44.4336 32.9516 44.0797 32.9516 43.6426C32.9516 43.2055 32.5977 42.8516 32.1606 42.8516Z"/>
<path d="M41.0319 23.1099H35.9043C35.4676 23.1099 35.1133 23.4638 35.1133 23.9009C35.1133 24.338 35.4676 24.6919 35.9043 24.6919H41.0319C41.4686 24.6919 41.8229 24.338 41.8229 23.9009C41.8229 23.4638 41.4686 23.1099 41.0319 23.1099Z"/>
<path d="M41.0319 29.6909H35.9043C35.4676 29.6909 35.1133 30.0448 35.1133 30.4819C35.1133 30.9186 35.4676 31.2729 35.9043 31.2729H41.0319C41.4686 31.2729 41.8229 30.9186 41.8229 30.4819C41.8229 30.0448 41.4686 29.6909 41.0319 29.6909Z"/>
<path d="M41.0319 36.271H35.9043C35.4676 36.271 35.1133 36.6253 35.1133 37.062C35.1133 37.4991 35.4676 37.853 35.9043 37.853H41.0319C41.4686 37.853 41.8229 37.4991 41.8229 37.062C41.8229 36.6253 41.4686 36.271 41.0319 36.271Z"/>
<path d="M43.1252 0H4.25542C1.96724 0 0.105469 1.86177 0.105469 4.14995V38.4969C0.105469 40.3669 1.62653 41.888 3.49695 41.888H3.89822C4.33493 41.888 4.68924 41.5341 4.68924 41.097C4.68924 40.6603 4.33493 40.306 3.89822 40.306H3.49695C2.49911 40.306 1.6875 39.4943 1.6875 38.4969V4.14995C1.6875 2.73395 2.83942 1.58203 4.25542 1.58203C5.67142 1.58203 6.82333 2.73395 6.82333 4.14995V51.6714C6.82333 52.4085 7.3239 53.0434 8.04117 53.2148L11.1463 53.9567C11.3877 54.0144 11.6428 54.014 11.8838 53.9567L15.4174 53.113L18.9481 53.9567C19.1891 54.0144 19.4442 54.014 19.6856 53.9567L23.2184 53.113L26.7495 53.9567C26.9909 54.0144 27.246 54.014 27.4874 53.9567L31.0206 53.113L34.5521 53.9567C34.7936 54.0144 35.0482 54.014 35.2896 53.9567L38.8232 53.113L42.3544 53.9563C42.4751 53.9856 42.5995 54 42.7239 54C42.8479 54 42.9719 53.9856 43.0926 53.9567L46.1986 53.2148C46.9159 53.0434 47.4164 52.4085 47.4164 51.6714V4.29126C47.4164 1.92522 45.4912 0 43.1252 0V0ZM45.8307 51.676L42.7227 52.418L39.1907 51.5742C38.9493 51.5165 38.6943 51.5165 38.4532 51.5742L34.9196 52.418L31.3881 51.5742C31.1471 51.5165 30.892 51.5165 30.6506 51.5742L27.1174 52.418L23.5859 51.5742C23.3444 51.5165 23.0894 51.5165 22.8484 51.5742L19.3156 52.418L15.7849 51.5742C15.6642 51.5454 15.5402 51.531 15.4162 51.531C15.2921 51.531 15.1681 51.5454 15.0474 51.5742L11.5142 52.418L8.40536 51.6714V4.14995C8.40536 4.08321 8.40331 4.01729 8.40001 3.95137C8.39919 3.92995 8.39754 3.90852 8.39589 3.8871C8.39342 3.84261 8.39012 3.79852 8.386 3.75403C8.38353 3.72972 8.38065 3.70541 8.37776 3.68069C8.37323 3.63991 8.36829 3.59871 8.36252 3.55833C8.35881 3.53362 8.3551 3.5089 8.35098 3.48459C8.34439 3.44339 8.33698 3.4026 8.32915 3.3614C8.32462 3.33875 8.3205 3.31609 8.31596 3.29343C8.30608 3.24646 8.29495 3.20032 8.28383 3.15417C8.27971 3.13811 8.27641 3.12204 8.27229 3.10638C8.25623 3.045 8.23892 2.98402 8.22038 2.92387C8.21544 2.90863 8.21008 2.8938 8.20514 2.87856C8.19072 2.83365 8.17548 2.78833 8.15982 2.74384C8.15199 2.72241 8.14334 2.70099 8.1351 2.67957C8.12109 2.64207 8.10626 2.60417 8.09102 2.56709C8.08154 2.54443 8.07166 2.52177 8.06218 2.49953C8.04652 2.46327 8.03004 2.42784 8.01357 2.39241C8.00327 2.37057 7.99297 2.34874 7.98225 2.3269C7.96413 2.28983 7.94476 2.25275 7.9254 2.21608C7.91551 2.19754 7.90604 2.17859 7.89615 2.16046C7.86813 2.10938 7.83888 2.0587 7.80881 2.00926C7.80675 2.00555 7.8051 2.00226 7.80304 1.99855C7.7709 1.94582 7.73712 1.89391 7.70293 1.84282C7.69139 1.82593 7.67986 1.80945 7.66832 1.79297C7.64401 1.75836 7.61971 1.72375 7.59499 1.68997C7.58098 1.67143 7.56697 1.65289 7.55255 1.63435C7.53937 1.61705 7.5266 1.59933 7.513 1.58203H43.1252C44.619 1.58203 45.8344 2.79739 45.8344 4.29167L45.8307 51.676Z"/>
</svg>
